<?xml version="1.0" encoding="utf-8" standalone="no"?>
<!DOCTYPE svg PUBLIC "-//W3C//DTD SVG 1.1//EN"
  "http://www.w3.org/Graphics/SVG/1.1/DTD/svg11.dtd">
<!-- Created with matplotlib (http://matplotlib.org/) -->
<svg height="1080pt" version="1.1" viewBox="0 0 1080 1080" width="1080pt" xmlns="http://www.w3.org/2000/svg" xmlns:xlink="http://www.w3.org/1999/xlink">
 <defs>
  <style type="text/css">
*{stroke-linecap:butt;stroke-linejoin:round;}
  </style>
 </defs>
 <g id="figure_1">
  <g id="patch_1">
   <path d="M 0 1080 
L 1080 1080 
L 1080 0 
L 0 0 
z
" style="fill:#ffffff;"/>
  </g>
  <g id="axes_1">
   <g id="patch_2">
    <path d="M 135 945 
L 972 945 
L 972 129.6 
L 135 129.6 
z
" style="fill:#ffffff;"/>
   </g>
   <g id="PathCollection_1">
    <defs>
     <path d="M 0 4.1833 
C 1.109424 4.1833 2.173559 3.742521 2.95804 2.95804 
C 3.742521 2.173559 4.1833 1.109424 4.1833 0 
C 4.1833 -1.109424 3.742521 -2.173559 2.95804 -2.95804 
C 2.173559 -3.742521 1.109424 -4.1833 0 -4.1833 
C -1.109424 -4.1833 -2.173559 -3.742521 -2.95804 -2.95804 
C -3.742521 -2.173559 -4.1833 -1.109424 -4.1833 0 
C -4.1833 1.109424 -3.742521 2.173559 -2.95804 2.95804 
C -2.173559 3.742521 -1.109424 4.1833 0 4.1833 
z
" id="m1d8750cb52" style="stroke:#000000;"/>
    </defs>
    <g clip-path="url(#pa009afc17e)">
     <use style="stroke:#000000;" x="306.374474" xlink:href="#m1d8750cb52" y="230.778104"/>
     <use style="stroke:#000000;" x="285.220238" xlink:href="#m1d8750cb52" y="484.399961"/>
     <use style="stroke:#000000;" x="182.208684" xlink:href="#m1d8750cb52" y="309.798542"/>
     <use style="stroke:#000000;" x="361.020574" xlink:href="#m1d8750cb52" y="733.568759"/>
     <use style="stroke:#000000;" x="288.590631" xlink:href="#m1d8750cb52" y="945"/>
     <use style="stroke:#000000;" x="327.357228" xlink:href="#m1d8750cb52" y="129.6"/>
     <use style="stroke:#000000;" x="324.46289" xlink:href="#m1d8750cb52" y="519.604137"/>
     <use style="stroke:#000000;" x="238.858319" xlink:href="#m1d8750cb52" y="805.355766"/>
     <use style="stroke:#000000;" x="386.235618" xlink:href="#m1d8750cb52" y="551.847103"/>
     <use style="stroke:#000000;" x="194.585301" xlink:href="#m1d8750cb52" y="487.70512"/>
     <use style="stroke:#000000;" x="248.826352" xlink:href="#m1d8750cb52" y="632.390655"/>
     <use style="stroke:#000000;" x="222.055829" xlink:href="#m1d8750cb52" y="657.365072"/>
     <use style="stroke:#000000;" x="387.376583" xlink:href="#m1d8750cb52" y="830.330183"/>
     <use style="stroke:#000000;" x="333.049598" xlink:href="#m1d8750cb52" y="742.643792"/>
     <use style="stroke:#000000;" x="264.009826" xlink:href="#m1d8750cb52" y="772.034889"/>
     <use style="stroke:#000000;" x="391.890288" xlink:href="#m1d8750cb52" y="235.577019"/>
    </g>
   </g>
   <g id="PolyCollection_1">
    <path clip-path="url(#pa009afc17e)" d="M 135 576142.735636 
L 135 945 
L 193.190206 888.311477 
L 240.577427 842.147152 
L 280.551589 803.204581 
L 315.121323 769.526969 
L 345.575441 739.858764 
L 372.790461 713.346067 
L 397.389644 689.381702 
L 419.832042 667.518462 
L 440.465559 647.417423 
L 459.560165 628.815581 
L 477.329567 611.504744 
L 493.945831 595.317287 
L 509.549545 580.11625 
L 524.257056 565.788287 
L 538.165745 552.238532 
L 551.357933 539.386788 
L 563.903839 527.164647 
L 575.863839 515.513292 
L 587.290224 504.381782 
L 598.228584 493.725702 
L 608.718904 483.5061 
L 618.796449 473.688621 
L 628.492476 464.242814 
L 637.834822 455.14156 
L 646.848384 446.360607 
L 655.555518 437.878172 
L 663.976377 429.674626 
L 672.129188 421.732211 
L 680.030489 414.034814 
L 687.695335 406.56777 
L 695.137469 399.317691 
L 702.369469 392.272324 
L 709.402875 385.420425 
L 716.248304 378.751652 
L 722.915543 372.256471 
L 729.413633 365.926074 
L 735.750946 359.752305 
L 741.935245 353.7276 
L 747.973746 347.844931 
L 753.873165 342.097755 
L 759.639765 336.479971 
L 765.279396 330.985879 
L 770.797527 325.610151 
L 776.199285 320.347794 
L 781.489476 315.194124 
L 786.672615 310.144742 
L 791.752951 305.195513 
L 796.73448 300.342538 
L 801.620975 295.582147 
L 806.415992 290.910873 
L 811.122894 286.325439 
L 815.744861 281.822748 
L 820.284904 277.399868 
L 824.745877 273.054016 
L 829.130487 268.782558 
L 833.441304 264.582987 
L 837.680772 260.452925 
L 841.851213 256.390109 
L 845.954839 252.392382 
L 849.993758 248.457694 
L 853.969979 244.584085 
L 857.885418 240.76969 
L 861.741905 237.012724 
L 865.541191 233.311485 
L 869.284946 229.664343 
L 872.974771 226.06974 
L 876.612197 222.526182 
L 880.198692 219.032242 
L 883.735662 215.586548 
L 887.224457 212.187787 
L 890.666372 208.834696 
L 894.062648 205.526065 
L 897.414482 202.26073 
L 900.723021 199.037573 
L 903.989369 195.855518 
L 907.214589 192.71353 
L 910.399703 189.610612 
L 913.545698 186.545804 
L 916.653521 183.518183 
L 919.724089 180.526855 
L 922.758284 177.570962 
L 925.756957 174.649674 
L 928.720931 171.76219 
L 931.651 168.907736 
L 934.54793 166.085565 
L 937.412463 163.294956 
L 940.245315 160.535209 
L 943.04718 157.805651 
L 945.818727 155.105627 
L 948.560607 152.434505 
L 951.273447 149.791674 
L 953.957857 147.17654 
L 956.614425 144.588528 
L 959.243724 142.027082 
L 961.846308 139.491662 
L 964.422713 136.981744 
L 966.973462 134.496821 
L 969.499061 132.036399 
L 972 129.6 
L 972 576142.735636 
L 972 576142.735636 
L 969.499061 576142.735636 
L 966.973462 576142.735636 
L 964.422713 576142.735636 
L 961.846308 576142.735636 
L 959.243724 576142.735636 
L 956.614425 576142.735636 
L 953.957857 576142.735636 
L 951.273447 576142.735636 
L 948.560607 576142.735636 
L 945.818727 576142.735636 
L 943.04718 576142.735636 
L 940.245315 576142.735636 
L 937.412463 576142.735636 
L 934.54793 576142.735636 
L 931.651 576142.735636 
L 928.720931 576142.735636 
L 925.756957 576142.735636 
L 922.758284 576142.735636 
L 919.724089 576142.735636 
L 916.653521 576142.735636 
L 913.545698 576142.735636 
L 910.399703 576142.735636 
L 907.214589 576142.735636 
L 903.989369 576142.735636 
L 900.723021 576142.735636 
L 897.414482 576142.735636 
L 894.062648 576142.735636 
L 890.666372 576142.735636 
L 887.224457 576142.735636 
L 883.735662 576142.735636 
L 880.198692 576142.735636 
L 876.612197 576142.735636 
L 872.974771 576142.735636 
L 869.284946 576142.735636 
L 865.541191 576142.735636 
L 861.741905 576142.735636 
L 857.885418 576142.735636 
L 853.969979 576142.735636 
L 849.993758 576142.735636 
L 845.954839 576142.735636 
L 841.851213 576142.735636 
L 837.680772 576142.735636 
L 833.441304 576142.735636 
L 829.130487 576142.735636 
L 824.745877 576142.735636 
L 820.284904 576142.735636 
L 815.744861 576142.735636 
L 811.122894 576142.735636 
L 806.415992 576142.735636 
L 801.620975 576142.735636 
L 796.73448 576142.735636 
L 791.752951 576142.735636 
L 786.672615 576142.735636 
L 781.489476 576142.735636 
L 776.199285 576142.735636 
L 770.797527 576142.735636 
L 765.279396 576142.735636 
L 759.639765 576142.735636 
L 753.873165 576142.735636 
L 747.973746 576142.735636 
L 741.935245 576142.735636 
L 735.750946 576142.735636 
L 729.413633 576142.735636 
L 722.915543 576142.735636 
L 716.248304 576142.735636 
L 709.402875 576142.735636 
L 702.369469 576142.735636 
L 695.137469 576142.735636 
L 687.695335 576142.735636 
L 680.030489 576142.735636 
L 672.129188 576142.735636 
L 663.976377 576142.735636 
L 655.555518 576142.735636 
L 646.848384 576142.735636 
L 637.834822 576142.735636 
L 628.492476 576142.735636 
L 618.796449 576142.735636 
L 608.718904 576142.735636 
L 598.228584 576142.735636 
L 587.290224 576142.735636 
L 575.863839 576142.735636 
L 563.903839 576142.735636 
L 551.357933 576142.735636 
L 538.165745 576142.735636 
L 524.257056 576142.735636 
L 509.549545 576142.735636 
L 493.945831 576142.735636 
L 477.329567 576142.735636 
L 459.560165 576142.735636 
L 440.465559 576142.735636 
L 419.832042 576142.735636 
L 397.389644 576142.735636 
L 372.790461 576142.735636 
L 345.575441 576142.735636 
L 315.121323 576142.735636 
L 280.551589 576142.735636 
L 240.577427 576142.735636 
L 193.190206 576142.735636 
L 135 576142.735636 
z
" style="fill:#ff0000;fill-opacity:0.2;stroke:#ff0000;stroke-opacity:0.2;"/>
   </g>
   <g id="PolyCollection_2">
    <defs>
     <path d="M 135 -950.4 
L 135 -135 
L 193.190206 -191.688523 
L 240.577427 -237.852848 
L 280.551589 -276.795419 
L 315.121323 -310.473031 
L 345.575441 -340.141236 
L 372.790461 -366.653933 
L 397.389644 -390.618298 
L 419.832042 -412.481538 
L 440.465559 -432.582577 
L 459.560165 -451.184419 
L 477.329567 -468.495256 
L 493.945831 -484.682713 
L 509.549545 -499.88375 
L 524.257056 -514.211713 
L 538.165745 -527.761468 
L 551.357933 -540.613212 
L 563.903839 -552.835353 
L 575.863839 -564.486708 
L 587.290224 -575.618218 
L 598.228584 -586.274298 
L 608.718904 -596.4939 
L 618.796449 -606.311379 
L 628.492476 -615.757186 
L 637.834822 -624.85844 
L 646.848384 -633.639393 
L 655.555518 -642.121828 
L 663.976377 -650.325374 
L 672.129188 -658.267789 
L 680.030489 -665.965186 
L 687.695335 -673.43223 
L 695.137469 -680.682309 
L 702.369469 -687.727676 
L 709.402875 -694.579575 
L 716.248304 -701.248348 
L 722.915543 -707.743529 
L 729.413633 -714.073926 
L 735.750946 -720.247695 
L 741.935245 -726.2724 
L 747.973746 -732.155069 
L 753.873165 -737.902245 
L 759.639765 -743.520029 
L 765.279396 -749.014121 
L 770.797527 -754.389849 
L 776.199285 -759.652206 
L 781.489476 -764.805876 
L 786.672615 -769.855258 
L 791.752951 -774.804487 
L 796.73448 -779.657462 
L 801.620975 -784.417853 
L 806.415992 -789.089127 
L 811.122894 -793.674561 
L 815.744861 -798.177252 
L 820.284904 -802.600132 
L 824.745877 -806.945984 
L 829.130487 -811.217442 
L 833.441304 -815.417013 
L 837.680772 -819.547075 
L 841.851213 -823.609891 
L 845.954839 -827.607618 
L 849.993758 -831.542306 
L 853.969979 -835.415915 
L 857.885418 -839.23031 
L 861.741905 -842.987276 
L 865.541191 -846.688515 
L 869.284946 -850.335657 
L 872.974771 -853.93026 
L 876.612197 -857.473818 
L 880.198692 -860.967758 
L 883.735662 -864.413452 
L 887.224457 -867.812213 
L 890.666372 -871.165304 
L 894.062648 -874.473935 
L 897.414482 -877.73927 
L 900.723021 -880.962427 
L 903.989369 -884.144482 
L 907.214589 -887.28647 
L 910.399703 -890.389388 
L 913.545698 -893.454196 
L 916.653521 -896.481817 
L 919.724089 -899.473145 
L 922.758284 -902.429038 
L 925.756957 -905.350326 
L 928.720931 -908.23781 
L 931.651 -911.092264 
L 934.54793 -913.914435 
L 937.412463 -916.705044 
L 940.245315 -919.464791 
L 943.04718 -922.194349 
L 945.818727 -924.894373 
L 948.560607 -927.565495 
L 951.273447 -930.208326 
L 953.957857 -932.82346 
L 956.614425 -935.411472 
L 959.243724 -937.972918 
L 961.846308 -940.508338 
L 964.422713 -943.018256 
L 966.973462 -945.503179 
L 969.499061 -947.963601 
L 972 -950.4 
L 972 -950.4 
L 972 -950.4 
L 969.499061 -950.4 
L 966.973462 -950.4 
L 964.422713 -950.4 
L 961.846308 -950.4 
L 959.243724 -950.4 
L 956.614425 -950.4 
L 953.957857 -950.4 
L 951.273447 -950.4 
L 948.560607 -950.4 
L 945.818727 -950.4 
L 943.04718 -950.4 
L 940.245315 -950.4 
L 937.412463 -950.4 
L 934.54793 -950.4 
L 931.651 -950.4 
L 928.720931 -950.4 
L 925.756957 -950.4 
L 922.758284 -950.4 
L 919.724089 -950.4 
L 916.653521 -950.4 
L 913.545698 -950.4 
L 910.399703 -950.4 
L 907.214589 -950.4 
L 903.989369 -950.4 
L 900.723021 -950.4 
L 897.414482 -950.4 
L 894.062648 -950.4 
L 890.666372 -950.4 
L 887.224457 -950.4 
L 883.735662 -950.4 
L 880.198692 -950.4 
L 876.612197 -950.4 
L 872.974771 -950.4 
L 869.284946 -950.4 
L 865.541191 -950.4 
L 861.741905 -950.4 
L 857.885418 -950.4 
L 853.969979 -950.4 
L 849.993758 -950.4 
L 845.954839 -950.4 
L 841.851213 -950.4 
L 837.680772 -950.4 
L 833.441304 -950.4 
L 829.130487 -950.4 
L 824.745877 -950.4 
L 820.284904 -950.4 
L 815.744861 -950.4 
L 811.122894 -950.4 
L 806.415992 -950.4 
L 801.620975 -950.4 
L 796.73448 -950.4 
L 791.752951 -950.4 
L 786.672615 -950.4 
L 781.489476 -950.4 
L 776.199285 -950.4 
L 770.797527 -950.4 
L 765.279396 -950.4 
L 759.639765 -950.4 
L 753.873165 -950.4 
L 747.973746 -950.4 
L 741.935245 -950.4 
L 735.750946 -950.4 
L 729.413633 -950.4 
L 722.915543 -950.4 
L 716.248304 -950.4 
L 709.402875 -950.4 
L 702.369469 -950.4 
L 695.137469 -950.4 
L 687.695335 -950.4 
L 680.030489 -950.4 
L 672.129188 -950.4 
L 663.976377 -950.4 
L 655.555518 -950.4 
L 646.848384 -950.4 
L 637.834822 -950.4 
L 628.492476 -950.4 
L 618.796449 -950.4 
L 608.718904 -950.4 
L 598.228584 -950.4 
L 587.290224 -950.4 
L 575.863839 -950.4 
L 563.903839 -950.4 
L 551.357933 -950.4 
L 538.165745 -950.4 
L 524.257056 -950.4 
L 509.549545 -950.4 
L 493.945831 -950.4 
L 477.329567 -950.4 
L 459.560165 -950.4 
L 440.465559 -950.4 
L 419.832042 -950.4 
L 397.389644 -950.4 
L 372.790461 -950.4 
L 345.575441 -950.4 
L 315.121323 -950.4 
L 280.551589 -950.4 
L 240.577427 -950.4 
L 193.190206 -950.4 
L 135 -950.4 
z
" id="m32ac757aed" style="stroke:#008000;stroke-opacity:0.2;"/>
    </defs>
    <g clip-path="url(#pa009afc17e)">
     <use style="fill:#008000;fill-opacity:0.2;stroke:#008000;stroke-opacity:0.2;" x="0" xlink:href="#m32ac757aed" y="1080"/>
    </g>
   </g>
   <g id="matplotlib.axis_1">
    <g id="xtick_1">
     <g id="line2d_1">
      <defs>
       <path d="M 0 0 
L 0 3.5 
" id="mfbe5f3e8d3" style="stroke:#000000;stroke-width:0.8;"/>
      </defs>
      <g>
       <use style="stroke:#000000;stroke-width:0.8;" x="678.097301" xlink:href="#mfbe5f3e8d3" y="945"/>
      </g>
     </g>
     <g id="text_1">
      <!-- $\mathdefault{10^{2}}$ -->
      <defs>
       <path d="M 11.71875 12.984375 
L 28.328125 12.984375 
L 28.328125 60.109375 
L 11.28125 56.59375 
L 11.28125 69.390625 
L 28.21875 72.90625 
L 46.09375 72.90625 
L 46.09375 12.984375 
L 62.703125 12.984375 
L 62.703125 0 
L 11.71875 0 
z
" id="DejaVuSans-Bold-31"/>
       <path d="M 46 36.53125 
Q 46 50.203125 43.4375 55.78125 
Q 40.875 61.375 34.8125 61.375 
Q 28.765625 61.375 26.171875 55.78125 
Q 23.578125 50.203125 23.578125 36.53125 
Q 23.578125 22.703125 26.171875 17.03125 
Q 28.765625 11.375 34.8125 11.375 
Q 40.828125 11.375 43.40625 17.03125 
Q 46 22.703125 46 36.53125 
z
M 64.796875 36.375 
Q 64.796875 18.265625 56.984375 8.421875 
Q 49.171875 -1.421875 34.8125 -1.421875 
Q 20.40625 -1.421875 12.59375 8.421875 
Q 4.78125 18.265625 4.78125 36.375 
Q 4.78125 54.546875 12.59375 64.375 
Q 20.40625 74.21875 34.8125 74.21875 
Q 49.171875 74.21875 56.984375 64.375 
Q 64.796875 54.546875 64.796875 36.375 
z
" id="DejaVuSans-Bold-30"/>
       <path d="M 28.8125 13.8125 
L 60.890625 13.8125 
L 60.890625 0 
L 7.90625 0 
L 7.90625 13.8125 
L 34.515625 37.3125 
Q 38.09375 40.53125 39.796875 43.609375 
Q 41.5 46.6875 41.5 50 
Q 41.5 55.125 38.0625 58.25 
Q 34.625 61.375 28.90625 61.375 
Q 24.515625 61.375 19.28125 59.5 
Q 14.0625 57.625 8.109375 53.90625 
L 8.109375 69.921875 
Q 14.453125 72.015625 20.65625 73.109375 
Q 26.859375 74.21875 32.8125 74.21875 
Q 45.90625 74.21875 53.15625 68.453125 
Q 60.40625 62.703125 60.40625 52.390625 
Q 60.40625 46.4375 57.328125 41.28125 
Q 54.25 36.140625 44.390625 27.484375 
z
" id="DejaVuSans-Bold-32"/>
      </defs>
      <g transform="translate(662.737301 964.1575)scale(0.16 -0.16)">
       <use transform="translate(0 0.765625)" xlink:href="#DejaVuSans-Bold-31"/>
       <use transform="translate(69.580078 0.765625)" xlink:href="#DejaVuSans-Bold-30"/>
       <use transform="translate(140.117188 39.046875)scale(0.7)" xlink:href="#DejaVuSans-Bold-32"/>
      </g>
     </g>
    </g>
    <g id="xtick_2">
     <g id="line2d_2">
      <defs>
       <path d="M 0 0 
L 0 2 
" id="m9344ee3cee" style="stroke:#000000;stroke-width:0.6;"/>
      </defs>
      <g>
       <use style="stroke:#000000;stroke-width:0.6;" x="265.846007" xlink:href="#m9344ee3cee" y="945"/>
      </g>
     </g>
    </g>
    <g id="xtick_3">
     <g id="line2d_3">
      <g>
       <use style="stroke:#000000;stroke-width:0.6;" x="369.704326" xlink:href="#m9344ee3cee" y="945"/>
      </g>
     </g>
    </g>
    <g id="xtick_4">
     <g id="line2d_4">
      <g>
       <use style="stroke:#000000;stroke-width:0.6;" x="443.392975" xlink:href="#m9344ee3cee" y="945"/>
      </g>
     </g>
    </g>
    <g id="xtick_5">
     <g id="line2d_5">
      <g>
       <use style="stroke:#000000;stroke-width:0.6;" x="500.550333" xlink:href="#m9344ee3cee" y="945"/>
      </g>
     </g>
    </g>
    <g id="xtick_6">
     <g id="line2d_6">
      <g>
       <use style="stroke:#000000;stroke-width:0.6;" x="547.251294" xlink:href="#m9344ee3cee" y="945"/>
      </g>
     </g>
    </g>
    <g id="xtick_7">
     <g id="line2d_7">
      <g>
       <use style="stroke:#000000;stroke-width:0.6;" x="586.736394" xlink:href="#m9344ee3cee" y="945"/>
      </g>
     </g>
    </g>
    <g id="xtick_8">
     <g id="line2d_8">
      <g>
       <use style="stroke:#000000;stroke-width:0.6;" x="620.939944" xlink:href="#m9344ee3cee" y="945"/>
      </g>
     </g>
    </g>
    <g id="xtick_9">
     <g id="line2d_9">
      <g>
       <use style="stroke:#000000;stroke-width:0.6;" x="651.109613" xlink:href="#m9344ee3cee" y="945"/>
      </g>
     </g>
    </g>
    <g id="xtick_10">
     <g id="line2d_10">
      <g>
       <use style="stroke:#000000;stroke-width:0.6;" x="855.64427" xlink:href="#m9344ee3cee" y="945"/>
      </g>
     </g>
    </g>
    <g id="xtick_11">
     <g id="line2d_11">
      <g>
       <use style="stroke:#000000;stroke-width:0.6;" x="959.502588" xlink:href="#m9344ee3cee" y="945"/>
      </g>
     </g>
    </g>
    <g id="text_2">
     <!-- |S| (learning) -->
     <defs>
      <path d="M 21 76.421875 
L 21 -23.578125 
L 12.703125 -23.578125 
L 12.703125 76.421875 
z
" id="DejaVuSans-7c"/>
      <path d="M 53.515625 70.515625 
L 53.515625 60.890625 
Q 47.90625 63.578125 42.921875 64.890625 
Q 37.9375 66.21875 33.296875 66.21875 
Q 25.25 66.21875 20.875 63.09375 
Q 16.5 59.96875 16.5 54.203125 
Q 16.5 49.359375 19.40625 46.890625 
Q 22.3125 44.4375 30.421875 42.921875 
L 36.375 41.703125 
Q 47.40625 39.59375 52.65625 34.296875 
Q 57.90625 29 57.90625 20.125 
Q 57.90625 9.515625 50.796875 4.046875 
Q 43.703125 -1.421875 29.984375 -1.421875 
Q 24.8125 -1.421875 18.96875 -0.25 
Q 13.140625 0.921875 6.890625 3.21875 
L 6.890625 13.375 
Q 12.890625 10.015625 18.65625 8.296875 
Q 24.421875 6.59375 29.984375 6.59375 
Q 38.421875 6.59375 43.015625 9.90625 
Q 47.609375 13.234375 47.609375 19.390625 
Q 47.609375 24.75 44.3125 27.78125 
Q 41.015625 30.8125 33.5 32.328125 
L 27.484375 33.5 
Q 16.453125 35.6875 11.515625 40.375 
Q 6.59375 45.0625 6.59375 53.421875 
Q 6.59375 63.09375 13.40625 68.65625 
Q 20.21875 74.21875 32.171875 74.21875 
Q 37.3125 74.21875 42.625 73.28125 
Q 47.953125 72.359375 53.515625 70.515625 
z
" id="DejaVuSans-53"/>
      <path id="DejaVuSans-20"/>
      <path d="M 31 75.875 
Q 24.46875 64.65625 21.28125 53.65625 
Q 18.109375 42.671875 18.109375 31.390625 
Q 18.109375 20.125 21.3125 9.0625 
Q 24.515625 -2 31 -13.1875 
L 23.1875 -13.1875 
Q 15.875 -1.703125 12.234375 9.375 
Q 8.59375 20.453125 8.59375 31.390625 
Q 8.59375 42.28125 12.203125 53.3125 
Q 15.828125 64.359375 23.1875 75.875 
z
" id="DejaVuSans-28"/>
      <path d="M 9.421875 75.984375 
L 18.40625 75.984375 
L 18.40625 0 
L 9.421875 0 
z
" id="DejaVuSans-6c"/>
      <path d="M 56.203125 29.59375 
L 56.203125 25.203125 
L 14.890625 25.203125 
Q 15.484375 15.921875 20.484375 11.0625 
Q 25.484375 6.203125 34.421875 6.203125 
Q 39.59375 6.203125 44.453125 7.46875 
Q 49.3125 8.734375 54.109375 11.28125 
L 54.109375 2.78125 
Q 49.265625 0.734375 44.1875 -0.34375 
Q 39.109375 -1.421875 33.890625 -1.421875 
Q 20.796875 -1.421875 13.15625 6.1875 
Q 5.515625 13.8125 5.515625 26.8125 
Q 5.515625 40.234375 12.765625 48.109375 
Q 20.015625 56 32.328125 56 
Q 43.359375 56 49.78125 48.890625 
Q 56.203125 41.796875 56.203125 29.59375 
z
M 47.21875 32.234375 
Q 47.125 39.59375 43.09375 43.984375 
Q 39.0625 48.390625 32.421875 48.390625 
Q 24.90625 48.390625 20.390625 44.140625 
Q 15.875 39.890625 15.1875 32.171875 
z
" id="DejaVuSans-65"/>
      <path d="M 34.28125 27.484375 
Q 23.390625 27.484375 19.1875 25 
Q 14.984375 22.515625 14.984375 16.5 
Q 14.984375 11.71875 18.140625 8.90625 
Q 21.296875 6.109375 26.703125 6.109375 
Q 34.1875 6.109375 38.703125 11.40625 
Q 43.21875 16.703125 43.21875 25.484375 
L 43.21875 27.484375 
z
M 52.203125 31.203125 
L 52.203125 0 
L 43.21875 0 
L 43.21875 8.296875 
Q 40.140625 3.328125 35.546875 0.953125 
Q 30.953125 -1.421875 24.3125 -1.421875 
Q 15.921875 -1.421875 10.953125 3.296875 
Q 6 8.015625 6 15.921875 
Q 6 25.140625 12.171875 29.828125 
Q 18.359375 34.515625 30.609375 34.515625 
L 43.21875 34.515625 
L 43.21875 35.40625 
Q 43.21875 41.609375 39.140625 45 
Q 35.0625 48.390625 27.6875 48.390625 
Q 23 48.390625 18.546875 47.265625 
Q 14.109375 46.140625 10.015625 43.890625 
L 10.015625 52.203125 
Q 14.9375 54.109375 19.578125 55.046875 
Q 24.21875 56 28.609375 56 
Q 40.484375 56 46.34375 49.84375 
Q 52.203125 43.703125 52.203125 31.203125 
z
" id="DejaVuSans-61"/>
      <path d="M 41.109375 46.296875 
Q 39.59375 47.171875 37.8125 47.578125 
Q 36.03125 48 33.890625 48 
Q 26.265625 48 22.1875 43.046875 
Q 18.109375 38.09375 18.109375 28.8125 
L 18.109375 0 
L 9.078125 0 
L 9.078125 54.6875 
L 18.109375 54.6875 
L 18.109375 46.1875 
Q 20.953125 51.171875 25.484375 53.578125 
Q 30.03125 56 36.53125 56 
Q 37.453125 56 38.578125 55.875 
Q 39.703125 55.765625 41.0625 55.515625 
z
" id="DejaVuSans-72"/>
      <path d="M 54.890625 33.015625 
L 54.890625 0 
L 45.90625 0 
L 45.90625 32.71875 
Q 45.90625 40.484375 42.875 44.328125 
Q 39.84375 48.1875 33.796875 48.1875 
Q 26.515625 48.1875 22.3125 43.546875 
Q 18.109375 38.921875 18.109375 30.90625 
L 18.109375 0 
L 9.078125 0 
L 9.078125 54.6875 
L 18.109375 54.6875 
L 18.109375 46.1875 
Q 21.34375 51.125 25.703125 53.5625 
Q 30.078125 56 35.796875 56 
Q 45.21875 56 50.046875 50.171875 
Q 54.890625 44.34375 54.890625 33.015625 
z
" id="DejaVuSans-6e"/>
      <path d="M 9.421875 54.6875 
L 18.40625 54.6875 
L 18.40625 0 
L 9.421875 0 
z
M 9.421875 75.984375 
L 18.40625 75.984375 
L 18.40625 64.59375 
L 9.421875 64.59375 
z
" id="DejaVuSans-69"/>
      <path d="M 45.40625 27.984375 
Q 45.40625 37.75 41.375 43.109375 
Q 37.359375 48.484375 30.078125 48.484375 
Q 22.859375 48.484375 18.828125 43.109375 
Q 14.796875 37.75 14.796875 27.984375 
Q 14.796875 18.265625 18.828125 12.890625 
Q 22.859375 7.515625 30.078125 7.515625 
Q 37.359375 7.515625 41.375 12.890625 
Q 45.40625 18.265625 45.40625 27.984375 
z
M 54.390625 6.78125 
Q 54.390625 -7.171875 48.1875 -13.984375 
Q 42 -20.796875 29.203125 -20.796875 
Q 24.46875 -20.796875 20.265625 -20.09375 
Q 16.0625 -19.390625 12.109375 -17.921875 
L 12.109375 -9.1875 
Q 16.0625 -11.328125 19.921875 -12.34375 
Q 23.78125 -13.375 27.78125 -13.375 
Q 36.625 -13.375 41.015625 -8.765625 
Q 45.40625 -4.15625 45.40625 5.171875 
L 45.40625 9.625 
Q 42.625 4.78125 38.28125 2.390625 
Q 33.9375 0 27.875 0 
Q 17.828125 0 11.671875 7.65625 
Q 5.515625 15.328125 5.515625 27.984375 
Q 5.515625 40.671875 11.671875 48.328125 
Q 17.828125 56 27.875 56 
Q 33.9375 56 38.28125 53.609375 
Q 42.625 51.21875 45.40625 46.390625 
L 45.40625 54.6875 
L 54.390625 54.6875 
z
" id="DejaVuSans-67"/>
      <path d="M 8.015625 75.875 
L 15.828125 75.875 
Q 23.140625 64.359375 26.78125 53.3125 
Q 30.421875 42.28125 30.421875 31.390625 
Q 30.421875 20.453125 26.78125 9.375 
Q 23.140625 -1.703125 15.828125 -13.1875 
L 8.015625 -13.1875 
Q 14.5 -2 17.703125 9.0625 
Q 20.90625 20.125 20.90625 31.390625 
Q 20.90625 42.671875 17.703125 53.65625 
Q 14.5 64.65625 8.015625 75.875 
z
" id="DejaVuSans-29"/>
     </defs>
     <g transform="translate(501.47 983.7125)scale(0.16 -0.16)">
      <use xlink:href="#DejaVuSans-7c"/>
      <use x="33.691406" xlink:href="#DejaVuSans-53"/>
      <use x="97.167969" xlink:href="#DejaVuSans-7c"/>
      <use x="130.859375" xlink:href="#DejaVuSans-20"/>
      <use x="162.646484" xlink:href="#DejaVuSans-28"/>
      <use x="201.660156" xlink:href="#DejaVuSans-6c"/>
      <use x="229.443359" xlink:href="#DejaVuSans-65"/>
      <use x="290.966797" xlink:href="#DejaVuSans-61"/>
      <use x="352.246094" xlink:href="#DejaVuSans-72"/>
      <use x="393.34375" xlink:href="#DejaVuSans-6e"/>
      <use x="456.722656" xlink:href="#DejaVuSans-69"/>
      <use x="484.505859" xlink:href="#DejaVuSans-6e"/>
      <use x="547.884766" xlink:href="#DejaVuSans-67"/>
      <use x="611.361328" xlink:href="#DejaVuSans-29"/>
     </g>
    </g>
   </g>
   <g id="matplotlib.axis_2">
    <g id="ytick_1">
     <g id="line2d_12">
      <defs>
       <path d="M 0 0 
L -3.5 0 
" id="meb0a4f0a4b" style="stroke:#000000;stroke-width:0.8;"/>
      </defs>
      <g>
       <use style="stroke:#000000;stroke-width:0.8;" x="135" xlink:href="#meb0a4f0a4b" y="415.918113"/>
      </g>
     </g>
     <g id="text_3">
      <!-- $\mathdefault{10^{2}}$ -->
      <g transform="translate(97.28 421.996863)scale(0.16 -0.16)">
       <use transform="translate(0 0.765625)" xlink:href="#DejaVuSans-Bold-31"/>
       <use transform="translate(69.580078 0.765625)" xlink:href="#DejaVuSans-Bold-30"/>
       <use transform="translate(140.117188 39.046875)scale(0.7)" xlink:href="#DejaVuSans-Bold-32"/>
      </g>
     </g>
    </g>
    <g id="ytick_2">
     <g id="line2d_13">
      <defs>
       <path d="M 0 0 
L -2 0 
" id="m116b447857" style="stroke:#000000;stroke-width:0.6;"/>
      </defs>
      <g>
       <use style="stroke:#000000;stroke-width:0.6;" x="135" xlink:href="#m116b447857" y="817.530664"/>
      </g>
     </g>
    </g>
    <g id="ytick_3">
     <g id="line2d_14">
      <g>
       <use style="stroke:#000000;stroke-width:0.6;" x="135" xlink:href="#m116b447857" y="716.35256"/>
      </g>
     </g>
    </g>
    <g id="ytick_4">
     <g id="line2d_15">
      <g>
       <use style="stroke:#000000;stroke-width:0.6;" x="135" xlink:href="#m116b447857" y="644.565553"/>
      </g>
     </g>
    </g>
    <g id="ytick_5">
     <g id="line2d_16">
      <g>
       <use style="stroke:#000000;stroke-width:0.6;" x="135" xlink:href="#m116b447857" y="588.883224"/>
      </g>
     </g>
    </g>
    <g id="ytick_6">
     <g id="line2d_17">
      <g>
       <use style="stroke:#000000;stroke-width:0.6;" x="135" xlink:href="#m116b447857" y="543.387449"/>
      </g>
     </g>
    </g>
    <g id="ytick_7">
     <g id="line2d_18">
      <g>
       <use style="stroke:#000000;stroke-width:0.6;" x="135" xlink:href="#m116b447857" y="504.921319"/>
      </g>
     </g>
    </g>
    <g id="ytick_8">
     <g id="line2d_19">
      <g>
       <use style="stroke:#000000;stroke-width:0.6;" x="135" xlink:href="#m116b447857" y="471.600442"/>
      </g>
     </g>
    </g>
    <g id="ytick_9">
     <g id="line2d_20">
      <g>
       <use style="stroke:#000000;stroke-width:0.6;" x="135" xlink:href="#m116b447857" y="442.209345"/>
      </g>
     </g>
    </g>
    <g id="ytick_10">
     <g id="line2d_21">
      <g>
       <use style="stroke:#000000;stroke-width:0.6;" x="135" xlink:href="#m116b447857" y="242.953002"/>
      </g>
     </g>
    </g>
    <g id="ytick_11">
     <g id="line2d_22">
      <g>
       <use style="stroke:#000000;stroke-width:0.6;" x="135" xlink:href="#m116b447857" y="141.774898"/>
      </g>
     </g>
    </g>
    <g id="text_4">
     <!-- |S| (genetic) -->
     <defs>
      <path d="M 18.3125 70.21875 
L 18.3125 54.6875 
L 36.8125 54.6875 
L 36.8125 47.703125 
L 18.3125 47.703125 
L 18.3125 18.015625 
Q 18.3125 11.328125 20.140625 9.421875 
Q 21.96875 7.515625 27.59375 7.515625 
L 36.8125 7.515625 
L 36.8125 0 
L 27.59375 0 
Q 17.1875 0 13.234375 3.875 
Q 9.28125 7.765625 9.28125 18.015625 
L 9.28125 47.703125 
L 2.6875 47.703125 
L 2.6875 54.6875 
L 9.28125 54.6875 
L 9.28125 70.21875 
z
" id="DejaVuSans-74"/>
      <path d="M 48.78125 52.59375 
L 48.78125 44.1875 
Q 44.96875 46.296875 41.140625 47.34375 
Q 37.3125 48.390625 33.40625 48.390625 
Q 24.65625 48.390625 19.8125 42.84375 
Q 14.984375 37.3125 14.984375 27.296875 
Q 14.984375 17.28125 19.8125 11.734375 
Q 24.65625 6.203125 33.40625 6.203125 
Q 37.3125 6.203125 41.140625 7.25 
Q 44.96875 8.296875 48.78125 10.40625 
L 48.78125 2.09375 
Q 45.015625 0.34375 40.984375 -0.53125 
Q 36.96875 -1.421875 32.421875 -1.421875 
Q 20.0625 -1.421875 12.78125 6.34375 
Q 5.515625 14.109375 5.515625 27.296875 
Q 5.515625 40.671875 12.859375 48.328125 
Q 20.21875 56 33.015625 56 
Q 37.15625 56 41.109375 55.140625 
Q 45.0625 54.296875 48.78125 52.59375 
z
" id="DejaVuSans-63"/>
     </defs>
     <g transform="translate(89.5075 586.305)rotate(-90)scale(0.16 -0.16)">
      <use xlink:href="#DejaVuSans-7c"/>
      <use x="33.691406" xlink:href="#DejaVuSans-53"/>
      <use x="97.167969" xlink:href="#DejaVuSans-7c"/>
      <use x="130.859375" xlink:href="#DejaVuSans-20"/>
      <use x="162.646484" xlink:href="#DejaVuSans-28"/>
      <use x="201.660156" xlink:href="#DejaVuSans-67"/>
      <use x="265.136719" xlink:href="#DejaVuSans-65"/>
      <use x="326.660156" xlink:href="#DejaVuSans-6e"/>
      <use x="390.039062" xlink:href="#DejaVuSans-65"/>
      <use x="451.5625" xlink:href="#DejaVuSans-74"/>
      <use x="490.771484" xlink:href="#DejaVuSans-69"/>
      <use x="518.554688" xlink:href="#DejaVuSans-63"/>
      <use x="573.535156" xlink:href="#DejaVuSans-29"/>
     </g>
    </g>
   </g>
   <g id="line2d_23">
    <path clip-path="url(#pa009afc17e)" d="M 135 945 
L 193.190206 888.311477 
L 240.577427 842.147152 
L 280.551589 803.204581 
L 315.121323 769.526969 
L 345.575441 739.858764 
L 372.790461 713.346067 
L 397.389644 689.381702 
L 419.832042 667.518462 
L 440.465559 647.417423 
L 459.560165 628.815581 
L 477.329567 611.504744 
L 493.945831 595.317287 
L 509.549545 580.11625 
L 524.257056 565.788287 
L 538.165745 552.238532 
L 551.357933 539.386788 
L 563.903839 527.164647 
L 575.863839 515.513292 
L 587.290224 504.381782 
L 598.228584 493.725702 
L 608.718904 483.5061 
L 618.796449 473.688621 
L 628.492476 464.242814 
L 637.834822 455.14156 
L 646.848384 446.360607 
L 655.555518 437.878172 
L 663.976377 429.674626 
L 672.129188 421.732211 
L 680.030489 414.034814 
L 687.695335 406.56777 
L 695.137469 399.317691 
L 702.369469 392.272324 
L 709.402875 385.420425 
L 716.248304 378.751652 
L 722.915543 372.256471 
L 729.413633 365.926074 
L 735.750946 359.752305 
L 741.935245 353.7276 
L 747.973746 347.844931 
L 753.873165 342.097755 
L 759.639765 336.479971 
L 765.279396 330.985879 
L 770.797527 325.610151 
L 776.199285 320.347794 
L 781.489476 315.194124 
L 786.672615 310.144742 
L 791.752951 305.195513 
L 796.73448 300.342538 
L 801.620975 295.582147 
L 806.415992 290.910873 
L 811.122894 286.325439 
L 815.744861 281.822748 
L 820.284904 277.399868 
L 824.745877 273.054016 
L 829.130487 268.782558 
L 833.441304 264.582987 
L 837.680772 260.452925 
L 841.851213 256.390109 
L 845.954839 252.392382 
L 849.993758 248.457694 
L 853.969979 244.584085 
L 857.885418 240.76969 
L 861.741905 237.012724 
L 865.541191 233.311485 
L 869.284946 229.664343 
L 872.974771 226.06974 
L 876.612197 222.526182 
L 880.198692 219.032242 
L 883.735662 215.586548 
L 887.224457 212.187787 
L 890.666372 208.834696 
L 894.062648 205.526065 
L 897.414482 202.26073 
L 900.723021 199.037573 
L 903.989369 195.855518 
L 907.214589 192.71353 
L 910.399703 189.610612 
L 913.545698 186.545804 
L 916.653521 183.518183 
L 919.724089 180.526855 
L 922.758284 177.570962 
L 925.756957 174.649674 
L 928.720931 171.76219 
L 931.651 168.907736 
L 934.54793 166.085565 
L 937.412463 163.294956 
L 940.245315 160.535209 
L 943.04718 157.805651 
L 945.818727 155.105627 
L 948.560607 152.434505 
L 951.273447 149.791674 
L 953.957857 147.17654 
L 956.614425 144.588528 
L 959.243724 142.027082 
L 961.846308 139.491662 
L 964.422713 136.981744 
L 966.973462 134.496821 
L 969.499061 132.036399 
L 972 129.6 
" style="fill:none;stroke:#000000;stroke-dasharray:7.5,7.5;stroke-dashoffset:0;stroke-width:1.5;"/>
   </g>
   <g id="patch_3">
    <path d="M 135 945 
L 135 129.6 
" style="fill:none;stroke:#000000;stroke-linecap:square;stroke-linejoin:miter;stroke-width:0.8;"/>
   </g>
   <g id="patch_4">
    <path d="M 972 945 
L 972 129.6 
" style="fill:none;stroke:#000000;stroke-linecap:square;stroke-linejoin:miter;stroke-width:0.8;"/>
   </g>
   <g id="patch_5">
    <path d="M 135 945 
L 972 945 
" style="fill:none;stroke:#000000;stroke-linecap:square;stroke-linejoin:miter;stroke-width:0.8;"/>
   </g>
   <g id="patch_6">
    <path d="M 135 129.6 
L 972 129.6 
" style="fill:none;stroke:#000000;stroke-linecap:square;stroke-linejoin:miter;stroke-width:0.8;"/>
   </g>
   <g id="text_5">
    <!-- Beef -->
    <defs>
     <path d="M 38.375 44.671875 
Q 42.828125 44.671875 45.109375 46.625 
Q 47.40625 48.578125 47.40625 52.390625 
Q 47.40625 56.15625 45.109375 58.125 
Q 42.828125 60.109375 38.375 60.109375 
L 27.984375 60.109375 
L 27.984375 44.671875 
z
M 39.015625 12.796875 
Q 44.671875 12.796875 47.53125 15.1875 
Q 50.390625 17.578125 50.390625 22.40625 
Q 50.390625 27.15625 47.5625 29.515625 
Q 44.734375 31.890625 39.015625 31.890625 
L 27.984375 31.890625 
L 27.984375 12.796875 
z
M 56.5 39.015625 
Q 62.546875 37.25 65.859375 32.515625 
Q 69.1875 27.78125 69.1875 20.90625 
Q 69.1875 10.359375 62.0625 5.171875 
Q 54.9375 0 40.375 0 
L 9.1875 0 
L 9.1875 72.90625 
L 37.40625 72.90625 
Q 52.59375 72.90625 59.40625 68.3125 
Q 66.21875 63.71875 66.21875 53.609375 
Q 66.21875 48.296875 63.71875 44.5625 
Q 61.234375 40.828125 56.5 39.015625 
z
" id="DejaVuSans-Bold-42"/>
     <path d="M 62.984375 27.484375 
L 62.984375 22.515625 
L 22.125 22.515625 
Q 22.75 16.359375 26.5625 13.28125 
Q 30.375 10.203125 37.203125 10.203125 
Q 42.71875 10.203125 48.5 11.84375 
Q 54.296875 13.484375 60.40625 16.796875 
L 60.40625 3.328125 
Q 54.203125 0.984375 48 -0.21875 
Q 41.796875 -1.421875 35.59375 -1.421875 
Q 20.75 -1.421875 12.515625 6.125 
Q 4.296875 13.671875 4.296875 27.296875 
Q 4.296875 40.671875 12.375 48.328125 
Q 20.453125 56 34.625 56 
Q 47.515625 56 55.25 48.234375 
Q 62.984375 40.484375 62.984375 27.484375 
z
M 45.015625 33.296875 
Q 45.015625 38.28125 42.109375 41.328125 
Q 39.203125 44.390625 34.515625 44.390625 
Q 29.4375 44.390625 26.265625 41.53125 
Q 23.09375 38.671875 22.3125 33.296875 
z
" id="DejaVuSans-Bold-65"/>
     <path d="M 44.390625 75.984375 
L 44.390625 64.5 
L 34.71875 64.5 
Q 31 64.5 29.53125 63.15625 
Q 28.078125 61.8125 28.078125 58.5 
L 28.078125 54.6875 
L 43.015625 54.6875 
L 43.015625 42.1875 
L 28.078125 42.1875 
L 28.078125 0 
L 10.59375 0 
L 10.59375 42.1875 
L 1.90625 42.1875 
L 1.90625 54.6875 
L 10.59375 54.6875 
L 10.59375 58.5 
Q 10.59375 67.4375 15.578125 71.703125 
Q 20.5625 75.984375 31 75.984375 
z
" id="DejaVuSans-Bold-66"/>
    </defs>
    <g style="opacity:0.5;" transform="translate(309.134986 228.193971)scale(0.1 -0.1)">
     <use xlink:href="#DejaVuSans-Bold-42"/>
     <use x="76.220703" xlink:href="#DejaVuSans-Bold-65"/>
     <use x="144.042969" xlink:href="#DejaVuSans-Bold-65"/>
     <use x="211.865234" xlink:href="#DejaVuSans-Bold-66"/>
    </g>
   </g>
   <g id="text_6">
    <!-- BeetleFly -->
    <defs>
     <path d="M 27.484375 70.21875 
L 27.484375 54.6875 
L 45.515625 54.6875 
L 45.515625 42.1875 
L 27.484375 42.1875 
L 27.484375 19 
Q 27.484375 15.1875 29 13.84375 
Q 30.515625 12.5 35.015625 12.5 
L 44 12.5 
L 44 0 
L 29 0 
Q 18.65625 0 14.328125 4.3125 
Q 10.015625 8.640625 10.015625 19 
L 10.015625 42.1875 
L 1.3125 42.1875 
L 1.3125 54.6875 
L 10.015625 54.6875 
L 10.015625 70.21875 
z
" id="DejaVuSans-Bold-74"/>
     <path d="M 8.40625 75.984375 
L 25.875 75.984375 
L 25.875 0 
L 8.40625 0 
z
" id="DejaVuSans-Bold-6c"/>
     <path d="M 9.1875 72.90625 
L 59.90625 72.90625 
L 59.90625 58.6875 
L 27.984375 58.6875 
L 27.984375 45.125 
L 58.015625 45.125 
L 58.015625 30.90625 
L 27.984375 30.90625 
L 27.984375 0 
L 9.1875 0 
z
" id="DejaVuSans-Bold-46"/>
     <path d="M 1.21875 54.6875 
L 18.703125 54.6875 
L 33.40625 17.578125 
L 45.90625 54.6875 
L 63.375 54.6875 
L 40.375 -5.171875 
Q 36.921875 -14.3125 32.296875 -17.9375 
Q 27.6875 -21.578125 20.125 -21.578125 
L 10.015625 -21.578125 
L 10.015625 -10.109375 
L 15.484375 -10.109375 
Q 19.921875 -10.109375 21.9375 -8.6875 
Q 23.96875 -7.28125 25.09375 -3.609375 
L 25.59375 -2.09375 
z
" id="DejaVuSans-Bold-79"/>
    </defs>
    <g style="opacity:0.5;" transform="translate(291.380859 480.850762)scale(0.1 -0.1)">
     <use xlink:href="#DejaVuSans-Bold-42"/>
     <use x="76.220703" xlink:href="#DejaVuSans-Bold-65"/>
     <use x="144.042969" xlink:href="#DejaVuSans-Bold-65"/>
     <use x="211.865234" xlink:href="#DejaVuSans-Bold-74"/>
     <use x="259.667969" xlink:href="#DejaVuSans-Bold-6c"/>
     <use x="293.945312" xlink:href="#DejaVuSans-Bold-65"/>
     <use x="361.767578" xlink:href="#DejaVuSans-Bold-46"/>
     <use x="430.078125" xlink:href="#DejaVuSans-Bold-6c"/>
     <use x="464.355469" xlink:href="#DejaVuSans-Bold-79"/>
    </g>
   </g>
   <g id="text_7">
    <!-- BirdChicken -->
    <defs>
     <path d="M 8.40625 54.6875 
L 25.875 54.6875 
L 25.875 0 
L 8.40625 0 
z
M 8.40625 75.984375 
L 25.875 75.984375 
L 25.875 61.71875 
L 8.40625 61.71875 
z
" id="DejaVuSans-Bold-69"/>
     <path d="M 49.03125 39.796875 
Q 46.734375 40.875 44.453125 41.375 
Q 42.1875 41.890625 39.890625 41.890625 
Q 33.15625 41.890625 29.515625 37.5625 
Q 25.875 33.25 25.875 25.203125 
L 25.875 0 
L 8.40625 0 
L 8.40625 54.6875 
L 25.875 54.6875 
L 25.875 45.703125 
Q 29.25 51.078125 33.609375 53.53125 
Q 37.984375 56 44.09375 56 
Q 44.96875 56 45.984375 55.921875 
Q 47.015625 55.859375 48.96875 55.609375 
z
" id="DejaVuSans-Bold-72"/>
     <path d="M 45.609375 46.6875 
L 45.609375 75.984375 
L 63.1875 75.984375 
L 63.1875 0 
L 45.609375 0 
L 45.609375 7.90625 
Q 42 3.078125 37.640625 0.828125 
Q 33.296875 -1.421875 27.59375 -1.421875 
Q 17.484375 -1.421875 10.984375 6.609375 
Q 4.5 14.65625 4.5 27.296875 
Q 4.5 39.9375 10.984375 47.96875 
Q 17.484375 56 27.59375 56 
Q 33.25 56 37.625 53.734375 
Q 42 51.46875 45.609375 46.6875 
z
M 34.078125 11.28125 
Q 39.703125 11.28125 42.65625 15.375 
Q 45.609375 19.484375 45.609375 27.296875 
Q 45.609375 35.109375 42.65625 39.203125 
Q 39.703125 43.3125 34.078125 43.3125 
Q 28.515625 43.3125 25.5625 39.203125 
Q 22.609375 35.109375 22.609375 27.296875 
Q 22.609375 19.484375 25.5625 15.375 
Q 28.515625 11.28125 34.078125 11.28125 
z
" id="DejaVuSans-Bold-64"/>
     <path d="M 67 4 
Q 61.8125 1.3125 56.203125 -0.046875 
Q 50.59375 -1.421875 44.484375 -1.421875 
Q 26.265625 -1.421875 15.625 8.765625 
Q 4.984375 18.953125 4.984375 36.375 
Q 4.984375 53.859375 15.625 64.03125 
Q 26.265625 74.21875 44.484375 74.21875 
Q 50.59375 74.21875 56.203125 72.84375 
Q 61.8125 71.484375 67 68.796875 
L 67 53.71875 
Q 61.765625 57.28125 56.6875 58.9375 
Q 51.609375 60.59375 46 60.59375 
Q 35.9375 60.59375 30.171875 54.140625 
Q 24.421875 47.703125 24.421875 36.375 
Q 24.421875 25.09375 30.171875 18.640625 
Q 35.9375 12.203125 46 12.203125 
Q 51.609375 12.203125 56.6875 13.859375 
Q 61.765625 15.53125 67 19.09375 
z
" id="DejaVuSans-Bold-43"/>
     <path d="M 63.375 33.296875 
L 63.375 0 
L 45.796875 0 
L 45.796875 5.421875 
L 45.796875 25.390625 
Q 45.796875 32.5625 45.484375 35.25 
Q 45.171875 37.9375 44.390625 39.203125 
Q 43.359375 40.921875 41.59375 41.875 
Q 39.84375 42.828125 37.59375 42.828125 
Q 32.125 42.828125 29 38.59375 
Q 25.875 34.375 25.875 26.90625 
L 25.875 0 
L 8.40625 0 
L 8.40625 75.984375 
L 25.875 75.984375 
L 25.875 46.6875 
Q 29.828125 51.46875 34.265625 53.734375 
Q 38.71875 56 44.09375 56 
Q 53.5625 56 58.46875 50.1875 
Q 63.375 44.390625 63.375 33.296875 
z
" id="DejaVuSans-Bold-68"/>
     <path d="M 52.59375 52.984375 
L 52.59375 38.71875 
Q 49.03125 41.15625 45.4375 42.328125 
Q 41.84375 43.5 37.984375 43.5 
Q 30.671875 43.5 26.59375 39.234375 
Q 22.515625 34.96875 22.515625 27.296875 
Q 22.515625 19.625 26.59375 15.34375 
Q 30.671875 11.078125 37.984375 11.078125 
Q 42.09375 11.078125 45.78125 12.296875 
Q 49.46875 13.53125 52.59375 15.921875 
L 52.59375 1.609375 
Q 48.484375 0.09375 44.265625 -0.65625 
Q 40.046875 -1.421875 35.796875 -1.421875 
Q 21 -1.421875 12.640625 6.171875 
Q 4.296875 13.765625 4.296875 27.296875 
Q 4.296875 40.828125 12.640625 48.40625 
Q 21 56 35.796875 56 
Q 40.09375 56 44.265625 55.25 
Q 48.4375 54.5 52.59375 52.984375 
z
" id="DejaVuSans-Bold-63"/>
     <path d="M 8.40625 75.984375 
L 25.875 75.984375 
L 25.875 34.625 
L 46 54.6875 
L 66.3125 54.6875 
L 39.59375 29.59375 
L 68.40625 0 
L 47.21875 0 
L 25.875 22.796875 
L 25.875 0 
L 8.40625 0 
z
" id="DejaVuSans-Bold-6b"/>
     <path d="M 63.375 33.296875 
L 63.375 0 
L 45.796875 0 
L 45.796875 5.421875 
L 45.796875 25.484375 
Q 45.796875 32.5625 45.484375 35.25 
Q 45.171875 37.9375 44.390625 39.203125 
Q 43.359375 40.921875 41.59375 41.875 
Q 39.84375 42.828125 37.59375 42.828125 
Q 32.125 42.828125 29 38.59375 
Q 25.875 34.375 25.875 26.90625 
L 25.875 0 
L 8.40625 0 
L 8.40625 54.6875 
L 25.875 54.6875 
L 25.875 46.6875 
Q 29.828125 51.46875 34.265625 53.734375 
Q 38.71875 56 44.09375 56 
Q 53.5625 56 58.46875 50.1875 
Q 63.375 44.390625 63.375 33.296875 
z
" id="DejaVuSans-Bold-6e"/>
    </defs>
    <g style="opacity:0.5;" transform="translate(193.910827 307.026739)scale(0.1 -0.1)">
     <use xlink:href="#DejaVuSans-Bold-42"/>
     <use x="76.220703" xlink:href="#DejaVuSans-Bold-69"/>
     <use x="110.498047" xlink:href="#DejaVuSans-Bold-72"/>
     <use x="159.814453" xlink:href="#DejaVuSans-Bold-64"/>
     <use x="231.396484" xlink:href="#DejaVuSans-Bold-43"/>
     <use x="304.785156" xlink:href="#DejaVuSans-Bold-68"/>
     <use x="375.976562" xlink:href="#DejaVuSans-Bold-69"/>
     <use x="410.253906" xlink:href="#DejaVuSans-Bold-63"/>
     <use x="469.53125" xlink:href="#DejaVuSans-Bold-6b"/>
     <use x="536.003906" xlink:href="#DejaVuSans-Bold-65"/>
     <use x="603.826172" xlink:href="#DejaVuSans-Bold-6e"/>
    </g>
   </g>
   <g id="text_8">
    <!-- Coffee -->
    <defs>
     <path d="M 34.421875 43.5 
Q 28.609375 43.5 25.5625 39.328125 
Q 22.515625 35.15625 22.515625 27.296875 
Q 22.515625 19.4375 25.5625 15.25 
Q 28.609375 11.078125 34.421875 11.078125 
Q 40.140625 11.078125 43.15625 15.25 
Q 46.1875 19.4375 46.1875 27.296875 
Q 46.1875 35.15625 43.15625 39.328125 
Q 40.140625 43.5 34.421875 43.5 
z
M 34.421875 56 
Q 48.53125 56 56.46875 48.375 
Q 64.40625 40.765625 64.40625 27.296875 
Q 64.40625 13.8125 56.46875 6.1875 
Q 48.53125 -1.421875 34.421875 -1.421875 
Q 20.265625 -1.421875 12.28125 6.1875 
Q 4.296875 13.8125 4.296875 27.296875 
Q 4.296875 40.765625 12.28125 48.375 
Q 20.265625 56 34.421875 56 
z
" id="DejaVuSans-Bold-6f"/>
    </defs>
    <g style="opacity:0.5;" transform="translate(364.220842 727.730354)scale(0.1 -0.1)">
     <use xlink:href="#DejaVuSans-Bold-43"/>
     <use x="73.388672" xlink:href="#DejaVuSans-Bold-6f"/>
     <use x="142.089844" xlink:href="#DejaVuSans-Bold-66"/>
     <use x="185.595703" xlink:href="#DejaVuSans-Bold-66"/>
     <use x="229.101562" xlink:href="#DejaVuSans-Bold-65"/>
     <use x="296.923828" xlink:href="#DejaVuSans-Bold-65"/>
    </g>
   </g>
   <g id="text_9">
    <!-- ECGFiveDays -->
    <defs>
     <path d="M 9.1875 72.90625 
L 59.90625 72.90625 
L 59.90625 58.6875 
L 27.984375 58.6875 
L 27.984375 45.125 
L 58.015625 45.125 
L 58.015625 30.90625 
L 27.984375 30.90625 
L 27.984375 14.203125 
L 60.984375 14.203125 
L 60.984375 0 
L 9.1875 0 
z
" id="DejaVuSans-Bold-45"/>
     <path d="M 74.703125 5.421875 
Q 67.671875 2 60.109375 0.28125 
Q 52.546875 -1.421875 44.484375 -1.421875 
Q 26.265625 -1.421875 15.625 8.765625 
Q 4.984375 18.953125 4.984375 36.375 
Q 4.984375 54 15.8125 64.109375 
Q 26.65625 74.21875 45.515625 74.21875 
Q 52.78125 74.21875 59.4375 72.84375 
Q 66.109375 71.484375 72.015625 68.796875 
L 72.015625 53.71875 
Q 65.921875 57.171875 59.890625 58.875 
Q 53.859375 60.59375 47.796875 60.59375 
Q 36.578125 60.59375 30.5 54.3125 
Q 24.421875 48.046875 24.421875 36.375 
Q 24.421875 24.8125 30.28125 18.5 
Q 36.140625 12.203125 46.921875 12.203125 
Q 49.859375 12.203125 52.375 12.5625 
Q 54.890625 12.9375 56.890625 13.71875 
L 56.890625 27.875 
L 45.40625 27.875 
L 45.40625 40.484375 
L 74.703125 40.484375 
z
" id="DejaVuSans-Bold-47"/>
     <path d="M 1.515625 54.6875 
L 19 54.6875 
L 32.625 16.890625 
L 46.1875 54.6875 
L 63.71875 54.6875 
L 42.1875 0 
L 23 0 
z
" id="DejaVuSans-Bold-76"/>
     <path d="M 27.984375 58.6875 
L 27.984375 14.203125 
L 34.71875 14.203125 
Q 46.234375 14.203125 52.3125 19.921875 
Q 58.40625 25.640625 58.40625 36.53125 
Q 58.40625 47.359375 52.34375 53.015625 
Q 46.296875 58.6875 34.71875 58.6875 
z
M 9.1875 72.90625 
L 29 72.90625 
Q 45.609375 72.90625 53.734375 70.53125 
Q 61.859375 68.171875 67.671875 62.5 
Q 72.796875 57.5625 75.28125 51.109375 
Q 77.78125 44.671875 77.78125 36.53125 
Q 77.78125 28.265625 75.28125 21.796875 
Q 72.796875 15.328125 67.671875 10.40625 
Q 61.8125 4.734375 53.609375 2.359375 
Q 45.40625 0 29 0 
L 9.1875 0 
z
" id="DejaVuSans-Bold-44"/>
     <path d="M 32.90625 24.609375 
Q 27.4375 24.609375 24.671875 22.75 
Q 21.921875 20.90625 21.921875 17.28125 
Q 21.921875 13.96875 24.140625 12.078125 
Q 26.375 10.203125 30.328125 10.203125 
Q 35.25 10.203125 38.625 13.734375 
Q 42 17.28125 42 22.609375 
L 42 24.609375 
z
M 59.625 31.203125 
L 59.625 0 
L 42 0 
L 42 8.109375 
Q 38.484375 3.125 34.078125 0.84375 
Q 29.6875 -1.421875 23.390625 -1.421875 
Q 14.890625 -1.421875 9.59375 3.53125 
Q 4.296875 8.5 4.296875 16.40625 
Q 4.296875 26.03125 10.90625 30.515625 
Q 17.53125 35.015625 31.6875 35.015625 
L 42 35.015625 
L 42 36.375 
Q 42 40.53125 38.71875 42.453125 
Q 35.453125 44.390625 28.515625 44.390625 
Q 22.90625 44.390625 18.0625 43.265625 
Q 13.234375 42.140625 9.078125 39.890625 
L 9.078125 53.21875 
Q 14.703125 54.59375 20.359375 55.296875 
Q 26.03125 56 31.6875 56 
Q 46.484375 56 53.046875 50.171875 
Q 59.625 44.34375 59.625 31.203125 
z
" id="DejaVuSans-Bold-61"/>
     <path d="M 51.125 52.984375 
L 51.125 39.703125 
Q 45.515625 42.046875 40.28125 43.21875 
Q 35.0625 44.390625 30.421875 44.390625 
Q 25.4375 44.390625 23.015625 43.140625 
Q 20.609375 41.890625 20.609375 39.3125 
Q 20.609375 37.203125 22.4375 36.078125 
Q 24.265625 34.96875 29 34.421875 
L 32.078125 33.984375 
Q 45.515625 32.28125 50.140625 28.375 
Q 54.78125 24.46875 54.78125 16.109375 
Q 54.78125 7.375 48.328125 2.96875 
Q 41.890625 -1.421875 29.109375 -1.421875 
Q 23.6875 -1.421875 17.890625 -0.5625 
Q 12.109375 0.296875 6 2 
L 6 15.28125 
Q 11.234375 12.75 16.71875 11.46875 
Q 22.21875 10.203125 27.875 10.203125 
Q 33.015625 10.203125 35.59375 11.609375 
Q 38.1875 13.03125 38.1875 15.828125 
Q 38.1875 18.171875 36.40625 19.3125 
Q 34.625 20.453125 29.296875 21.09375 
L 26.21875 21.484375 
Q 14.546875 22.953125 9.859375 26.90625 
Q 5.171875 30.859375 5.171875 38.921875 
Q 5.171875 47.609375 11.125 51.796875 
Q 17.09375 56 29.390625 56 
Q 34.234375 56 39.546875 55.265625 
Q 44.875 54.546875 51.125 52.984375 
z
" id="DejaVuSans-Bold-73"/>
    </defs>
    <g style="opacity:0.5;" transform="translate(307.850771 965.855074)scale(0.1 -0.1)">
     <use xlink:href="#DejaVuSans-Bold-45"/>
     <use x="68.310547" xlink:href="#DejaVuSans-Bold-43"/>
     <use x="141.699219" xlink:href="#DejaVuSans-Bold-47"/>
     <use x="223.779297" xlink:href="#DejaVuSans-Bold-46"/>
     <use x="292.089844" xlink:href="#DejaVuSans-Bold-69"/>
     <use x="326.367188" xlink:href="#DejaVuSans-Bold-76"/>
     <use x="391.552734" xlink:href="#DejaVuSans-Bold-65"/>
     <use x="459.375" xlink:href="#DejaVuSans-Bold-44"/>
     <use x="542.382812" xlink:href="#DejaVuSans-Bold-61"/>
     <use x="609.816406" xlink:href="#DejaVuSans-Bold-79"/>
     <use x="675.001953" xlink:href="#DejaVuSans-Bold-73"/>
    </g>
   </g>
   <g id="text_10">
    <!-- FaceFour -->
    <defs>
     <path d="M 7.8125 21.296875 
L 7.8125 54.6875 
L 25.390625 54.6875 
L 25.390625 49.21875 
Q 25.390625 44.78125 25.34375 38.0625 
Q 25.296875 31.34375 25.296875 29.109375 
Q 25.296875 22.515625 25.640625 19.609375 
Q 25.984375 16.703125 26.8125 15.375 
Q 27.875 13.671875 29.609375 12.734375 
Q 31.34375 11.8125 33.59375 11.8125 
Q 39.0625 11.8125 42.1875 16.015625 
Q 45.3125 20.21875 45.3125 27.6875 
L 45.3125 54.6875 
L 62.796875 54.6875 
L 62.796875 0 
L 45.3125 0 
L 45.3125 7.90625 
Q 41.359375 3.125 36.9375 0.84375 
Q 32.515625 -1.421875 27.203125 -1.421875 
Q 17.71875 -1.421875 12.765625 4.390625 
Q 7.8125 10.203125 7.8125 21.296875 
z
" id="DejaVuSans-Bold-75"/>
    </defs>
    <g style="opacity:0.5;" transform="translate(332.494431 127.183902)scale(0.1 -0.1)">
     <use xlink:href="#DejaVuSans-Bold-46"/>
     <use x="68.232422" xlink:href="#DejaVuSans-Bold-61"/>
     <use x="135.712891" xlink:href="#DejaVuSans-Bold-63"/>
     <use x="194.990234" xlink:href="#DejaVuSans-Bold-65"/>
     <use x="262.8125" xlink:href="#DejaVuSans-Bold-46"/>
     <use x="331.060547" xlink:href="#DejaVuSans-Bold-6f"/>
     <use x="399.761719" xlink:href="#DejaVuSans-Bold-75"/>
     <use x="470.953125" xlink:href="#DejaVuSans-Bold-72"/>
    </g>
   </g>
   <g id="text_11">
    <!-- GunPoint -->
    <defs>
     <path d="M 9.1875 72.90625 
L 40.375 72.90625 
Q 54.296875 72.90625 61.734375 66.71875 
Q 69.1875 60.546875 69.1875 49.125 
Q 69.1875 37.640625 61.734375 31.46875 
Q 54.296875 25.296875 40.375 25.296875 
L 27.984375 25.296875 
L 27.984375 0 
L 9.1875 0 
z
M 27.984375 59.28125 
L 27.984375 38.921875 
L 38.375 38.921875 
Q 43.84375 38.921875 46.828125 41.578125 
Q 49.8125 44.234375 49.8125 49.125 
Q 49.8125 54 46.828125 56.640625 
Q 43.84375 59.28125 38.375 59.28125 
z
" id="DejaVuSans-Bold-50"/>
    </defs>
    <g style="opacity:0.5;" transform="translate(329.670466 532.194723)scale(0.1 -0.1)">
     <use xlink:href="#DejaVuSans-Bold-47"/>
     <use x="82.080078" xlink:href="#DejaVuSans-Bold-75"/>
     <use x="153.271484" xlink:href="#DejaVuSans-Bold-6e"/>
     <use x="224.462891" xlink:href="#DejaVuSans-Bold-50"/>
     <use x="297.753906" xlink:href="#DejaVuSans-Bold-6f"/>
     <use x="366.455078" xlink:href="#DejaVuSans-Bold-69"/>
     <use x="400.732422" xlink:href="#DejaVuSans-Bold-6e"/>
     <use x="471.923828" xlink:href="#DejaVuSans-Bold-74"/>
    </g>
   </g>
   <g id="text_12">
    <!-- ItalyPowerDemand -->
    <defs>
     <path d="M 9.1875 72.90625 
L 27.984375 72.90625 
L 27.984375 0 
L 9.1875 0 
z
" id="DejaVuSans-Bold-49"/>
     <path d="M 3.515625 54.6875 
L 20.515625 54.6875 
L 29.6875 17 
L 38.921875 54.6875 
L 53.515625 54.6875 
L 62.703125 17.390625 
L 71.921875 54.6875 
L 88.921875 54.6875 
L 74.515625 0 
L 55.421875 0 
L 46.1875 37.59375 
L 37.015625 0 
L 17.921875 0 
z
" id="DejaVuSans-Bold-77"/>
     <path d="M 59.078125 45.609375 
Q 62.40625 50.6875 66.96875 53.34375 
Q 71.53125 56 77 56 
Q 86.421875 56 91.359375 50.1875 
Q 96.296875 44.390625 96.296875 33.296875 
L 96.296875 0 
L 78.71875 0 
L 78.71875 28.515625 
Q 78.765625 29.15625 78.78125 29.828125 
Q 78.8125 30.515625 78.8125 31.78125 
Q 78.8125 37.59375 77.09375 40.203125 
Q 75.390625 42.828125 71.578125 42.828125 
Q 66.609375 42.828125 63.890625 38.71875 
Q 61.1875 34.625 61.078125 26.859375 
L 61.078125 0 
L 43.5 0 
L 43.5 28.515625 
Q 43.5 37.59375 41.9375 40.203125 
Q 40.375 42.828125 36.375 42.828125 
Q 31.34375 42.828125 28.609375 38.703125 
Q 25.875 34.578125 25.875 26.90625 
L 25.875 0 
L 8.296875 0 
L 8.296875 54.6875 
L 25.875 54.6875 
L 25.875 46.6875 
Q 29.109375 51.3125 33.28125 53.65625 
Q 37.453125 56 42.484375 56 
Q 48.140625 56 52.484375 53.265625 
Q 56.84375 50.53125 59.078125 45.609375 
z
" id="DejaVuSans-Bold-6d"/>
    </defs>
    <g style="opacity:0.5;" transform="translate(395.70771 843.57307)scale(0.1 -0.1)">
     <use xlink:href="#DejaVuSans-Bold-49"/>
     <use x="37.207031" xlink:href="#DejaVuSans-Bold-74"/>
     <use x="85.009766" xlink:href="#DejaVuSans-Bold-61"/>
     <use x="152.490234" xlink:href="#DejaVuSans-Bold-6c"/>
     <use x="186.767578" xlink:href="#DejaVuSans-Bold-79"/>
     <use x="251.953125" xlink:href="#DejaVuSans-Bold-50"/>
     <use x="325.244141" xlink:href="#DejaVuSans-Bold-6f"/>
     <use x="393.945312" xlink:href="#DejaVuSans-Bold-77"/>
     <use x="486.328125" xlink:href="#DejaVuSans-Bold-65"/>
     <use x="554.150391" xlink:href="#DejaVuSans-Bold-72"/>
     <use x="603.466797" xlink:href="#DejaVuSans-Bold-44"/>
     <use x="686.474609" xlink:href="#DejaVuSans-Bold-65"/>
     <use x="754.296875" xlink:href="#DejaVuSans-Bold-6d"/>
     <use x="858.496094" xlink:href="#DejaVuSans-Bold-61"/>
     <use x="925.976562" xlink:href="#DejaVuSans-Bold-6e"/>
     <use x="997.167969" xlink:href="#DejaVuSans-Bold-64"/>
    </g>
   </g>
   <g id="text_13">
    <!-- MedicalImages -->
    <defs>
     <path d="M 9.1875 72.90625 
L 33.109375 72.90625 
L 49.703125 33.890625 
L 66.40625 72.90625 
L 90.28125 72.90625 
L 90.28125 0 
L 72.515625 0 
L 72.515625 53.328125 
L 55.71875 14.015625 
L 43.796875 14.015625 
L 27 53.328125 
L 27 0 
L 9.1875 0 
z
" id="DejaVuSans-Bold-4d"/>
     <path d="M 45.609375 9.28125 
Q 42 4.5 37.640625 2.25 
Q 33.296875 0 27.59375 0 
Q 17.578125 0 11.03125 7.875 
Q 4.5 15.765625 4.5 27.984375 
Q 4.5 40.234375 11.03125 48.0625 
Q 17.578125 55.90625 27.59375 55.90625 
Q 33.296875 55.90625 37.640625 53.65625 
Q 42 51.421875 45.609375 46.578125 
L 45.609375 54.6875 
L 63.1875 54.6875 
L 63.1875 5.515625 
Q 63.1875 -7.671875 54.859375 -14.625 
Q 46.53125 -21.578125 30.71875 -21.578125 
Q 25.59375 -21.578125 20.796875 -20.796875 
Q 16.015625 -20.015625 11.1875 -18.40625 
L 11.1875 -4.78125 
Q 15.765625 -7.421875 20.15625 -8.71875 
Q 24.5625 -10.015625 29 -10.015625 
Q 37.59375 -10.015625 41.59375 -6.25 
Q 45.609375 -2.484375 45.609375 5.515625 
z
M 34.078125 43.3125 
Q 28.65625 43.3125 25.625 39.296875 
Q 22.609375 35.296875 22.609375 27.984375 
Q 22.609375 20.453125 25.53125 16.578125 
Q 28.46875 12.703125 34.078125 12.703125 
Q 39.546875 12.703125 42.578125 16.703125 
Q 45.609375 20.703125 45.609375 27.984375 
Q 45.609375 35.296875 42.578125 39.296875 
Q 39.546875 43.3125 34.078125 43.3125 
z
" id="DejaVuSans-Bold-67"/>
    </defs>
    <g style="opacity:0.5;" transform="translate(488.334424 557.440318)scale(0.1 -0.1)">
     <use xlink:href="#DejaVuSans-Bold-4d"/>
     <use x="99.511719" xlink:href="#DejaVuSans-Bold-65"/>
     <use x="167.333984" xlink:href="#DejaVuSans-Bold-64"/>
     <use x="238.916016" xlink:href="#DejaVuSans-Bold-69"/>
     <use x="273.193359" xlink:href="#DejaVuSans-Bold-63"/>
     <use x="332.470703" xlink:href="#DejaVuSans-Bold-61"/>
     <use x="399.951172" xlink:href="#DejaVuSans-Bold-6c"/>
     <use x="434.228516" xlink:href="#DejaVuSans-Bold-49"/>
     <use x="471.435547" xlink:href="#DejaVuSans-Bold-6d"/>
     <use x="575.634766" xlink:href="#DejaVuSans-Bold-61"/>
     <use x="643.115234" xlink:href="#DejaVuSans-Bold-67"/>
     <use x="714.697266" xlink:href="#DejaVuSans-Bold-65"/>
     <use x="782.519531" xlink:href="#DejaVuSans-Bold-73"/>
    </g>
   </g>
   <g id="text_14">
    <!-- MoteStrain -->
    <defs>
     <path d="M 59.90625 70.609375 
L 59.90625 55.171875 
Q 53.90625 57.859375 48.1875 59.21875 
Q 42.484375 60.59375 37.40625 60.59375 
Q 30.671875 60.59375 27.4375 58.734375 
Q 24.21875 56.890625 24.21875 52.984375 
Q 24.21875 50.046875 26.390625 48.40625 
Q 28.5625 46.78125 34.28125 45.609375 
L 42.28125 44 
Q 54.4375 41.546875 59.5625 36.5625 
Q 64.703125 31.59375 64.703125 22.40625 
Q 64.703125 10.359375 57.546875 4.46875 
Q 50.390625 -1.421875 35.6875 -1.421875 
Q 28.765625 -1.421875 21.78125 -0.09375 
Q 14.796875 1.21875 7.8125 3.8125 
L 7.8125 19.671875 
Q 14.796875 15.96875 21.3125 14.078125 
Q 27.828125 12.203125 33.890625 12.203125 
Q 40.046875 12.203125 43.3125 14.25 
Q 46.578125 16.3125 46.578125 20.125 
Q 46.578125 23.53125 44.359375 25.390625 
Q 42.140625 27.25 35.5 28.71875 
L 28.21875 30.328125 
Q 17.28125 32.671875 12.21875 37.796875 
Q 7.171875 42.921875 7.171875 51.609375 
Q 7.171875 62.5 14.203125 68.359375 
Q 21.234375 74.21875 34.421875 74.21875 
Q 40.4375 74.21875 46.78125 73.3125 
Q 53.125 72.40625 59.90625 70.609375 
z
" id="DejaVuSans-Bold-53"/>
    </defs>
    <g style="opacity:0.5;" transform="translate(204.898977 496.721455)scale(0.1 -0.1)">
     <use xlink:href="#DejaVuSans-Bold-4d"/>
     <use x="99.511719" xlink:href="#DejaVuSans-Bold-6f"/>
     <use x="168.212891" xlink:href="#DejaVuSans-Bold-74"/>
     <use x="216.015625" xlink:href="#DejaVuSans-Bold-65"/>
     <use x="283.837891" xlink:href="#DejaVuSans-Bold-53"/>
     <use x="355.859375" xlink:href="#DejaVuSans-Bold-74"/>
     <use x="403.662109" xlink:href="#DejaVuSans-Bold-72"/>
     <use x="452.978516" xlink:href="#DejaVuSans-Bold-61"/>
     <use x="520.458984" xlink:href="#DejaVuSans-Bold-69"/>
     <use x="554.736328" xlink:href="#DejaVuSans-Bold-6e"/>
    </g>
   </g>
   <g id="text_15">
    <!-- SonyAIBORobotSurface1 -->
    <defs>
     <path d="M 53.421875 13.28125 
L 24.03125 13.28125 
L 19.390625 0 
L 0.484375 0 
L 27.484375 72.90625 
L 49.90625 72.90625 
L 76.90625 0 
L 58.015625 0 
z
M 28.71875 26.8125 
L 48.6875 26.8125 
L 38.71875 55.8125 
z
" id="DejaVuSans-Bold-41"/>
     <path d="M 42.484375 60.59375 
Q 33.890625 60.59375 29.15625 54.25 
Q 24.421875 47.90625 24.421875 36.375 
Q 24.421875 24.90625 29.15625 18.546875 
Q 33.890625 12.203125 42.484375 12.203125 
Q 51.125 12.203125 55.859375 18.546875 
Q 60.59375 24.90625 60.59375 36.375 
Q 60.59375 47.90625 55.859375 54.25 
Q 51.125 60.59375 42.484375 60.59375 
z
M 42.484375 74.21875 
Q 60.0625 74.21875 70.015625 64.15625 
Q 79.984375 54.109375 79.984375 36.375 
Q 79.984375 18.703125 70.015625 8.640625 
Q 60.0625 -1.421875 42.484375 -1.421875 
Q 24.953125 -1.421875 14.96875 8.640625 
Q 4.984375 18.703125 4.984375 36.375 
Q 4.984375 54.109375 14.96875 64.15625 
Q 24.953125 74.21875 42.484375 74.21875 
z
" id="DejaVuSans-Bold-4f"/>
     <path d="M 35.890625 40.578125 
Q 41.796875 40.578125 44.359375 42.765625 
Q 46.921875 44.96875 46.921875 50 
Q 46.921875 54.984375 44.359375 57.125 
Q 41.796875 59.28125 35.890625 59.28125 
L 27.984375 59.28125 
L 27.984375 40.578125 
z
M 27.984375 27.59375 
L 27.984375 0 
L 9.1875 0 
L 9.1875 72.90625 
L 37.890625 72.90625 
Q 52.296875 72.90625 59 68.0625 
Q 65.71875 63.234375 65.71875 52.78125 
Q 65.71875 45.5625 62.21875 40.921875 
Q 58.734375 36.28125 51.703125 34.078125 
Q 55.5625 33.203125 58.609375 30.09375 
Q 61.671875 27 64.796875 20.703125 
L 75 0 
L 54.984375 0 
L 46.09375 18.109375 
Q 43.40625 23.578125 40.640625 25.578125 
Q 37.890625 27.59375 33.296875 27.59375 
z
" id="DejaVuSans-Bold-52"/>
     <path d="M 37.5 11.28125 
Q 43.109375 11.28125 46.0625 15.375 
Q 49.03125 19.484375 49.03125 27.296875 
Q 49.03125 35.109375 46.0625 39.203125 
Q 43.109375 43.3125 37.5 43.3125 
Q 31.890625 43.3125 28.875 39.1875 
Q 25.875 35.0625 25.875 27.296875 
Q 25.875 19.53125 28.875 15.40625 
Q 31.890625 11.28125 37.5 11.28125 
z
M 25.875 46.6875 
Q 29.5 51.46875 33.890625 53.734375 
Q 38.28125 56 44 56 
Q 54.109375 56 60.59375 47.96875 
Q 67.09375 39.9375 67.09375 27.296875 
Q 67.09375 14.65625 60.59375 6.609375 
Q 54.109375 -1.421875 44 -1.421875 
Q 38.28125 -1.421875 33.890625 0.84375 
Q 29.5 3.125 25.875 7.90625 
L 25.875 0 
L 8.40625 0 
L 8.40625 75.984375 
L 25.875 75.984375 
z
" id="DejaVuSans-Bold-62"/>
    </defs>
    <g style="opacity:0.5;" transform="translate(267.034862 627.720751)scale(0.1 -0.1)">
     <use xlink:href="#DejaVuSans-Bold-53"/>
     <use x="72.021484" xlink:href="#DejaVuSans-Bold-6f"/>
     <use x="140.722656" xlink:href="#DejaVuSans-Bold-6e"/>
     <use x="211.914062" xlink:href="#DejaVuSans-Bold-79"/>
     <use x="277.099609" xlink:href="#DejaVuSans-Bold-41"/>
     <use x="354.492188" xlink:href="#DejaVuSans-Bold-49"/>
     <use x="391.699219" xlink:href="#DejaVuSans-Bold-42"/>
     <use x="467.919922" xlink:href="#DejaVuSans-Bold-4f"/>
     <use x="552.929688" xlink:href="#DejaVuSans-Bold-52"/>
     <use x="629.931641" xlink:href="#DejaVuSans-Bold-6f"/>
     <use x="698.632812" xlink:href="#DejaVuSans-Bold-62"/>
     <use x="770.214844" xlink:href="#DejaVuSans-Bold-6f"/>
     <use x="838.916016" xlink:href="#DejaVuSans-Bold-74"/>
     <use x="886.71875" xlink:href="#DejaVuSans-Bold-53"/>
     <use x="958.740234" xlink:href="#DejaVuSans-Bold-75"/>
     <use x="1029.931641" xlink:href="#DejaVuSans-Bold-72"/>
     <use x="1079.248047" xlink:href="#DejaVuSans-Bold-66"/>
     <use x="1122.753906" xlink:href="#DejaVuSans-Bold-61"/>
     <use x="1190.234375" xlink:href="#DejaVuSans-Bold-63"/>
     <use x="1249.511719" xlink:href="#DejaVuSans-Bold-65"/>
     <use x="1317.333984" xlink:href="#DejaVuSans-Bold-31"/>
    </g>
   </g>
   <g id="text_16">
    <!-- SonyAIBORobotSurface2 -->
    <g style="opacity:0.5;" transform="translate(102.659716 667.329994)scale(0.1 -0.1)">
     <use xlink:href="#DejaVuSans-Bold-53"/>
     <use x="72.021484" xlink:href="#DejaVuSans-Bold-6f"/>
     <use x="140.722656" xlink:href="#DejaVuSans-Bold-6e"/>
     <use x="211.914062" xlink:href="#DejaVuSans-Bold-79"/>
     <use x="277.099609" xlink:href="#DejaVuSans-Bold-41"/>
     <use x="354.492188" xlink:href="#DejaVuSans-Bold-49"/>
     <use x="391.699219" xlink:href="#DejaVuSans-Bold-42"/>
     <use x="467.919922" xlink:href="#DejaVuSans-Bold-4f"/>
     <use x="552.929688" xlink:href="#DejaVuSans-Bold-52"/>
     <use x="629.931641" xlink:href="#DejaVuSans-Bold-6f"/>
     <use x="698.632812" xlink:href="#DejaVuSans-Bold-62"/>
     <use x="770.214844" xlink:href="#DejaVuSans-Bold-6f"/>
     <use x="838.916016" xlink:href="#DejaVuSans-Bold-74"/>
     <use x="886.71875" xlink:href="#DejaVuSans-Bold-53"/>
     <use x="958.740234" xlink:href="#DejaVuSans-Bold-75"/>
     <use x="1029.931641" xlink:href="#DejaVuSans-Bold-72"/>
     <use x="1079.248047" xlink:href="#DejaVuSans-Bold-66"/>
     <use x="1122.753906" xlink:href="#DejaVuSans-Bold-61"/>
     <use x="1190.234375" xlink:href="#DejaVuSans-Bold-63"/>
     <use x="1249.511719" xlink:href="#DejaVuSans-Bold-65"/>
     <use x="1317.333984" xlink:href="#DejaVuSans-Bold-32"/>
    </g>
   </g>
   <g id="text_17">
    <!-- Symbols -->
    <g style="opacity:0.5;" transform="translate(235.427154 870.508085)scale(0.1 -0.1)">
     <use xlink:href="#DejaVuSans-Bold-53"/>
     <use x="72.021484" xlink:href="#DejaVuSans-Bold-79"/>
     <use x="137.207031" xlink:href="#DejaVuSans-Bold-6d"/>
     <use x="241.40625" xlink:href="#DejaVuSans-Bold-62"/>
     <use x="312.988281" xlink:href="#DejaVuSans-Bold-6f"/>
     <use x="381.689453" xlink:href="#DejaVuSans-Bold-6c"/>
     <use x="415.966797" xlink:href="#DejaVuSans-Bold-73"/>
    </g>
   </g>
   <g id="text_18">
    <!-- SyntheticControl -->
    <g style="opacity:0.5;" transform="translate(328.464066 741.69851)scale(0.1 -0.1)">
     <use xlink:href="#DejaVuSans-Bold-53"/>
     <use x="72.021484" xlink:href="#DejaVuSans-Bold-79"/>
     <use x="137.207031" xlink:href="#DejaVuSans-Bold-6e"/>
     <use x="208.398438" xlink:href="#DejaVuSans-Bold-74"/>
     <use x="256.201172" xlink:href="#DejaVuSans-Bold-68"/>
     <use x="327.392578" xlink:href="#DejaVuSans-Bold-65"/>
     <use x="395.214844" xlink:href="#DejaVuSans-Bold-74"/>
     <use x="443.017578" xlink:href="#DejaVuSans-Bold-69"/>
     <use x="477.294922" xlink:href="#DejaVuSans-Bold-63"/>
     <use x="536.572266" xlink:href="#DejaVuSans-Bold-43"/>
     <use x="609.960938" xlink:href="#DejaVuSans-Bold-6f"/>
     <use x="678.662109" xlink:href="#DejaVuSans-Bold-6e"/>
     <use x="749.853516" xlink:href="#DejaVuSans-Bold-74"/>
     <use x="797.65625" xlink:href="#DejaVuSans-Bold-72"/>
     <use x="846.972656" xlink:href="#DejaVuSans-Bold-6f"/>
     <use x="915.673828" xlink:href="#DejaVuSans-Bold-6c"/>
    </g>
   </g>
   <g id="text_19">
    <!-- TwoLeadECG -->
    <defs>
     <path d="M 0.484375 72.90625 
L 67.671875 72.90625 
L 67.671875 58.6875 
L 43.5 58.6875 
L 43.5 0 
L 24.703125 0 
L 24.703125 58.6875 
L 0.484375 58.6875 
z
" id="DejaVuSans-Bold-54"/>
     <path d="M 9.1875 72.90625 
L 27.984375 72.90625 
L 27.984375 14.203125 
L 60.984375 14.203125 
L 60.984375 0 
L 9.1875 0 
z
" id="DejaVuSans-Bold-4c"/>
    </defs>
    <g style="opacity:0.5;" transform="translate(121.8945 769.208859)scale(0.1 -0.1)">
     <use xlink:href="#DejaVuSans-Bold-54"/>
     <use x="68.041016" xlink:href="#DejaVuSans-Bold-77"/>
     <use x="160.423828" xlink:href="#DejaVuSans-Bold-6f"/>
     <use x="229.125" xlink:href="#DejaVuSans-Bold-4c"/>
     <use x="292.845703" xlink:href="#DejaVuSans-Bold-65"/>
     <use x="360.667969" xlink:href="#DejaVuSans-Bold-61"/>
     <use x="428.148438" xlink:href="#DejaVuSans-Bold-64"/>
     <use x="499.730469" xlink:href="#DejaVuSans-Bold-45"/>
     <use x="568.041016" xlink:href="#DejaVuSans-Bold-43"/>
     <use x="641.429688" xlink:href="#DejaVuSans-Bold-47"/>
    </g>
   </g>
   <g id="text_20">
    <!-- DiatomSizeReduction -->
    <defs>
     <path d="M 5.71875 54.6875 
L 53.421875 54.6875 
L 53.421875 42.484375 
L 24.609375 12.5 
L 53.421875 12.5 
L 53.421875 0 
L 4.5 0 
L 4.5 12.203125 
L 33.296875 42.1875 
L 5.71875 42.1875 
z
" id="DejaVuSans-Bold-7a"/>
    </defs>
    <g style="opacity:0.5;" transform="translate(401.124206 243.690749)scale(0.1 -0.1)">
     <use xlink:href="#DejaVuSans-Bold-44"/>
     <use x="83.007812" xlink:href="#DejaVuSans-Bold-69"/>
     <use x="117.285156" xlink:href="#DejaVuSans-Bold-61"/>
     <use x="184.765625" xlink:href="#DejaVuSans-Bold-74"/>
     <use x="232.568359" xlink:href="#DejaVuSans-Bold-6f"/>
     <use x="301.269531" xlink:href="#DejaVuSans-Bold-6d"/>
     <use x="405.46875" xlink:href="#DejaVuSans-Bold-53"/>
     <use x="477.490234" xlink:href="#DejaVuSans-Bold-69"/>
     <use x="511.767578" xlink:href="#DejaVuSans-Bold-7a"/>
     <use x="569.970703" xlink:href="#DejaVuSans-Bold-65"/>
     <use x="637.792969" xlink:href="#DejaVuSans-Bold-52"/>
     <use x="714.794922" xlink:href="#DejaVuSans-Bold-65"/>
     <use x="782.617188" xlink:href="#DejaVuSans-Bold-64"/>
     <use x="854.199219" xlink:href="#DejaVuSans-Bold-75"/>
     <use x="925.390625" xlink:href="#DejaVuSans-Bold-63"/>
     <use x="984.667969" xlink:href="#DejaVuSans-Bold-74"/>
     <use x="1032.470703" xlink:href="#DejaVuSans-Bold-69"/>
     <use x="1066.748047" xlink:href="#DejaVuSans-Bold-6f"/>
     <use x="1135.449219" xlink:href="#DejaVuSans-Bold-6e"/>
    </g>
   </g>
   <g id="patch_7">
    <path d="M 356.89135 227.881126 
Q 332.630361 229.272415 308.369372 230.663703 
" style="fill:none;opacity:0.5;stroke:#000000;stroke-linecap:round;"/>
   </g>
   <g id="patch_8">
    <path d="M 388.996608 476.320736 
Q 338.104446 480.282806 287.212283 484.244875 
" style="fill:none;opacity:0.5;stroke:#000000;stroke-linecap:round;"/>
   </g>
   <g id="patch_9">
    <path d="M 355.397393 305.721362 
Q 269.803281 307.736404 184.20917 309.751447 
" style="fill:none;opacity:0.5;stroke:#000000;stroke-linecap:round;"/>
   </g>
   <g id="patch_10">
    <path d="M 419.157107 712.502459 
Q 391.027385 722.695519 362.897663 732.888579 
" style="fill:none;opacity:0.5;stroke:#000000;stroke-linecap:round;"/>
   </g>
   <g id="patch_11">
    <path d="M 429.42827 1009.002929 
Q 359.918482 977.414569 290.408695 945.82621 
" style="fill:none;opacity:0.5;stroke:#000000;stroke-linecap:round;"/>
   </g>
   <g id="patch_12">
    <path d="M 416.161192 127.632571 
Q 372.757875 128.59416 329.354558 129.55575 
" style="fill:none;opacity:0.5;stroke:#000000;stroke-linecap:round;"/>
   </g>
   <g id="patch_13">
    <path d="M 414.330798 529.222631 
Q 370.391019 524.519789 326.45124 519.816948 
" style="fill:none;opacity:0.5;stroke:#000000;stroke-linecap:round;"/>
   </g>
   <g id="patch_14">
    <path d="M 520.48407 865.86797 
Q 380.648823 835.821929 240.813576 805.775887 
" style="fill:none;opacity:0.5;stroke:#000000;stroke-linecap:round;"/>
   </g>
   <g id="patch_15">
    <path d="M 486.337545 551.006986 
Q 437.287051 551.418648 388.236557 551.83031 
" style="fill:none;opacity:0.5;stroke:#000000;stroke-linecap:round;"/>
   </g>
   <g id="patch_16">
    <path d="M 351.938388 496.227677 
Q 274.258267 492.020367 196.578145 487.813057 
" style="fill:none;opacity:0.5;stroke:#000000;stroke-linecap:round;"/>
   </g>
   <g id="patch_17">
    <path d="M 486.322188 617.806748 
Q 368.572654 625.037394 250.82312 632.268039 
" style="fill:none;opacity:0.5;stroke:#000000;stroke-linecap:round;"/>
   </g>
   <g id="patch_18">
    <path d="M 428.954121 674.069567 
Q 326.501014 665.797737 224.047907 657.525908 
" style="fill:none;opacity:0.5;stroke:#000000;stroke-linecap:round;"/>
   </g>
   <g id="patch_19">
    <path d="M 134.813585 896.416255 
Q 260.125852 863.62683 385.438119 830.837405 
" style="fill:none;opacity:0.5;stroke:#000000;stroke-linecap:round;"/>
   </g>
   <g id="patch_20">
    <path d="M 345.921377 743.693568 
Q 340.483239 743.250053 335.045101 742.806538 
" style="fill:none;opacity:0.5;stroke:#000000;stroke-linecap:round;"/>
   </g>
   <g id="patch_21">
    <path d="M 196.242089 768.461974 
Q 229.127062 770.195767 262.012035 771.929559 
" style="fill:none;opacity:0.5;stroke:#000000;stroke-linecap:round;"/>
   </g>
   <g id="patch_22">
    <path d="M 536.270473 238.642462 
Q 465.07837 237.13093 393.886266 235.619397 
" style="fill:none;opacity:0.5;stroke:#000000;stroke-linecap:round;"/>
   </g>
   <g id="text_21">
    <!-- Genetic shapelet discovery vs shapelet learning: shapelet set sizes -->
    <defs>
     <path d="M 59.515625 10.40625 
L 59.515625 29.984375 
L 43.40625 29.984375 
L 43.40625 38.09375 
L 69.28125 38.09375 
L 69.28125 6.78125 
Q 63.578125 2.734375 56.6875 0.65625 
Q 49.8125 -1.421875 42 -1.421875 
Q 24.90625 -1.421875 15.25 8.5625 
Q 5.609375 18.5625 5.609375 36.375 
Q 5.609375 54.25 15.25 64.234375 
Q 24.90625 74.21875 42 74.21875 
Q 49.125 74.21875 55.546875 72.453125 
Q 61.96875 70.703125 67.390625 67.28125 
L 67.390625 56.78125 
Q 61.921875 61.421875 55.765625 63.765625 
Q 49.609375 66.109375 42.828125 66.109375 
Q 29.4375 66.109375 22.71875 58.640625 
Q 16.015625 51.171875 16.015625 36.375 
Q 16.015625 21.625 22.71875 14.15625 
Q 29.4375 6.6875 42.828125 6.6875 
Q 48.046875 6.6875 52.140625 7.59375 
Q 56.25 8.5 59.515625 10.40625 
z
" id="DejaVuSans-47"/>
     <path d="M 44.28125 53.078125 
L 44.28125 44.578125 
Q 40.484375 46.53125 36.375 47.5 
Q 32.28125 48.484375 27.875 48.484375 
Q 21.1875 48.484375 17.84375 46.4375 
Q 14.5 44.390625 14.5 40.28125 
Q 14.5 37.15625 16.890625 35.375 
Q 19.28125 33.59375 26.515625 31.984375 
L 29.59375 31.296875 
Q 39.15625 29.25 43.1875 25.515625 
Q 47.21875 21.78125 47.21875 15.09375 
Q 47.21875 7.46875 41.1875 3.015625 
Q 35.15625 -1.421875 24.609375 -1.421875 
Q 20.21875 -1.421875 15.453125 -0.5625 
Q 10.6875 0.296875 5.421875 2 
L 5.421875 11.28125 
Q 10.40625 8.6875 15.234375 7.390625 
Q 20.0625 6.109375 24.8125 6.109375 
Q 31.15625 6.109375 34.5625 8.28125 
Q 37.984375 10.453125 37.984375 14.40625 
Q 37.984375 18.0625 35.515625 20.015625 
Q 33.0625 21.96875 24.703125 23.78125 
L 21.578125 24.515625 
Q 13.234375 26.265625 9.515625 29.90625 
Q 5.8125 33.546875 5.8125 39.890625 
Q 5.8125 47.609375 11.28125 51.796875 
Q 16.75 56 26.8125 56 
Q 31.78125 56 36.171875 55.265625 
Q 40.578125 54.546875 44.28125 53.078125 
z
" id="DejaVuSans-73"/>
     <path d="M 54.890625 33.015625 
L 54.890625 0 
L 45.90625 0 
L 45.90625 32.71875 
Q 45.90625 40.484375 42.875 44.328125 
Q 39.84375 48.1875 33.796875 48.1875 
Q 26.515625 48.1875 22.3125 43.546875 
Q 18.109375 38.921875 18.109375 30.90625 
L 18.109375 0 
L 9.078125 0 
L 9.078125 75.984375 
L 18.109375 75.984375 
L 18.109375 46.1875 
Q 21.34375 51.125 25.703125 53.5625 
Q 30.078125 56 35.796875 56 
Q 45.21875 56 50.046875 50.171875 
Q 54.890625 44.34375 54.890625 33.015625 
z
" id="DejaVuSans-68"/>
     <path d="M 18.109375 8.203125 
L 18.109375 -20.796875 
L 9.078125 -20.796875 
L 9.078125 54.6875 
L 18.109375 54.6875 
L 18.109375 46.390625 
Q 20.953125 51.265625 25.265625 53.625 
Q 29.59375 56 35.59375 56 
Q 45.5625 56 51.78125 48.09375 
Q 58.015625 40.1875 58.015625 27.296875 
Q 58.015625 14.40625 51.78125 6.484375 
Q 45.5625 -1.421875 35.59375 -1.421875 
Q 29.59375 -1.421875 25.265625 0.953125 
Q 20.953125 3.328125 18.109375 8.203125 
z
M 48.6875 27.296875 
Q 48.6875 37.203125 44.609375 42.84375 
Q 40.53125 48.484375 33.40625 48.484375 
Q 26.265625 48.484375 22.1875 42.84375 
Q 18.109375 37.203125 18.109375 27.296875 
Q 18.109375 17.390625 22.1875 11.75 
Q 26.265625 6.109375 33.40625 6.109375 
Q 40.53125 6.109375 44.609375 11.75 
Q 48.6875 17.390625 48.6875 27.296875 
z
" id="DejaVuSans-70"/>
     <path d="M 45.40625 46.390625 
L 45.40625 75.984375 
L 54.390625 75.984375 
L 54.390625 0 
L 45.40625 0 
L 45.40625 8.203125 
Q 42.578125 3.328125 38.25 0.953125 
Q 33.9375 -1.421875 27.875 -1.421875 
Q 17.96875 -1.421875 11.734375 6.484375 
Q 5.515625 14.40625 5.515625 27.296875 
Q 5.515625 40.1875 11.734375 48.09375 
Q 17.96875 56 27.875 56 
Q 33.9375 56 38.25 53.625 
Q 42.578125 51.265625 45.40625 46.390625 
z
M 14.796875 27.296875 
Q 14.796875 17.390625 18.875 11.75 
Q 22.953125 6.109375 30.078125 6.109375 
Q 37.203125 6.109375 41.296875 11.75 
Q 45.40625 17.390625 45.40625 27.296875 
Q 45.40625 37.203125 41.296875 42.84375 
Q 37.203125 48.484375 30.078125 48.484375 
Q 22.953125 48.484375 18.875 42.84375 
Q 14.796875 37.203125 14.796875 27.296875 
z
" id="DejaVuSans-64"/>
     <path d="M 30.609375 48.390625 
Q 23.390625 48.390625 19.1875 42.75 
Q 14.984375 37.109375 14.984375 27.296875 
Q 14.984375 17.484375 19.15625 11.84375 
Q 23.34375 6.203125 30.609375 6.203125 
Q 37.796875 6.203125 41.984375 11.859375 
Q 46.1875 17.53125 46.1875 27.296875 
Q 46.1875 37.015625 41.984375 42.703125 
Q 37.796875 48.390625 30.609375 48.390625 
z
M 30.609375 56 
Q 42.328125 56 49.015625 48.375 
Q 55.71875 40.765625 55.71875 27.296875 
Q 55.71875 13.875 49.015625 6.21875 
Q 42.328125 -1.421875 30.609375 -1.421875 
Q 18.84375 -1.421875 12.171875 6.21875 
Q 5.515625 13.875 5.515625 27.296875 
Q 5.515625 40.765625 12.171875 48.375 
Q 18.84375 56 30.609375 56 
z
" id="DejaVuSans-6f"/>
     <path d="M 2.984375 54.6875 
L 12.5 54.6875 
L 29.59375 8.796875 
L 46.6875 54.6875 
L 56.203125 54.6875 
L 35.6875 0 
L 23.484375 0 
z
" id="DejaVuSans-76"/>
     <path d="M 32.171875 -5.078125 
Q 28.375 -14.84375 24.75 -17.8125 
Q 21.140625 -20.796875 15.09375 -20.796875 
L 7.90625 -20.796875 
L 7.90625 -13.28125 
L 13.1875 -13.28125 
Q 16.890625 -13.28125 18.9375 -11.515625 
Q 21 -9.765625 23.484375 -3.21875 
L 25.09375 0.875 
L 2.984375 54.6875 
L 12.5 54.6875 
L 29.59375 11.921875 
L 46.6875 54.6875 
L 56.203125 54.6875 
z
" id="DejaVuSans-79"/>
     <path d="M 11.71875 12.40625 
L 22.015625 12.40625 
L 22.015625 0 
L 11.71875 0 
z
M 11.71875 51.703125 
L 22.015625 51.703125 
L 22.015625 39.3125 
L 11.71875 39.3125 
z
" id="DejaVuSans-3a"/>
     <path d="M 5.515625 54.6875 
L 48.1875 54.6875 
L 48.1875 46.484375 
L 14.40625 7.171875 
L 48.1875 7.171875 
L 48.1875 0 
L 4.296875 0 
L 4.296875 8.203125 
L 38.09375 47.515625 
L 5.515625 47.515625 
z
" id="DejaVuSans-7a"/>
    </defs>
    <g transform="translate(230.4585 123.6)scale(0.192 -0.192)">
     <use xlink:href="#DejaVuSans-47"/>
     <use x="77.490234" xlink:href="#DejaVuSans-65"/>
     <use x="139.013672" xlink:href="#DejaVuSans-6e"/>
     <use x="202.392578" xlink:href="#DejaVuSans-65"/>
     <use x="263.916016" xlink:href="#DejaVuSans-74"/>
     <use x="303.125" xlink:href="#DejaVuSans-69"/>
     <use x="330.908203" xlink:href="#DejaVuSans-63"/>
     <use x="385.888672" xlink:href="#DejaVuSans-20"/>
     <use x="417.675781" xlink:href="#DejaVuSans-73"/>
     <use x="469.775391" xlink:href="#DejaVuSans-68"/>
     <use x="533.154297" xlink:href="#DejaVuSans-61"/>
     <use x="594.433594" xlink:href="#DejaVuSans-70"/>
     <use x="657.910156" xlink:href="#DejaVuSans-65"/>
     <use x="719.433594" xlink:href="#DejaVuSans-6c"/>
     <use x="747.216797" xlink:href="#DejaVuSans-65"/>
     <use x="808.740234" xlink:href="#DejaVuSans-74"/>
     <use x="847.949219" xlink:href="#DejaVuSans-20"/>
     <use x="879.736328" xlink:href="#DejaVuSans-64"/>
     <use x="943.212891" xlink:href="#DejaVuSans-69"/>
     <use x="970.996094" xlink:href="#DejaVuSans-73"/>
     <use x="1023.095703" xlink:href="#DejaVuSans-63"/>
     <use x="1078.076172" xlink:href="#DejaVuSans-6f"/>
     <use x="1139.257812" xlink:href="#DejaVuSans-76"/>
     <use x="1198.4375" xlink:href="#DejaVuSans-65"/>
     <use x="1259.960938" xlink:href="#DejaVuSans-72"/>
     <use x="1301.074219" xlink:href="#DejaVuSans-79"/>
     <use x="1360.253906" xlink:href="#DejaVuSans-20"/>
     <use x="1392.041016" xlink:href="#DejaVuSans-76"/>
     <use x="1451.220703" xlink:href="#DejaVuSans-73"/>
     <use x="1503.320312" xlink:href="#DejaVuSans-20"/>
     <use x="1535.107422" xlink:href="#DejaVuSans-73"/>
     <use x="1587.207031" xlink:href="#DejaVuSans-68"/>
     <use x="1650.585938" xlink:href="#DejaVuSans-61"/>
     <use x="1711.865234" xlink:href="#DejaVuSans-70"/>
     <use x="1775.341797" xlink:href="#DejaVuSans-65"/>
     <use x="1836.865234" xlink:href="#DejaVuSans-6c"/>
     <use x="1864.648438" xlink:href="#DejaVuSans-65"/>
     <use x="1926.171875" xlink:href="#DejaVuSans-74"/>
     <use x="1965.380859" xlink:href="#DejaVuSans-20"/>
     <use x="1997.167969" xlink:href="#DejaVuSans-6c"/>
     <use x="2024.951172" xlink:href="#DejaVuSans-65"/>
     <use x="2086.474609" xlink:href="#DejaVuSans-61"/>
     <use x="2147.753906" xlink:href="#DejaVuSans-72"/>
     <use x="2188.851562" xlink:href="#DejaVuSans-6e"/>
     <use x="2252.230469" xlink:href="#DejaVuSans-69"/>
     <use x="2280.013672" xlink:href="#DejaVuSans-6e"/>
     <use x="2343.392578" xlink:href="#DejaVuSans-67"/>
     <use x="2406.869141" xlink:href="#DejaVuSans-3a"/>
     <use x="2440.560547" xlink:href="#DejaVuSans-20"/>
     <use x="2472.347656" xlink:href="#DejaVuSans-73"/>
     <use x="2524.447266" xlink:href="#DejaVuSans-68"/>
     <use x="2587.826172" xlink:href="#DejaVuSans-61"/>
     <use x="2649.105469" xlink:href="#DejaVuSans-70"/>
     <use x="2712.582031" xlink:href="#DejaVuSans-65"/>
     <use x="2774.105469" xlink:href="#DejaVuSans-6c"/>
     <use x="2801.888672" xlink:href="#DejaVuSans-65"/>
     <use x="2863.412109" xlink:href="#DejaVuSans-74"/>
     <use x="2902.621094" xlink:href="#DejaVuSans-20"/>
     <use x="2934.408203" xlink:href="#DejaVuSans-73"/>
     <use x="2986.507812" xlink:href="#DejaVuSans-65"/>
     <use x="3048.03125" xlink:href="#DejaVuSans-74"/>
     <use x="3087.240234" xlink:href="#DejaVuSans-20"/>
     <use x="3119.027344" xlink:href="#DejaVuSans-73"/>
     <use x="3171.126953" xlink:href="#DejaVuSans-69"/>
     <use x="3198.910156" xlink:href="#DejaVuSans-7a"/>
     <use x="3251.400391" xlink:href="#DejaVuSans-65"/>
     <use x="3312.923828" xlink:href="#DejaVuSans-73"/>
    </g>
   </g>
  </g>
 </g>
 <defs>
  <clipPath id="pa009afc17e">
   <rect height="815.4" width="837" x="135" y="129.6"/>
  </clipPath>
 </defs>
</svg>
