<?xml version="1.0" encoding="utf-8" standalone="no"?>
<!DOCTYPE svg PUBLIC "-//W3C//DTD SVG 1.1//EN"
  "http://www.w3.org/Graphics/SVG/1.1/DTD/svg11.dtd">
<!-- Created with matplotlib (http://matplotlib.org/) -->
<svg height="720pt" version="1.1" viewBox="0 0 720 720" width="720pt" xmlns="http://www.w3.org/2000/svg" xmlns:xlink="http://www.w3.org/1999/xlink">
 <defs>
  <style type="text/css">
*{stroke-linecap:butt;stroke-linejoin:round;}
  </style>
 </defs>
 <g id="figure_1">
  <g id="patch_1">
   <path d="M 0 720 
L 720 720 
L 720 0 
L 0 0 
z
" style="fill:#ffffff;"/>
  </g>
  <g id="axes_1">
   <g id="patch_2">
    <path d="M 90 630 
L 648 630 
L 648 86.4 
L 90 86.4 
z
" style="fill:#ffffff;"/>
   </g>
   <g id="PathCollection_1">
    <defs>
     <path d="M 0 3 
C 0.795609 3 1.55874 2.683901 2.12132 2.12132 
C 2.683901 1.55874 3 0.795609 3 0 
C 3 -0.795609 2.683901 -1.55874 2.12132 -2.12132 
C 1.55874 -2.683901 0.795609 -3 0 -3 
C -0.795609 -3 -1.55874 -2.683901 -2.12132 -2.12132 
C -2.683901 -1.55874 -3 -0.795609 -3 0 
C -3 0.795609 -2.683901 1.55874 -2.12132 2.12132 
C -1.55874 2.683901 -0.795609 3 0 3 
z
" id="m15ec4724df" style="stroke:#1f77b4;"/>
    </defs>
    <g clip-path="url(#p5daa7cf34f)">
     <use style="fill:#1f77b4;stroke:#1f77b4;" x="92.097744" xlink:href="#m15ec4724df" y="572.778947"/>
     <use style="fill:#1f77b4;stroke:#1f77b4;" x="163.421053" xlink:href="#m15ec4724df" y="548.255639"/>
     <use style="fill:#1f77b4;stroke:#1f77b4;" x="96.293233" xlink:href="#m15ec4724df" y="388.854135"/>
     <use style="fill:#1f77b4;stroke:#1f77b4;" x="92.097744" xlink:href="#m15ec4724df" y="347.981955"/>
     <use style="fill:#1f77b4;stroke:#1f77b4;" x="92.097744" xlink:href="#m15ec4724df" y="546.21203"/>
     <use style="fill:#1f77b4;stroke:#1f77b4;" x="201.180451" xlink:href="#m15ec4724df" y="548.255639"/>
     <use style="fill:#1f77b4;stroke:#1f77b4;" x="131.954887" xlink:href="#m15ec4724df" y="548.255639"/>
     <use style="fill:#1f77b4;stroke:#1f77b4;" x="94.195489" xlink:href="#m15ec4724df" y="499.209023"/>
     <use style="fill:#1f77b4;stroke:#1f77b4;" x="94.195489" xlink:href="#m15ec4724df" y="564.604511"/>
     <use style="fill:#1f77b4;stroke:#1f77b4;" x="92.097744" xlink:href="#m15ec4724df" y="476.729323"/>
     <use style="fill:#1f77b4;stroke:#1f77b4;" x="96.293233" xlink:href="#m15ec4724df" y="470.598496"/>
     <use style="fill:#1f77b4;stroke:#1f77b4;" x="94.195489" xlink:href="#m15ec4724df" y="544.168421"/>
     <use style="fill:#1f77b4;stroke:#1f77b4;" x="92.097744" xlink:href="#m15ec4724df" y="337.76391"/>
     <use style="fill:#1f77b4;stroke:#1f77b4;" x="148.736842" xlink:href="#m15ec4724df" y="548.255639"/>
     <use style="fill:#1f77b4;stroke:#1f77b4;" x="94.195489" xlink:href="#m15ec4724df" y="431.769925"/>
     <use style="fill:#1f77b4;stroke:#1f77b4;" x="113.075188" xlink:href="#m15ec4724df" y="568.691729"/>
     <use style="fill:#1f77b4;stroke:#1f77b4;" x="96.293233" xlink:href="#m15ec4724df" y="401.115789"/>
     <use style="fill:#1f77b4;stroke:#1f77b4;" x="104.684211" xlink:href="#m15ec4724df" y="482.86015"/>
     <use style="fill:#1f77b4;stroke:#1f77b4;" x="100.488722" xlink:href="#m15ec4724df" y="149.75188"/>
     <use style="fill:#1f77b4;stroke:#1f77b4;" x="117.270677" xlink:href="#m15ec4724df" y="331.633083"/>
     <use style="fill:#1f77b4;stroke:#1f77b4;" x="100.488722" xlink:href="#m15ec4724df" y="223.321805"/>
     <use style="fill:#1f77b4;stroke:#1f77b4;" x="94.195489" xlink:href="#m15ec4724df" y="374.548872"/>
     <use style="fill:#1f77b4;stroke:#1f77b4;" x="169.714286" xlink:href="#m15ec4724df" y="497.165414"/>
     <use style="fill:#1f77b4;stroke:#1f77b4;" x="98.390977" xlink:href="#m15ec4724df" y="390.897744"/>
     <use style="fill:#1f77b4;stroke:#1f77b4;" x="138.24812" xlink:href="#m15ec4724df" y="548.255639"/>
     <use style="fill:#1f77b4;stroke:#1f77b4;" x="92.097744" xlink:href="#m15ec4724df" y="558.473684"/>
     <use style="fill:#1f77b4;stroke:#1f77b4;" x="146.639098" xlink:href="#m15ec4724df" y="548.255639"/>
     <use style="fill:#1f77b4;stroke:#1f77b4;" x="92.097744" xlink:href="#m15ec4724df" y="106.83609"/>
     <use style="fill:#1f77b4;stroke:#1f77b4;" x="92.097744" xlink:href="#m15ec4724df" y="491.034586"/>
     <use style="fill:#1f77b4;stroke:#1f77b4;" x="96.293233" xlink:href="#m15ec4724df" y="605.476692"/>
     <use style="fill:#1f77b4;stroke:#1f77b4;" x="102.586466" xlink:href="#m15ec4724df" y="531.906767"/>
     <use style="fill:#1f77b4;stroke:#1f77b4;" x="201.180451" xlink:href="#m15ec4724df" y="529.863158"/>
    </g>
   </g>
   <g id="PolyCollection_1">
    <defs>
     <path d="M 90 -90 
L 90 -90 
L 95.636364 -95.490909 
L 101.272727 -100.981818 
L 106.909091 -106.472727 
L 112.545455 -111.963636 
L 118.181818 -117.454545 
L 123.818182 -122.945455 
L 129.454545 -128.436364 
L 135.090909 -133.927273 
L 140.727273 -139.418182 
L 146.363636 -144.909091 
L 152 -150.4 
L 157.636364 -155.890909 
L 163.272727 -161.381818 
L 168.909091 -166.872727 
L 174.545455 -172.363636 
L 180.181818 -177.854545 
L 185.818182 -183.345455 
L 191.454545 -188.836364 
L 197.090909 -194.327273 
L 202.727273 -199.818182 
L 208.363636 -205.309091 
L 214 -210.8 
L 219.636364 -216.290909 
L 225.272727 -221.781818 
L 230.909091 -227.272727 
L 236.545455 -232.763636 
L 242.181818 -238.254545 
L 247.818182 -243.745455 
L 253.454545 -249.236364 
L 259.090909 -254.727273 
L 264.727273 -260.218182 
L 270.363636 -265.709091 
L 276 -271.2 
L 281.636364 -276.690909 
L 287.272727 -282.181818 
L 292.909091 -287.672727 
L 298.545455 -293.163636 
L 304.181818 -298.654545 
L 309.818182 -304.145455 
L 315.454545 -309.636364 
L 321.090909 -315.127273 
L 326.727273 -320.618182 
L 332.363636 -326.109091 
L 338 -331.6 
L 343.636364 -337.090909 
L 349.272727 -342.581818 
L 354.909091 -348.072727 
L 360.545455 -353.563636 
L 366.181818 -359.054545 
L 371.818182 -364.545455 
L 377.454545 -370.036364 
L 383.090909 -375.527273 
L 388.727273 -381.018182 
L 394.363636 -386.509091 
L 400 -392 
L 405.636364 -397.490909 
L 411.272727 -402.981818 
L 416.909091 -408.472727 
L 422.545455 -413.963636 
L 428.181818 -419.454545 
L 433.818182 -424.945455 
L 439.454545 -430.436364 
L 445.090909 -435.927273 
L 450.727273 -441.418182 
L 456.363636 -446.909091 
L 462 -452.4 
L 467.636364 -457.890909 
L 473.272727 -463.381818 
L 478.909091 -468.872727 
L 484.545455 -474.363636 
L 490.181818 -479.854545 
L 495.818182 -485.345455 
L 501.454545 -490.836364 
L 507.090909 -496.327273 
L 512.727273 -501.818182 
L 518.363636 -507.309091 
L 524 -512.8 
L 529.636364 -518.290909 
L 535.272727 -523.781818 
L 540.909091 -529.272727 
L 546.545455 -534.763636 
L 552.181818 -540.254545 
L 557.818182 -545.745455 
L 563.454545 -551.236364 
L 569.090909 -556.727273 
L 574.727273 -562.218182 
L 580.363636 -567.709091 
L 586 -573.2 
L 591.636364 -578.690909 
L 597.272727 -584.181818 
L 602.909091 -589.672727 
L 608.545455 -595.163636 
L 614.181818 -600.654545 
L 619.818182 -606.145455 
L 625.454545 -611.636364 
L 631.090909 -617.127273 
L 636.727273 -622.618182 
L 642.363636 -628.109091 
L 648 -633.6 
L 648 -90 
L 648 -90 
L 642.363636 -90 
L 636.727273 -90 
L 631.090909 -90 
L 625.454545 -90 
L 619.818182 -90 
L 614.181818 -90 
L 608.545455 -90 
L 602.909091 -90 
L 597.272727 -90 
L 591.636364 -90 
L 586 -90 
L 580.363636 -90 
L 574.727273 -90 
L 569.090909 -90 
L 563.454545 -90 
L 557.818182 -90 
L 552.181818 -90 
L 546.545455 -90 
L 540.909091 -90 
L 535.272727 -90 
L 529.636364 -90 
L 524 -90 
L 518.363636 -90 
L 512.727273 -90 
L 507.090909 -90 
L 501.454545 -90 
L 495.818182 -90 
L 490.181818 -90 
L 484.545455 -90 
L 478.909091 -90 
L 473.272727 -90 
L 467.636364 -90 
L 462 -90 
L 456.363636 -90 
L 450.727273 -90 
L 445.090909 -90 
L 439.454545 -90 
L 433.818182 -90 
L 428.181818 -90 
L 422.545455 -90 
L 416.909091 -90 
L 411.272727 -90 
L 405.636364 -90 
L 400 -90 
L 394.363636 -90 
L 388.727273 -90 
L 383.090909 -90 
L 377.454545 -90 
L 371.818182 -90 
L 366.181818 -90 
L 360.545455 -90 
L 354.909091 -90 
L 349.272727 -90 
L 343.636364 -90 
L 338 -90 
L 332.363636 -90 
L 326.727273 -90 
L 321.090909 -90 
L 315.454545 -90 
L 309.818182 -90 
L 304.181818 -90 
L 298.545455 -90 
L 292.909091 -90 
L 287.272727 -90 
L 281.636364 -90 
L 276 -90 
L 270.363636 -90 
L 264.727273 -90 
L 259.090909 -90 
L 253.454545 -90 
L 247.818182 -90 
L 242.181818 -90 
L 236.545455 -90 
L 230.909091 -90 
L 225.272727 -90 
L 219.636364 -90 
L 214 -90 
L 208.363636 -90 
L 202.727273 -90 
L 197.090909 -90 
L 191.454545 -90 
L 185.818182 -90 
L 180.181818 -90 
L 174.545455 -90 
L 168.909091 -90 
L 163.272727 -90 
L 157.636364 -90 
L 152 -90 
L 146.363636 -90 
L 140.727273 -90 
L 135.090909 -90 
L 129.454545 -90 
L 123.818182 -90 
L 118.181818 -90 
L 112.545455 -90 
L 106.909091 -90 
L 101.272727 -90 
L 95.636364 -90 
L 90 -90 
z
" id="mf3460943e5" style="stroke:#ff0000;stroke-opacity:0.2;"/>
    </defs>
    <g clip-path="url(#p5daa7cf34f)">
     <use style="fill:#ff0000;fill-opacity:0.2;stroke:#ff0000;stroke-opacity:0.2;" x="0" xlink:href="#mf3460943e5" y="720"/>
    </g>
   </g>
   <g id="PolyCollection_2">
    <defs>
     <path d="M 90 -633.6 
L 90 -90 
L 95.636364 -95.490909 
L 101.272727 -100.981818 
L 106.909091 -106.472727 
L 112.545455 -111.963636 
L 118.181818 -117.454545 
L 123.818182 -122.945455 
L 129.454545 -128.436364 
L 135.090909 -133.927273 
L 140.727273 -139.418182 
L 146.363636 -144.909091 
L 152 -150.4 
L 157.636364 -155.890909 
L 163.272727 -161.381818 
L 168.909091 -166.872727 
L 174.545455 -172.363636 
L 180.181818 -177.854545 
L 185.818182 -183.345455 
L 191.454545 -188.836364 
L 197.090909 -194.327273 
L 202.727273 -199.818182 
L 208.363636 -205.309091 
L 214 -210.8 
L 219.636364 -216.290909 
L 225.272727 -221.781818 
L 230.909091 -227.272727 
L 236.545455 -232.763636 
L 242.181818 -238.254545 
L 247.818182 -243.745455 
L 253.454545 -249.236364 
L 259.090909 -254.727273 
L 264.727273 -260.218182 
L 270.363636 -265.709091 
L 276 -271.2 
L 281.636364 -276.690909 
L 287.272727 -282.181818 
L 292.909091 -287.672727 
L 298.545455 -293.163636 
L 304.181818 -298.654545 
L 309.818182 -304.145455 
L 315.454545 -309.636364 
L 321.090909 -315.127273 
L 326.727273 -320.618182 
L 332.363636 -326.109091 
L 338 -331.6 
L 343.636364 -337.090909 
L 349.272727 -342.581818 
L 354.909091 -348.072727 
L 360.545455 -353.563636 
L 366.181818 -359.054545 
L 371.818182 -364.545455 
L 377.454545 -370.036364 
L 383.090909 -375.527273 
L 388.727273 -381.018182 
L 394.363636 -386.509091 
L 400 -392 
L 405.636364 -397.490909 
L 411.272727 -402.981818 
L 416.909091 -408.472727 
L 422.545455 -413.963636 
L 428.181818 -419.454545 
L 433.818182 -424.945455 
L 439.454545 -430.436364 
L 445.090909 -435.927273 
L 450.727273 -441.418182 
L 456.363636 -446.909091 
L 462 -452.4 
L 467.636364 -457.890909 
L 473.272727 -463.381818 
L 478.909091 -468.872727 
L 484.545455 -474.363636 
L 490.181818 -479.854545 
L 495.818182 -485.345455 
L 501.454545 -490.836364 
L 507.090909 -496.327273 
L 512.727273 -501.818182 
L 518.363636 -507.309091 
L 524 -512.8 
L 529.636364 -518.290909 
L 535.272727 -523.781818 
L 540.909091 -529.272727 
L 546.545455 -534.763636 
L 552.181818 -540.254545 
L 557.818182 -545.745455 
L 563.454545 -551.236364 
L 569.090909 -556.727273 
L 574.727273 -562.218182 
L 580.363636 -567.709091 
L 586 -573.2 
L 591.636364 -578.690909 
L 597.272727 -584.181818 
L 602.909091 -589.672727 
L 608.545455 -595.163636 
L 614.181818 -600.654545 
L 619.818182 -606.145455 
L 625.454545 -611.636364 
L 631.090909 -617.127273 
L 636.727273 -622.618182 
L 642.363636 -628.109091 
L 648 -633.6 
L 648 -633.6 
L 648 -633.6 
L 642.363636 -633.6 
L 636.727273 -633.6 
L 631.090909 -633.6 
L 625.454545 -633.6 
L 619.818182 -633.6 
L 614.181818 -633.6 
L 608.545455 -633.6 
L 602.909091 -633.6 
L 597.272727 -633.6 
L 591.636364 -633.6 
L 586 -633.6 
L 580.363636 -633.6 
L 574.727273 -633.6 
L 569.090909 -633.6 
L 563.454545 -633.6 
L 557.818182 -633.6 
L 552.181818 -633.6 
L 546.545455 -633.6 
L 540.909091 -633.6 
L 535.272727 -633.6 
L 529.636364 -633.6 
L 524 -633.6 
L 518.363636 -633.6 
L 512.727273 -633.6 
L 507.090909 -633.6 
L 501.454545 -633.6 
L 495.818182 -633.6 
L 490.181818 -633.6 
L 484.545455 -633.6 
L 478.909091 -633.6 
L 473.272727 -633.6 
L 467.636364 -633.6 
L 462 -633.6 
L 456.363636 -633.6 
L 450.727273 -633.6 
L 445.090909 -633.6 
L 439.454545 -633.6 
L 433.818182 -633.6 
L 428.181818 -633.6 
L 422.545455 -633.6 
L 416.909091 -633.6 
L 411.272727 -633.6 
L 405.636364 -633.6 
L 400 -633.6 
L 394.363636 -633.6 
L 388.727273 -633.6 
L 383.090909 -633.6 
L 377.454545 -633.6 
L 371.818182 -633.6 
L 366.181818 -633.6 
L 360.545455 -633.6 
L 354.909091 -633.6 
L 349.272727 -633.6 
L 343.636364 -633.6 
L 338 -633.6 
L 332.363636 -633.6 
L 326.727273 -633.6 
L 321.090909 -633.6 
L 315.454545 -633.6 
L 309.818182 -633.6 
L 304.181818 -633.6 
L 298.545455 -633.6 
L 292.909091 -633.6 
L 287.272727 -633.6 
L 281.636364 -633.6 
L 276 -633.6 
L 270.363636 -633.6 
L 264.727273 -633.6 
L 259.090909 -633.6 
L 253.454545 -633.6 
L 247.818182 -633.6 
L 242.181818 -633.6 
L 236.545455 -633.6 
L 230.909091 -633.6 
L 225.272727 -633.6 
L 219.636364 -633.6 
L 214 -633.6 
L 208.363636 -633.6 
L 202.727273 -633.6 
L 197.090909 -633.6 
L 191.454545 -633.6 
L 185.818182 -633.6 
L 180.181818 -633.6 
L 174.545455 -633.6 
L 168.909091 -633.6 
L 163.272727 -633.6 
L 157.636364 -633.6 
L 152 -633.6 
L 146.363636 -633.6 
L 140.727273 -633.6 
L 135.090909 -633.6 
L 129.454545 -633.6 
L 123.818182 -633.6 
L 118.181818 -633.6 
L 112.545455 -633.6 
L 106.909091 -633.6 
L 101.272727 -633.6 
L 95.636364 -633.6 
L 90 -633.6 
z
" id="m07c7bd688c" style="stroke:#008000;stroke-opacity:0.2;"/>
    </defs>
    <g clip-path="url(#p5daa7cf34f)">
     <use style="fill:#008000;fill-opacity:0.2;stroke:#008000;stroke-opacity:0.2;" x="0" xlink:href="#m07c7bd688c" y="720"/>
    </g>
   </g>
   <g id="matplotlib.axis_1">
    <g id="xtick_1">
     <g id="line2d_1">
      <defs>
       <path d="M 0 0 
L 0 3.5 
" id="mf2a3a74869" style="stroke:#000000;stroke-width:0.8;"/>
      </defs>
      <g>
       <use style="stroke:#000000;stroke-width:0.8;" x="90" xlink:href="#mf2a3a74869" y="630"/>
      </g>
     </g>
     <g id="text_1">
      <!-- 0 -->
      <defs>
       <path d="M 46 36.53125 
Q 46 50.203125 43.4375 55.78125 
Q 40.875 61.375 34.8125 61.375 
Q 28.765625 61.375 26.171875 55.78125 
Q 23.578125 50.203125 23.578125 36.53125 
Q 23.578125 22.703125 26.171875 17.03125 
Q 28.765625 11.375 34.8125 11.375 
Q 40.828125 11.375 43.40625 17.03125 
Q 46 22.703125 46 36.53125 
z
M 64.796875 36.375 
Q 64.796875 18.265625 56.984375 8.421875 
Q 49.171875 -1.421875 34.8125 -1.421875 
Q 20.40625 -1.421875 12.59375 8.421875 
Q 4.78125 18.265625 4.78125 36.375 
Q 4.78125 54.546875 12.59375 64.375 
Q 20.40625 74.21875 34.8125 74.21875 
Q 49.171875 74.21875 56.984375 64.375 
Q 64.796875 54.546875 64.796875 36.375 
z
" id="DejaVuSans-Bold-30"/>
      </defs>
      <g transform="translate(84.43375 649.1575)scale(0.16 -0.16)">
       <use xlink:href="#DejaVuSans-Bold-30"/>
      </g>
     </g>
    </g>
    <g id="xtick_2">
     <g id="line2d_2">
      <g>
       <use style="stroke:#000000;stroke-width:0.8;" x="194.887218" xlink:href="#mf2a3a74869" y="630"/>
      </g>
     </g>
     <g id="text_2">
      <!-- 50 -->
      <defs>
       <path d="M 10.59375 72.90625 
L 57.328125 72.90625 
L 57.328125 59.078125 
L 25.59375 59.078125 
L 25.59375 47.796875 
Q 27.734375 48.390625 29.90625 48.703125 
Q 32.078125 49.03125 34.421875 49.03125 
Q 47.75 49.03125 55.171875 42.359375 
Q 62.59375 35.6875 62.59375 23.78125 
Q 62.59375 11.96875 54.515625 5.265625 
Q 46.4375 -1.421875 32.078125 -1.421875 
Q 25.875 -1.421875 19.796875 -0.21875 
Q 13.71875 0.984375 7.71875 3.421875 
L 7.71875 18.21875 
Q 13.671875 14.796875 19.015625 13.078125 
Q 24.359375 11.375 29.109375 11.375 
Q 35.9375 11.375 39.859375 14.71875 
Q 43.796875 18.0625 43.796875 23.78125 
Q 43.796875 29.546875 39.859375 32.859375 
Q 35.9375 36.1875 29.109375 36.1875 
Q 25.046875 36.1875 20.453125 35.125 
Q 15.875 34.078125 10.59375 31.890625 
z
" id="DejaVuSans-Bold-35"/>
      </defs>
      <g transform="translate(183.754718 649.1575)scale(0.16 -0.16)">
       <use xlink:href="#DejaVuSans-Bold-35"/>
       <use x="69.580078" xlink:href="#DejaVuSans-Bold-30"/>
      </g>
     </g>
    </g>
    <g id="xtick_3">
     <g id="line2d_3">
      <g>
       <use style="stroke:#000000;stroke-width:0.8;" x="299.774436" xlink:href="#mf2a3a74869" y="630"/>
      </g>
     </g>
     <g id="text_3">
      <!-- 100 -->
      <defs>
       <path d="M 11.71875 12.984375 
L 28.328125 12.984375 
L 28.328125 60.109375 
L 11.28125 56.59375 
L 11.28125 69.390625 
L 28.21875 72.90625 
L 46.09375 72.90625 
L 46.09375 12.984375 
L 62.703125 12.984375 
L 62.703125 0 
L 11.71875 0 
z
" id="DejaVuSans-Bold-31"/>
      </defs>
      <g transform="translate(283.075686 649.1575)scale(0.16 -0.16)">
       <use xlink:href="#DejaVuSans-Bold-31"/>
       <use x="69.580078" xlink:href="#DejaVuSans-Bold-30"/>
       <use x="139.160156" xlink:href="#DejaVuSans-Bold-30"/>
      </g>
     </g>
    </g>
    <g id="xtick_4">
     <g id="line2d_4">
      <g>
       <use style="stroke:#000000;stroke-width:0.8;" x="404.661654" xlink:href="#mf2a3a74869" y="630"/>
      </g>
     </g>
     <g id="text_4">
      <!-- 150 -->
      <g transform="translate(387.962904 649.1575)scale(0.16 -0.16)">
       <use xlink:href="#DejaVuSans-Bold-31"/>
       <use x="69.580078" xlink:href="#DejaVuSans-Bold-35"/>
       <use x="139.160156" xlink:href="#DejaVuSans-Bold-30"/>
      </g>
     </g>
    </g>
    <g id="xtick_5">
     <g id="line2d_5">
      <g>
       <use style="stroke:#000000;stroke-width:0.8;" x="509.548872" xlink:href="#mf2a3a74869" y="630"/>
      </g>
     </g>
     <g id="text_5">
      <!-- 200 -->
      <defs>
       <path d="M 28.8125 13.8125 
L 60.890625 13.8125 
L 60.890625 0 
L 7.90625 0 
L 7.90625 13.8125 
L 34.515625 37.3125 
Q 38.09375 40.53125 39.796875 43.609375 
Q 41.5 46.6875 41.5 50 
Q 41.5 55.125 38.0625 58.25 
Q 34.625 61.375 28.90625 61.375 
Q 24.515625 61.375 19.28125 59.5 
Q 14.0625 57.625 8.109375 53.90625 
L 8.109375 69.921875 
Q 14.453125 72.015625 20.65625 73.109375 
Q 26.859375 74.21875 32.8125 74.21875 
Q 45.90625 74.21875 53.15625 68.453125 
Q 60.40625 62.703125 60.40625 52.390625 
Q 60.40625 46.4375 57.328125 41.28125 
Q 54.25 36.140625 44.390625 27.484375 
z
" id="DejaVuSans-Bold-32"/>
      </defs>
      <g transform="translate(492.850122 649.1575)scale(0.16 -0.16)">
       <use xlink:href="#DejaVuSans-Bold-32"/>
       <use x="69.580078" xlink:href="#DejaVuSans-Bold-30"/>
       <use x="139.160156" xlink:href="#DejaVuSans-Bold-30"/>
      </g>
     </g>
    </g>
    <g id="xtick_6">
     <g id="line2d_6">
      <g>
       <use style="stroke:#000000;stroke-width:0.8;" x="614.43609" xlink:href="#mf2a3a74869" y="630"/>
      </g>
     </g>
     <g id="text_6">
      <!-- 250 -->
      <g transform="translate(597.73734 649.1575)scale(0.16 -0.16)">
       <use xlink:href="#DejaVuSans-Bold-32"/>
       <use x="69.580078" xlink:href="#DejaVuSans-Bold-35"/>
       <use x="139.160156" xlink:href="#DejaVuSans-Bold-30"/>
      </g>
     </g>
    </g>
    <g id="text_7">
     <!-- #Shapelets (D) -->
     <defs>
      <path d="M 51.125 44 
L 36.921875 44 
L 32.8125 27.6875 
L 47.125 27.6875 
z
M 43.796875 71.78125 
L 38.71875 51.515625 
L 52.984375 51.515625 
L 58.109375 71.78125 
L 65.921875 71.78125 
L 60.890625 51.515625 
L 76.125 51.515625 
L 76.125 44 
L 58.984375 44 
L 54.984375 27.6875 
L 70.515625 27.6875 
L 70.515625 20.21875 
L 53.078125 20.21875 
L 48 0 
L 40.1875 0 
L 45.21875 20.21875 
L 30.90625 20.21875 
L 25.875 0 
L 18.015625 0 
L 23.09375 20.21875 
L 7.71875 20.21875 
L 7.71875 27.6875 
L 24.90625 27.6875 
L 29 44 
L 13.28125 44 
L 13.28125 51.515625 
L 30.90625 51.515625 
L 35.890625 71.78125 
z
" id="DejaVuSans-23"/>
      <path d="M 53.515625 70.515625 
L 53.515625 60.890625 
Q 47.90625 63.578125 42.921875 64.890625 
Q 37.9375 66.21875 33.296875 66.21875 
Q 25.25 66.21875 20.875 63.09375 
Q 16.5 59.96875 16.5 54.203125 
Q 16.5 49.359375 19.40625 46.890625 
Q 22.3125 44.4375 30.421875 42.921875 
L 36.375 41.703125 
Q 47.40625 39.59375 52.65625 34.296875 
Q 57.90625 29 57.90625 20.125 
Q 57.90625 9.515625 50.796875 4.046875 
Q 43.703125 -1.421875 29.984375 -1.421875 
Q 24.8125 -1.421875 18.96875 -0.25 
Q 13.140625 0.921875 6.890625 3.21875 
L 6.890625 13.375 
Q 12.890625 10.015625 18.65625 8.296875 
Q 24.421875 6.59375 29.984375 6.59375 
Q 38.421875 6.59375 43.015625 9.90625 
Q 47.609375 13.234375 47.609375 19.390625 
Q 47.609375 24.75 44.3125 27.78125 
Q 41.015625 30.8125 33.5 32.328125 
L 27.484375 33.5 
Q 16.453125 35.6875 11.515625 40.375 
Q 6.59375 45.0625 6.59375 53.421875 
Q 6.59375 63.09375 13.40625 68.65625 
Q 20.21875 74.21875 32.171875 74.21875 
Q 37.3125 74.21875 42.625 73.28125 
Q 47.953125 72.359375 53.515625 70.515625 
z
" id="DejaVuSans-53"/>
      <path d="M 54.890625 33.015625 
L 54.890625 0 
L 45.90625 0 
L 45.90625 32.71875 
Q 45.90625 40.484375 42.875 44.328125 
Q 39.84375 48.1875 33.796875 48.1875 
Q 26.515625 48.1875 22.3125 43.546875 
Q 18.109375 38.921875 18.109375 30.90625 
L 18.109375 0 
L 9.078125 0 
L 9.078125 75.984375 
L 18.109375 75.984375 
L 18.109375 46.1875 
Q 21.34375 51.125 25.703125 53.5625 
Q 30.078125 56 35.796875 56 
Q 45.21875 56 50.046875 50.171875 
Q 54.890625 44.34375 54.890625 33.015625 
z
" id="DejaVuSans-68"/>
      <path d="M 34.28125 27.484375 
Q 23.390625 27.484375 19.1875 25 
Q 14.984375 22.515625 14.984375 16.5 
Q 14.984375 11.71875 18.140625 8.90625 
Q 21.296875 6.109375 26.703125 6.109375 
Q 34.1875 6.109375 38.703125 11.40625 
Q 43.21875 16.703125 43.21875 25.484375 
L 43.21875 27.484375 
z
M 52.203125 31.203125 
L 52.203125 0 
L 43.21875 0 
L 43.21875 8.296875 
Q 40.140625 3.328125 35.546875 0.953125 
Q 30.953125 -1.421875 24.3125 -1.421875 
Q 15.921875 -1.421875 10.953125 3.296875 
Q 6 8.015625 6 15.921875 
Q 6 25.140625 12.171875 29.828125 
Q 18.359375 34.515625 30.609375 34.515625 
L 43.21875 34.515625 
L 43.21875 35.40625 
Q 43.21875 41.609375 39.140625 45 
Q 35.0625 48.390625 27.6875 48.390625 
Q 23 48.390625 18.546875 47.265625 
Q 14.109375 46.140625 10.015625 43.890625 
L 10.015625 52.203125 
Q 14.9375 54.109375 19.578125 55.046875 
Q 24.21875 56 28.609375 56 
Q 40.484375 56 46.34375 49.84375 
Q 52.203125 43.703125 52.203125 31.203125 
z
" id="DejaVuSans-61"/>
      <path d="M 18.109375 8.203125 
L 18.109375 -20.796875 
L 9.078125 -20.796875 
L 9.078125 54.6875 
L 18.109375 54.6875 
L 18.109375 46.390625 
Q 20.953125 51.265625 25.265625 53.625 
Q 29.59375 56 35.59375 56 
Q 45.5625 56 51.78125 48.09375 
Q 58.015625 40.1875 58.015625 27.296875 
Q 58.015625 14.40625 51.78125 6.484375 
Q 45.5625 -1.421875 35.59375 -1.421875 
Q 29.59375 -1.421875 25.265625 0.953125 
Q 20.953125 3.328125 18.109375 8.203125 
z
M 48.6875 27.296875 
Q 48.6875 37.203125 44.609375 42.84375 
Q 40.53125 48.484375 33.40625 48.484375 
Q 26.265625 48.484375 22.1875 42.84375 
Q 18.109375 37.203125 18.109375 27.296875 
Q 18.109375 17.390625 22.1875 11.75 
Q 26.265625 6.109375 33.40625 6.109375 
Q 40.53125 6.109375 44.609375 11.75 
Q 48.6875 17.390625 48.6875 27.296875 
z
" id="DejaVuSans-70"/>
      <path d="M 56.203125 29.59375 
L 56.203125 25.203125 
L 14.890625 25.203125 
Q 15.484375 15.921875 20.484375 11.0625 
Q 25.484375 6.203125 34.421875 6.203125 
Q 39.59375 6.203125 44.453125 7.46875 
Q 49.3125 8.734375 54.109375 11.28125 
L 54.109375 2.78125 
Q 49.265625 0.734375 44.1875 -0.34375 
Q 39.109375 -1.421875 33.890625 -1.421875 
Q 20.796875 -1.421875 13.15625 6.1875 
Q 5.515625 13.8125 5.515625 26.8125 
Q 5.515625 40.234375 12.765625 48.109375 
Q 20.015625 56 32.328125 56 
Q 43.359375 56 49.78125 48.890625 
Q 56.203125 41.796875 56.203125 29.59375 
z
M 47.21875 32.234375 
Q 47.125 39.59375 43.09375 43.984375 
Q 39.0625 48.390625 32.421875 48.390625 
Q 24.90625 48.390625 20.390625 44.140625 
Q 15.875 39.890625 15.1875 32.171875 
z
" id="DejaVuSans-65"/>
      <path d="M 9.421875 75.984375 
L 18.40625 75.984375 
L 18.40625 0 
L 9.421875 0 
z
" id="DejaVuSans-6c"/>
      <path d="M 18.3125 70.21875 
L 18.3125 54.6875 
L 36.8125 54.6875 
L 36.8125 47.703125 
L 18.3125 47.703125 
L 18.3125 18.015625 
Q 18.3125 11.328125 20.140625 9.421875 
Q 21.96875 7.515625 27.59375 7.515625 
L 36.8125 7.515625 
L 36.8125 0 
L 27.59375 0 
Q 17.1875 0 13.234375 3.875 
Q 9.28125 7.765625 9.28125 18.015625 
L 9.28125 47.703125 
L 2.6875 47.703125 
L 2.6875 54.6875 
L 9.28125 54.6875 
L 9.28125 70.21875 
z
" id="DejaVuSans-74"/>
      <path d="M 44.28125 53.078125 
L 44.28125 44.578125 
Q 40.484375 46.53125 36.375 47.5 
Q 32.28125 48.484375 27.875 48.484375 
Q 21.1875 48.484375 17.84375 46.4375 
Q 14.5 44.390625 14.5 40.28125 
Q 14.5 37.15625 16.890625 35.375 
Q 19.28125 33.59375 26.515625 31.984375 
L 29.59375 31.296875 
Q 39.15625 29.25 43.1875 25.515625 
Q 47.21875 21.78125 47.21875 15.09375 
Q 47.21875 7.46875 41.1875 3.015625 
Q 35.15625 -1.421875 24.609375 -1.421875 
Q 20.21875 -1.421875 15.453125 -0.5625 
Q 10.6875 0.296875 5.421875 2 
L 5.421875 11.28125 
Q 10.40625 8.6875 15.234375 7.390625 
Q 20.0625 6.109375 24.8125 6.109375 
Q 31.15625 6.109375 34.5625 8.28125 
Q 37.984375 10.453125 37.984375 14.40625 
Q 37.984375 18.0625 35.515625 20.015625 
Q 33.0625 21.96875 24.703125 23.78125 
L 21.578125 24.515625 
Q 13.234375 26.265625 9.515625 29.90625 
Q 5.8125 33.546875 5.8125 39.890625 
Q 5.8125 47.609375 11.28125 51.796875 
Q 16.75 56 26.8125 56 
Q 31.78125 56 36.171875 55.265625 
Q 40.578125 54.546875 44.28125 53.078125 
z
" id="DejaVuSans-73"/>
      <path id="DejaVuSans-20"/>
      <path d="M 31 75.875 
Q 24.46875 64.65625 21.28125 53.65625 
Q 18.109375 42.671875 18.109375 31.390625 
Q 18.109375 20.125 21.3125 9.0625 
Q 24.515625 -2 31 -13.1875 
L 23.1875 -13.1875 
Q 15.875 -1.703125 12.234375 9.375 
Q 8.59375 20.453125 8.59375 31.390625 
Q 8.59375 42.28125 12.203125 53.3125 
Q 15.828125 64.359375 23.1875 75.875 
z
" id="DejaVuSans-28"/>
      <path d="M 19.671875 64.796875 
L 19.671875 8.109375 
L 31.59375 8.109375 
Q 46.6875 8.109375 53.6875 14.9375 
Q 60.6875 21.78125 60.6875 36.53125 
Q 60.6875 51.171875 53.6875 57.984375 
Q 46.6875 64.796875 31.59375 64.796875 
z
M 9.8125 72.90625 
L 30.078125 72.90625 
Q 51.265625 72.90625 61.171875 64.09375 
Q 71.09375 55.28125 71.09375 36.53125 
Q 71.09375 17.671875 61.125 8.828125 
Q 51.171875 0 30.078125 0 
L 9.8125 0 
z
" id="DejaVuSans-44"/>
      <path d="M 8.015625 75.875 
L 15.828125 75.875 
Q 23.140625 64.359375 26.78125 53.3125 
Q 30.421875 42.28125 30.421875 31.390625 
Q 30.421875 20.453125 26.78125 9.375 
Q 23.140625 -1.703125 15.828125 -13.1875 
L 8.015625 -13.1875 
Q 14.5 -2 17.703125 9.0625 
Q 20.90625 20.125 20.90625 31.390625 
Q 20.90625 42.671875 17.703125 53.65625 
Q 14.5 64.65625 8.015625 75.875 
z
" id="DejaVuSans-29"/>
     </defs>
     <g transform="translate(307.85 668.6425)scale(0.16 -0.16)">
      <use xlink:href="#DejaVuSans-23"/>
      <use x="83.789062" xlink:href="#DejaVuSans-53"/>
      <use x="147.265625" xlink:href="#DejaVuSans-68"/>
      <use x="210.644531" xlink:href="#DejaVuSans-61"/>
      <use x="271.923828" xlink:href="#DejaVuSans-70"/>
      <use x="335.400391" xlink:href="#DejaVuSans-65"/>
      <use x="396.923828" xlink:href="#DejaVuSans-6c"/>
      <use x="424.707031" xlink:href="#DejaVuSans-65"/>
      <use x="486.230469" xlink:href="#DejaVuSans-74"/>
      <use x="525.439453" xlink:href="#DejaVuSans-73"/>
      <use x="577.539062" xlink:href="#DejaVuSans-20"/>
      <use x="609.326172" xlink:href="#DejaVuSans-28"/>
      <use x="648.339844" xlink:href="#DejaVuSans-44"/>
      <use x="725.341797" xlink:href="#DejaVuSans-29"/>
     </g>
    </g>
   </g>
   <g id="matplotlib.axis_2">
    <g id="ytick_1">
     <g id="line2d_7">
      <defs>
       <path d="M 0 0 
L -3.5 0 
" id="m199f1a6f9e" style="stroke:#000000;stroke-width:0.8;"/>
      </defs>
      <g>
       <use style="stroke:#000000;stroke-width:0.8;" x="90" xlink:href="#m199f1a6f9e" y="630"/>
      </g>
     </g>
     <g id="text_8">
      <!-- 0 -->
      <g transform="translate(71.8675 636.07875)scale(0.16 -0.16)">
       <use xlink:href="#DejaVuSans-Bold-30"/>
      </g>
     </g>
    </g>
    <g id="ytick_2">
     <g id="line2d_8">
      <g>
       <use style="stroke:#000000;stroke-width:0.8;" x="90" xlink:href="#m199f1a6f9e" y="527.819549"/>
      </g>
     </g>
     <g id="text_9">
      <!-- 50 -->
      <g transform="translate(60.735 533.898299)scale(0.16 -0.16)">
       <use xlink:href="#DejaVuSans-Bold-35"/>
       <use x="69.580078" xlink:href="#DejaVuSans-Bold-30"/>
      </g>
     </g>
    </g>
    <g id="ytick_3">
     <g id="line2d_9">
      <g>
       <use style="stroke:#000000;stroke-width:0.8;" x="90" xlink:href="#m199f1a6f9e" y="425.639098"/>
      </g>
     </g>
     <g id="text_10">
      <!-- 100 -->
      <g transform="translate(49.6025 431.717848)scale(0.16 -0.16)">
       <use xlink:href="#DejaVuSans-Bold-31"/>
       <use x="69.580078" xlink:href="#DejaVuSans-Bold-30"/>
       <use x="139.160156" xlink:href="#DejaVuSans-Bold-30"/>
      </g>
     </g>
    </g>
    <g id="ytick_4">
     <g id="line2d_10">
      <g>
       <use style="stroke:#000000;stroke-width:0.8;" x="90" xlink:href="#m199f1a6f9e" y="323.458647"/>
      </g>
     </g>
     <g id="text_11">
      <!-- 150 -->
      <g transform="translate(49.6025 329.537397)scale(0.16 -0.16)">
       <use xlink:href="#DejaVuSans-Bold-31"/>
       <use x="69.580078" xlink:href="#DejaVuSans-Bold-35"/>
       <use x="139.160156" xlink:href="#DejaVuSans-Bold-30"/>
      </g>
     </g>
    </g>
    <g id="ytick_5">
     <g id="line2d_11">
      <g>
       <use style="stroke:#000000;stroke-width:0.8;" x="90" xlink:href="#m199f1a6f9e" y="221.278195"/>
      </g>
     </g>
     <g id="text_12">
      <!-- 200 -->
      <g transform="translate(49.6025 227.356945)scale(0.16 -0.16)">
       <use xlink:href="#DejaVuSans-Bold-32"/>
       <use x="69.580078" xlink:href="#DejaVuSans-Bold-30"/>
       <use x="139.160156" xlink:href="#DejaVuSans-Bold-30"/>
      </g>
     </g>
    </g>
    <g id="ytick_6">
     <g id="line2d_12">
      <g>
       <use style="stroke:#000000;stroke-width:0.8;" x="90" xlink:href="#m199f1a6f9e" y="119.097744"/>
      </g>
     </g>
     <g id="text_13">
      <!-- 250 -->
      <g transform="translate(49.6025 125.176494)scale(0.16 -0.16)">
       <use xlink:href="#DejaVuSans-Bold-32"/>
       <use x="69.580078" xlink:href="#DejaVuSans-Bold-35"/>
       <use x="139.160156" xlink:href="#DejaVuSans-Bold-30"/>
      </g>
     </g>
    </g>
    <g id="text_14">
     <!-- #Shapelets (I) -->
     <defs>
      <path d="M 9.8125 72.90625 
L 19.671875 72.90625 
L 19.671875 0 
L 9.8125 0 
z
" id="DejaVuSans-49"/>
     </defs>
     <g transform="translate(42.275 415.55)rotate(-90)scale(0.16 -0.16)">
      <use xlink:href="#DejaVuSans-23"/>
      <use x="83.789062" xlink:href="#DejaVuSans-53"/>
      <use x="147.265625" xlink:href="#DejaVuSans-68"/>
      <use x="210.644531" xlink:href="#DejaVuSans-61"/>
      <use x="271.923828" xlink:href="#DejaVuSans-70"/>
      <use x="335.400391" xlink:href="#DejaVuSans-65"/>
      <use x="396.923828" xlink:href="#DejaVuSans-6c"/>
      <use x="424.707031" xlink:href="#DejaVuSans-65"/>
      <use x="486.230469" xlink:href="#DejaVuSans-74"/>
      <use x="525.439453" xlink:href="#DejaVuSans-73"/>
      <use x="577.539062" xlink:href="#DejaVuSans-20"/>
      <use x="609.326172" xlink:href="#DejaVuSans-28"/>
      <use x="648.339844" xlink:href="#DejaVuSans-49"/>
      <use x="677.832031" xlink:href="#DejaVuSans-29"/>
     </g>
    </g>
   </g>
   <g id="line2d_13">
    <path clip-path="url(#p5daa7cf34f)" d="M 90 630 
L 95.636364 624.509091 
L 101.272727 619.018182 
L 106.909091 613.527273 
L 112.545455 608.036364 
L 118.181818 602.545455 
L 123.818182 597.054545 
L 129.454545 591.563636 
L 135.090909 586.072727 
L 140.727273 580.581818 
L 146.363636 575.090909 
L 152 569.6 
L 157.636364 564.109091 
L 163.272727 558.618182 
L 168.909091 553.127273 
L 174.545455 547.636364 
L 180.181818 542.145455 
L 185.818182 536.654545 
L 191.454545 531.163636 
L 197.090909 525.672727 
L 202.727273 520.181818 
L 208.363636 514.690909 
L 214 509.2 
L 219.636364 503.709091 
L 225.272727 498.218182 
L 230.909091 492.727273 
L 236.545455 487.236364 
L 242.181818 481.745455 
L 247.818182 476.254545 
L 253.454545 470.763636 
L 259.090909 465.272727 
L 264.727273 459.781818 
L 270.363636 454.290909 
L 276 448.8 
L 281.636364 443.309091 
L 287.272727 437.818182 
L 292.909091 432.327273 
L 298.545455 426.836364 
L 304.181818 421.345455 
L 309.818182 415.854545 
L 315.454545 410.363636 
L 321.090909 404.872727 
L 326.727273 399.381818 
L 332.363636 393.890909 
L 338 388.4 
L 343.636364 382.909091 
L 349.272727 377.418182 
L 354.909091 371.927273 
L 360.545455 366.436364 
L 366.181818 360.945455 
L 371.818182 355.454545 
L 377.454545 349.963636 
L 383.090909 344.472727 
L 388.727273 338.981818 
L 394.363636 333.490909 
L 400 328 
L 405.636364 322.509091 
L 411.272727 317.018182 
L 416.909091 311.527273 
L 422.545455 306.036364 
L 428.181818 300.545455 
L 433.818182 295.054545 
L 439.454545 289.563636 
L 445.090909 284.072727 
L 450.727273 278.581818 
L 456.363636 273.090909 
L 462 267.6 
L 467.636364 262.109091 
L 473.272727 256.618182 
L 478.909091 251.127273 
L 484.545455 245.636364 
L 490.181818 240.145455 
L 495.818182 234.654545 
L 501.454545 229.163636 
L 507.090909 223.672727 
L 512.727273 218.181818 
L 518.363636 212.690909 
L 524 207.2 
L 529.636364 201.709091 
L 535.272727 196.218182 
L 540.909091 190.727273 
L 546.545455 185.236364 
L 552.181818 179.745455 
L 557.818182 174.254545 
L 563.454545 168.763636 
L 569.090909 163.272727 
L 574.727273 157.781818 
L 580.363636 152.290909 
L 586 146.8 
L 591.636364 141.309091 
L 597.272727 135.818182 
L 602.909091 130.327273 
L 608.545455 124.836364 
L 614.181818 119.345455 
L 619.818182 113.854545 
L 625.454545 108.363636 
L 631.090909 102.872727 
L 636.727273 97.381818 
L 642.363636 91.890909 
L 648 86.4 
" style="fill:none;stroke:#1f77b4;stroke-dasharray:7.5,7.5;stroke-dashoffset:0;stroke-width:1.5;"/>
   </g>
   <g id="patch_3">
    <path d="M 90 630 
L 90 86.4 
" style="fill:none;stroke:#000000;stroke-linecap:square;stroke-linejoin:miter;stroke-width:0.8;"/>
   </g>
   <g id="patch_4">
    <path d="M 648 630 
L 648 86.4 
" style="fill:none;stroke:#000000;stroke-linecap:square;stroke-linejoin:miter;stroke-width:0.8;"/>
   </g>
   <g id="patch_5">
    <path d="M 90 630 
L 648 630 
" style="fill:none;stroke:#000000;stroke-linecap:square;stroke-linejoin:miter;stroke-width:0.8;"/>
   </g>
   <g id="patch_6">
    <path d="M 90 86.4 
L 648 86.4 
" style="fill:none;stroke:#000000;stroke-linecap:square;stroke-linejoin:miter;stroke-width:0.8;"/>
   </g>
   <g id="text_15">
    <!-- ShapeletSim -->
    <defs>
     <path d="M 59.90625 70.609375 
L 59.90625 55.171875 
Q 53.90625 57.859375 48.1875 59.21875 
Q 42.484375 60.59375 37.40625 60.59375 
Q 30.671875 60.59375 27.4375 58.734375 
Q 24.21875 56.890625 24.21875 52.984375 
Q 24.21875 50.046875 26.390625 48.40625 
Q 28.5625 46.78125 34.28125 45.609375 
L 42.28125 44 
Q 54.4375 41.546875 59.5625 36.5625 
Q 64.703125 31.59375 64.703125 22.40625 
Q 64.703125 10.359375 57.546875 4.46875 
Q 50.390625 -1.421875 35.6875 -1.421875 
Q 28.765625 -1.421875 21.78125 -0.09375 
Q 14.796875 1.21875 7.8125 3.8125 
L 7.8125 19.671875 
Q 14.796875 15.96875 21.3125 14.078125 
Q 27.828125 12.203125 33.890625 12.203125 
Q 40.046875 12.203125 43.3125 14.25 
Q 46.578125 16.3125 46.578125 20.125 
Q 46.578125 23.53125 44.359375 25.390625 
Q 42.140625 27.25 35.5 28.71875 
L 28.21875 30.328125 
Q 17.28125 32.671875 12.21875 37.796875 
Q 7.171875 42.921875 7.171875 51.609375 
Q 7.171875 62.5 14.203125 68.359375 
Q 21.234375 74.21875 34.421875 74.21875 
Q 40.4375 74.21875 46.78125 73.3125 
Q 53.125 72.40625 59.90625 70.609375 
z
" id="DejaVuSans-Bold-53"/>
     <path d="M 63.375 33.296875 
L 63.375 0 
L 45.796875 0 
L 45.796875 5.421875 
L 45.796875 25.390625 
Q 45.796875 32.5625 45.484375 35.25 
Q 45.171875 37.9375 44.390625 39.203125 
Q 43.359375 40.921875 41.59375 41.875 
Q 39.84375 42.828125 37.59375 42.828125 
Q 32.125 42.828125 29 38.59375 
Q 25.875 34.375 25.875 26.90625 
L 25.875 0 
L 8.40625 0 
L 8.40625 75.984375 
L 25.875 75.984375 
L 25.875 46.6875 
Q 29.828125 51.46875 34.265625 53.734375 
Q 38.71875 56 44.09375 56 
Q 53.5625 56 58.46875 50.1875 
Q 63.375 44.390625 63.375 33.296875 
z
" id="DejaVuSans-Bold-68"/>
     <path d="M 32.90625 24.609375 
Q 27.4375 24.609375 24.671875 22.75 
Q 21.921875 20.90625 21.921875 17.28125 
Q 21.921875 13.96875 24.140625 12.078125 
Q 26.375 10.203125 30.328125 10.203125 
Q 35.25 10.203125 38.625 13.734375 
Q 42 17.28125 42 22.609375 
L 42 24.609375 
z
M 59.625 31.203125 
L 59.625 0 
L 42 0 
L 42 8.109375 
Q 38.484375 3.125 34.078125 0.84375 
Q 29.6875 -1.421875 23.390625 -1.421875 
Q 14.890625 -1.421875 9.59375 3.53125 
Q 4.296875 8.5 4.296875 16.40625 
Q 4.296875 26.03125 10.90625 30.515625 
Q 17.53125 35.015625 31.6875 35.015625 
L 42 35.015625 
L 42 36.375 
Q 42 40.53125 38.71875 42.453125 
Q 35.453125 44.390625 28.515625 44.390625 
Q 22.90625 44.390625 18.0625 43.265625 
Q 13.234375 42.140625 9.078125 39.890625 
L 9.078125 53.21875 
Q 14.703125 54.59375 20.359375 55.296875 
Q 26.03125 56 31.6875 56 
Q 46.484375 56 53.046875 50.171875 
Q 59.625 44.34375 59.625 31.203125 
z
" id="DejaVuSans-Bold-61"/>
     <path d="M 25.875 7.90625 
L 25.875 -20.796875 
L 8.40625 -20.796875 
L 8.40625 54.6875 
L 25.875 54.6875 
L 25.875 46.6875 
Q 29.5 51.46875 33.890625 53.734375 
Q 38.28125 56 44 56 
Q 54.109375 56 60.59375 47.96875 
Q 67.09375 39.9375 67.09375 27.296875 
Q 67.09375 14.65625 60.59375 6.609375 
Q 54.109375 -1.421875 44 -1.421875 
Q 38.28125 -1.421875 33.890625 0.84375 
Q 29.5 3.125 25.875 7.90625 
z
M 37.5 43.3125 
Q 31.890625 43.3125 28.875 39.1875 
Q 25.875 35.0625 25.875 27.296875 
Q 25.875 19.53125 28.875 15.40625 
Q 31.890625 11.28125 37.5 11.28125 
Q 43.109375 11.28125 46.0625 15.375 
Q 49.03125 19.484375 49.03125 27.296875 
Q 49.03125 35.109375 46.0625 39.203125 
Q 43.109375 43.3125 37.5 43.3125 
z
" id="DejaVuSans-Bold-70"/>
     <path d="M 62.984375 27.484375 
L 62.984375 22.515625 
L 22.125 22.515625 
Q 22.75 16.359375 26.5625 13.28125 
Q 30.375 10.203125 37.203125 10.203125 
Q 42.71875 10.203125 48.5 11.84375 
Q 54.296875 13.484375 60.40625 16.796875 
L 60.40625 3.328125 
Q 54.203125 0.984375 48 -0.21875 
Q 41.796875 -1.421875 35.59375 -1.421875 
Q 20.75 -1.421875 12.515625 6.125 
Q 4.296875 13.671875 4.296875 27.296875 
Q 4.296875 40.671875 12.375 48.328125 
Q 20.453125 56 34.625 56 
Q 47.515625 56 55.25 48.234375 
Q 62.984375 40.484375 62.984375 27.484375 
z
M 45.015625 33.296875 
Q 45.015625 38.28125 42.109375 41.328125 
Q 39.203125 44.390625 34.515625 44.390625 
Q 29.4375 44.390625 26.265625 41.53125 
Q 23.09375 38.671875 22.3125 33.296875 
z
" id="DejaVuSans-Bold-65"/>
     <path d="M 8.40625 75.984375 
L 25.875 75.984375 
L 25.875 0 
L 8.40625 0 
z
" id="DejaVuSans-Bold-6c"/>
     <path d="M 27.484375 70.21875 
L 27.484375 54.6875 
L 45.515625 54.6875 
L 45.515625 42.1875 
L 27.484375 42.1875 
L 27.484375 19 
Q 27.484375 15.1875 29 13.84375 
Q 30.515625 12.5 35.015625 12.5 
L 44 12.5 
L 44 0 
L 29 0 
Q 18.65625 0 14.328125 4.3125 
Q 10.015625 8.640625 10.015625 19 
L 10.015625 42.1875 
L 1.3125 42.1875 
L 1.3125 54.6875 
L 10.015625 54.6875 
L 10.015625 70.21875 
z
" id="DejaVuSans-Bold-74"/>
     <path d="M 8.40625 54.6875 
L 25.875 54.6875 
L 25.875 0 
L 8.40625 0 
z
M 8.40625 75.984375 
L 25.875 75.984375 
L 25.875 61.71875 
L 8.40625 61.71875 
z
" id="DejaVuSans-Bold-69"/>
     <path d="M 59.078125 45.609375 
Q 62.40625 50.6875 66.96875 53.34375 
Q 71.53125 56 77 56 
Q 86.421875 56 91.359375 50.1875 
Q 96.296875 44.390625 96.296875 33.296875 
L 96.296875 0 
L 78.71875 0 
L 78.71875 28.515625 
Q 78.765625 29.15625 78.78125 29.828125 
Q 78.8125 30.515625 78.8125 31.78125 
Q 78.8125 37.59375 77.09375 40.203125 
Q 75.390625 42.828125 71.578125 42.828125 
Q 66.609375 42.828125 63.890625 38.71875 
Q 61.1875 34.625 61.078125 26.859375 
L 61.078125 0 
L 43.5 0 
L 43.5 28.515625 
Q 43.5 37.59375 41.9375 40.203125 
Q 40.375 42.828125 36.375 42.828125 
Q 31.34375 42.828125 28.609375 38.703125 
Q 25.875 34.578125 25.875 26.90625 
L 25.875 0 
L 8.296875 0 
L 8.296875 54.6875 
L 25.875 54.6875 
L 25.875 46.6875 
Q 29.109375 51.3125 33.28125 53.65625 
Q 37.453125 56 42.484375 56 
Q 48.140625 56 52.484375 53.265625 
Q 56.84375 50.53125 59.078125 45.609375 
z
" id="DejaVuSans-Bold-6d"/>
    </defs>
    <g style="opacity:0.5;" transform="translate(92.097744 572.778947)scale(0.08 -0.08)">
     <use xlink:href="#DejaVuSans-Bold-53"/>
     <use x="72.021484" xlink:href="#DejaVuSans-Bold-68"/>
     <use x="143.212891" xlink:href="#DejaVuSans-Bold-61"/>
     <use x="210.693359" xlink:href="#DejaVuSans-Bold-70"/>
     <use x="282.275391" xlink:href="#DejaVuSans-Bold-65"/>
     <use x="350.097656" xlink:href="#DejaVuSans-Bold-6c"/>
     <use x="384.375" xlink:href="#DejaVuSans-Bold-65"/>
     <use x="452.197266" xlink:href="#DejaVuSans-Bold-74"/>
     <use x="500" xlink:href="#DejaVuSans-Bold-53"/>
     <use x="572.021484" xlink:href="#DejaVuSans-Bold-69"/>
     <use x="606.298828" xlink:href="#DejaVuSans-Bold-6d"/>
    </g>
   </g>
   <g id="text_16">
    <!-- DistalPhalanxTW -->
    <defs>
     <path d="M 27.984375 58.6875 
L 27.984375 14.203125 
L 34.71875 14.203125 
Q 46.234375 14.203125 52.3125 19.921875 
Q 58.40625 25.640625 58.40625 36.53125 
Q 58.40625 47.359375 52.34375 53.015625 
Q 46.296875 58.6875 34.71875 58.6875 
z
M 9.1875 72.90625 
L 29 72.90625 
Q 45.609375 72.90625 53.734375 70.53125 
Q 61.859375 68.171875 67.671875 62.5 
Q 72.796875 57.5625 75.28125 51.109375 
Q 77.78125 44.671875 77.78125 36.53125 
Q 77.78125 28.265625 75.28125 21.796875 
Q 72.796875 15.328125 67.671875 10.40625 
Q 61.8125 4.734375 53.609375 2.359375 
Q 45.40625 0 29 0 
L 9.1875 0 
z
" id="DejaVuSans-Bold-44"/>
     <path d="M 51.125 52.984375 
L 51.125 39.703125 
Q 45.515625 42.046875 40.28125 43.21875 
Q 35.0625 44.390625 30.421875 44.390625 
Q 25.4375 44.390625 23.015625 43.140625 
Q 20.609375 41.890625 20.609375 39.3125 
Q 20.609375 37.203125 22.4375 36.078125 
Q 24.265625 34.96875 29 34.421875 
L 32.078125 33.984375 
Q 45.515625 32.28125 50.140625 28.375 
Q 54.78125 24.46875 54.78125 16.109375 
Q 54.78125 7.375 48.328125 2.96875 
Q 41.890625 -1.421875 29.109375 -1.421875 
Q 23.6875 -1.421875 17.890625 -0.5625 
Q 12.109375 0.296875 6 2 
L 6 15.28125 
Q 11.234375 12.75 16.71875 11.46875 
Q 22.21875 10.203125 27.875 10.203125 
Q 33.015625 10.203125 35.59375 11.609375 
Q 38.1875 13.03125 38.1875 15.828125 
Q 38.1875 18.171875 36.40625 19.3125 
Q 34.625 20.453125 29.296875 21.09375 
L 26.21875 21.484375 
Q 14.546875 22.953125 9.859375 26.90625 
Q 5.171875 30.859375 5.171875 38.921875 
Q 5.171875 47.609375 11.125 51.796875 
Q 17.09375 56 29.390625 56 
Q 34.234375 56 39.546875 55.265625 
Q 44.875 54.546875 51.125 52.984375 
z
" id="DejaVuSans-Bold-73"/>
     <path d="M 9.1875 72.90625 
L 40.375 72.90625 
Q 54.296875 72.90625 61.734375 66.71875 
Q 69.1875 60.546875 69.1875 49.125 
Q 69.1875 37.640625 61.734375 31.46875 
Q 54.296875 25.296875 40.375 25.296875 
L 27.984375 25.296875 
L 27.984375 0 
L 9.1875 0 
z
M 27.984375 59.28125 
L 27.984375 38.921875 
L 38.375 38.921875 
Q 43.84375 38.921875 46.828125 41.578125 
Q 49.8125 44.234375 49.8125 49.125 
Q 49.8125 54 46.828125 56.640625 
Q 43.84375 59.28125 38.375 59.28125 
z
" id="DejaVuSans-Bold-50"/>
     <path d="M 63.375 33.296875 
L 63.375 0 
L 45.796875 0 
L 45.796875 5.421875 
L 45.796875 25.484375 
Q 45.796875 32.5625 45.484375 35.25 
Q 45.171875 37.9375 44.390625 39.203125 
Q 43.359375 40.921875 41.59375 41.875 
Q 39.84375 42.828125 37.59375 42.828125 
Q 32.125 42.828125 29 38.59375 
Q 25.875 34.375 25.875 26.90625 
L 25.875 0 
L 8.40625 0 
L 8.40625 54.6875 
L 25.875 54.6875 
L 25.875 46.6875 
Q 29.828125 51.46875 34.265625 53.734375 
Q 38.71875 56 44.09375 56 
Q 53.5625 56 58.46875 50.1875 
Q 63.375 44.390625 63.375 33.296875 
z
" id="DejaVuSans-Bold-6e"/>
     <path d="M 22.21875 27.984375 
L 2.484375 54.6875 
L 21 54.6875 
L 32.171875 38.484375 
L 43.5 54.6875 
L 62.015625 54.6875 
L 42.28125 28.078125 
L 62.984375 0 
L 44.484375 0 
L 32.171875 17.28125 
L 20.015625 0 
L 1.515625 0 
z
" id="DejaVuSans-Bold-78"/>
     <path d="M 0.484375 72.90625 
L 67.671875 72.90625 
L 67.671875 58.6875 
L 43.5 58.6875 
L 43.5 0 
L 24.703125 0 
L 24.703125 58.6875 
L 0.484375 58.6875 
z
" id="DejaVuSans-Bold-54"/>
     <path d="M 2.984375 72.90625 
L 21 72.90625 
L 33.59375 19.921875 
L 46.09375 72.90625 
L 64.203125 72.90625 
L 76.703125 19.921875 
L 89.3125 72.90625 
L 107.171875 72.90625 
L 89.984375 0 
L 68.3125 0 
L 55.078125 55.421875 
L 42 0 
L 20.3125 0 
z
" id="DejaVuSans-Bold-57"/>
    </defs>
    <g style="opacity:0.5;" transform="translate(163.421053 548.255639)scale(0.08 -0.08)">
     <use xlink:href="#DejaVuSans-Bold-44"/>
     <use x="83.007812" xlink:href="#DejaVuSans-Bold-69"/>
     <use x="117.285156" xlink:href="#DejaVuSans-Bold-73"/>
     <use x="176.806641" xlink:href="#DejaVuSans-Bold-74"/>
     <use x="224.609375" xlink:href="#DejaVuSans-Bold-61"/>
     <use x="292.089844" xlink:href="#DejaVuSans-Bold-6c"/>
     <use x="326.367188" xlink:href="#DejaVuSans-Bold-50"/>
     <use x="399.658203" xlink:href="#DejaVuSans-Bold-68"/>
     <use x="470.849609" xlink:href="#DejaVuSans-Bold-61"/>
     <use x="538.330078" xlink:href="#DejaVuSans-Bold-6c"/>
     <use x="572.607422" xlink:href="#DejaVuSans-Bold-61"/>
     <use x="640.087891" xlink:href="#DejaVuSans-Bold-6e"/>
     <use x="711.279297" xlink:href="#DejaVuSans-Bold-78"/>
     <use x="775.78125" xlink:href="#DejaVuSans-Bold-54"/>
     <use x="843.994141" xlink:href="#DejaVuSans-Bold-57"/>
    </g>
   </g>
   <g id="text_17">
    <!-- ToeSegmentation2 -->
    <defs>
     <path d="M 34.421875 43.5 
Q 28.609375 43.5 25.5625 39.328125 
Q 22.515625 35.15625 22.515625 27.296875 
Q 22.515625 19.4375 25.5625 15.25 
Q 28.609375 11.078125 34.421875 11.078125 
Q 40.140625 11.078125 43.15625 15.25 
Q 46.1875 19.4375 46.1875 27.296875 
Q 46.1875 35.15625 43.15625 39.328125 
Q 40.140625 43.5 34.421875 43.5 
z
M 34.421875 56 
Q 48.53125 56 56.46875 48.375 
Q 64.40625 40.765625 64.40625 27.296875 
Q 64.40625 13.8125 56.46875 6.1875 
Q 48.53125 -1.421875 34.421875 -1.421875 
Q 20.265625 -1.421875 12.28125 6.1875 
Q 4.296875 13.8125 4.296875 27.296875 
Q 4.296875 40.765625 12.28125 48.375 
Q 20.265625 56 34.421875 56 
z
" id="DejaVuSans-Bold-6f"/>
     <path d="M 45.609375 9.28125 
Q 42 4.5 37.640625 2.25 
Q 33.296875 0 27.59375 0 
Q 17.578125 0 11.03125 7.875 
Q 4.5 15.765625 4.5 27.984375 
Q 4.5 40.234375 11.03125 48.0625 
Q 17.578125 55.90625 27.59375 55.90625 
Q 33.296875 55.90625 37.640625 53.65625 
Q 42 51.421875 45.609375 46.578125 
L 45.609375 54.6875 
L 63.1875 54.6875 
L 63.1875 5.515625 
Q 63.1875 -7.671875 54.859375 -14.625 
Q 46.53125 -21.578125 30.71875 -21.578125 
Q 25.59375 -21.578125 20.796875 -20.796875 
Q 16.015625 -20.015625 11.1875 -18.40625 
L 11.1875 -4.78125 
Q 15.765625 -7.421875 20.15625 -8.71875 
Q 24.5625 -10.015625 29 -10.015625 
Q 37.59375 -10.015625 41.59375 -6.25 
Q 45.609375 -2.484375 45.609375 5.515625 
z
M 34.078125 43.3125 
Q 28.65625 43.3125 25.625 39.296875 
Q 22.609375 35.296875 22.609375 27.984375 
Q 22.609375 20.453125 25.53125 16.578125 
Q 28.46875 12.703125 34.078125 12.703125 
Q 39.546875 12.703125 42.578125 16.703125 
Q 45.609375 20.703125 45.609375 27.984375 
Q 45.609375 35.296875 42.578125 39.296875 
Q 39.546875 43.3125 34.078125 43.3125 
z
" id="DejaVuSans-Bold-67"/>
    </defs>
    <g style="opacity:0.5;" transform="translate(96.293233 388.854135)scale(0.08 -0.08)">
     <use xlink:href="#DejaVuSans-Bold-54"/>
     <use x="68.009766" xlink:href="#DejaVuSans-Bold-6f"/>
     <use x="136.710938" xlink:href="#DejaVuSans-Bold-65"/>
     <use x="204.533203" xlink:href="#DejaVuSans-Bold-53"/>
     <use x="276.554688" xlink:href="#DejaVuSans-Bold-65"/>
     <use x="344.376953" xlink:href="#DejaVuSans-Bold-67"/>
     <use x="415.958984" xlink:href="#DejaVuSans-Bold-6d"/>
     <use x="520.158203" xlink:href="#DejaVuSans-Bold-65"/>
     <use x="587.980469" xlink:href="#DejaVuSans-Bold-6e"/>
     <use x="659.171875" xlink:href="#DejaVuSans-Bold-74"/>
     <use x="706.974609" xlink:href="#DejaVuSans-Bold-61"/>
     <use x="774.455078" xlink:href="#DejaVuSans-Bold-74"/>
     <use x="822.257812" xlink:href="#DejaVuSans-Bold-69"/>
     <use x="856.535156" xlink:href="#DejaVuSans-Bold-6f"/>
     <use x="925.236328" xlink:href="#DejaVuSans-Bold-6e"/>
     <use x="996.427734" xlink:href="#DejaVuSans-Bold-32"/>
    </g>
   </g>
   <g id="text_18">
    <!-- ToeSegmentation1 -->
    <g style="opacity:0.5;" transform="translate(92.097744 347.981955)scale(0.08 -0.08)">
     <use xlink:href="#DejaVuSans-Bold-54"/>
     <use x="68.009766" xlink:href="#DejaVuSans-Bold-6f"/>
     <use x="136.710938" xlink:href="#DejaVuSans-Bold-65"/>
     <use x="204.533203" xlink:href="#DejaVuSans-Bold-53"/>
     <use x="276.554688" xlink:href="#DejaVuSans-Bold-65"/>
     <use x="344.376953" xlink:href="#DejaVuSans-Bold-67"/>
     <use x="415.958984" xlink:href="#DejaVuSans-Bold-6d"/>
     <use x="520.158203" xlink:href="#DejaVuSans-Bold-65"/>
     <use x="587.980469" xlink:href="#DejaVuSans-Bold-6e"/>
     <use x="659.171875" xlink:href="#DejaVuSans-Bold-74"/>
     <use x="706.974609" xlink:href="#DejaVuSans-Bold-61"/>
     <use x="774.455078" xlink:href="#DejaVuSans-Bold-74"/>
     <use x="822.257812" xlink:href="#DejaVuSans-Bold-69"/>
     <use x="856.535156" xlink:href="#DejaVuSans-Bold-6f"/>
     <use x="925.236328" xlink:href="#DejaVuSans-Bold-6e"/>
     <use x="996.427734" xlink:href="#DejaVuSans-Bold-31"/>
    </g>
   </g>
   <g id="text_19">
    <!-- TwoLeadECG -->
    <defs>
     <path d="M 3.515625 54.6875 
L 20.515625 54.6875 
L 29.6875 17 
L 38.921875 54.6875 
L 53.515625 54.6875 
L 62.703125 17.390625 
L 71.921875 54.6875 
L 88.921875 54.6875 
L 74.515625 0 
L 55.421875 0 
L 46.1875 37.59375 
L 37.015625 0 
L 17.921875 0 
z
" id="DejaVuSans-Bold-77"/>
     <path d="M 9.1875 72.90625 
L 27.984375 72.90625 
L 27.984375 14.203125 
L 60.984375 14.203125 
L 60.984375 0 
L 9.1875 0 
z
" id="DejaVuSans-Bold-4c"/>
     <path d="M 45.609375 46.6875 
L 45.609375 75.984375 
L 63.1875 75.984375 
L 63.1875 0 
L 45.609375 0 
L 45.609375 7.90625 
Q 42 3.078125 37.640625 0.828125 
Q 33.296875 -1.421875 27.59375 -1.421875 
Q 17.484375 -1.421875 10.984375 6.609375 
Q 4.5 14.65625 4.5 27.296875 
Q 4.5 39.9375 10.984375 47.96875 
Q 17.484375 56 27.59375 56 
Q 33.25 56 37.625 53.734375 
Q 42 51.46875 45.609375 46.6875 
z
M 34.078125 11.28125 
Q 39.703125 11.28125 42.65625 15.375 
Q 45.609375 19.484375 45.609375 27.296875 
Q 45.609375 35.109375 42.65625 39.203125 
Q 39.703125 43.3125 34.078125 43.3125 
Q 28.515625 43.3125 25.5625 39.203125 
Q 22.609375 35.109375 22.609375 27.296875 
Q 22.609375 19.484375 25.5625 15.375 
Q 28.515625 11.28125 34.078125 11.28125 
z
" id="DejaVuSans-Bold-64"/>
     <path d="M 9.1875 72.90625 
L 59.90625 72.90625 
L 59.90625 58.6875 
L 27.984375 58.6875 
L 27.984375 45.125 
L 58.015625 45.125 
L 58.015625 30.90625 
L 27.984375 30.90625 
L 27.984375 14.203125 
L 60.984375 14.203125 
L 60.984375 0 
L 9.1875 0 
z
" id="DejaVuSans-Bold-45"/>
     <path d="M 67 4 
Q 61.8125 1.3125 56.203125 -0.046875 
Q 50.59375 -1.421875 44.484375 -1.421875 
Q 26.265625 -1.421875 15.625 8.765625 
Q 4.984375 18.953125 4.984375 36.375 
Q 4.984375 53.859375 15.625 64.03125 
Q 26.265625 74.21875 44.484375 74.21875 
Q 50.59375 74.21875 56.203125 72.84375 
Q 61.8125 71.484375 67 68.796875 
L 67 53.71875 
Q 61.765625 57.28125 56.6875 58.9375 
Q 51.609375 60.59375 46 60.59375 
Q 35.9375 60.59375 30.171875 54.140625 
Q 24.421875 47.703125 24.421875 36.375 
Q 24.421875 25.09375 30.171875 18.640625 
Q 35.9375 12.203125 46 12.203125 
Q 51.609375 12.203125 56.6875 13.859375 
Q 61.765625 15.53125 67 19.09375 
z
" id="DejaVuSans-Bold-43"/>
     <path d="M 74.703125 5.421875 
Q 67.671875 2 60.109375 0.28125 
Q 52.546875 -1.421875 44.484375 -1.421875 
Q 26.265625 -1.421875 15.625 8.765625 
Q 4.984375 18.953125 4.984375 36.375 
Q 4.984375 54 15.8125 64.109375 
Q 26.65625 74.21875 45.515625 74.21875 
Q 52.78125 74.21875 59.4375 72.84375 
Q 66.109375 71.484375 72.015625 68.796875 
L 72.015625 53.71875 
Q 65.921875 57.171875 59.890625 58.875 
Q 53.859375 60.59375 47.796875 60.59375 
Q 36.578125 60.59375 30.5 54.3125 
Q 24.421875 48.046875 24.421875 36.375 
Q 24.421875 24.8125 30.28125 18.5 
Q 36.140625 12.203125 46.921875 12.203125 
Q 49.859375 12.203125 52.375 12.5625 
Q 54.890625 12.9375 56.890625 13.71875 
L 56.890625 27.875 
L 45.40625 27.875 
L 45.40625 40.484375 
L 74.703125 40.484375 
z
" id="DejaVuSans-Bold-47"/>
    </defs>
    <g style="opacity:0.5;" transform="translate(92.097744 546.21203)scale(0.08 -0.08)">
     <use xlink:href="#DejaVuSans-Bold-54"/>
     <use x="68.041016" xlink:href="#DejaVuSans-Bold-77"/>
     <use x="160.423828" xlink:href="#DejaVuSans-Bold-6f"/>
     <use x="229.125" xlink:href="#DejaVuSans-Bold-4c"/>
     <use x="292.845703" xlink:href="#DejaVuSans-Bold-65"/>
     <use x="360.667969" xlink:href="#DejaVuSans-Bold-61"/>
     <use x="428.148438" xlink:href="#DejaVuSans-Bold-64"/>
     <use x="499.730469" xlink:href="#DejaVuSans-Bold-45"/>
     <use x="568.041016" xlink:href="#DejaVuSans-Bold-43"/>
     <use x="641.429688" xlink:href="#DejaVuSans-Bold-47"/>
    </g>
   </g>
   <g id="text_20">
    <!-- MiddlePhalanxTW -->
    <defs>
     <path d="M 9.1875 72.90625 
L 33.109375 72.90625 
L 49.703125 33.890625 
L 66.40625 72.90625 
L 90.28125 72.90625 
L 90.28125 0 
L 72.515625 0 
L 72.515625 53.328125 
L 55.71875 14.015625 
L 43.796875 14.015625 
L 27 53.328125 
L 27 0 
L 9.1875 0 
z
" id="DejaVuSans-Bold-4d"/>
    </defs>
    <g style="opacity:0.5;" transform="translate(201.180451 548.255639)scale(0.08 -0.08)">
     <use xlink:href="#DejaVuSans-Bold-4d"/>
     <use x="99.511719" xlink:href="#DejaVuSans-Bold-69"/>
     <use x="133.789062" xlink:href="#DejaVuSans-Bold-64"/>
     <use x="205.371094" xlink:href="#DejaVuSans-Bold-64"/>
     <use x="276.953125" xlink:href="#DejaVuSans-Bold-6c"/>
     <use x="311.230469" xlink:href="#DejaVuSans-Bold-65"/>
     <use x="379.052734" xlink:href="#DejaVuSans-Bold-50"/>
     <use x="452.34375" xlink:href="#DejaVuSans-Bold-68"/>
     <use x="523.535156" xlink:href="#DejaVuSans-Bold-61"/>
     <use x="591.015625" xlink:href="#DejaVuSans-Bold-6c"/>
     <use x="625.292969" xlink:href="#DejaVuSans-Bold-61"/>
     <use x="692.773438" xlink:href="#DejaVuSans-Bold-6e"/>
     <use x="763.964844" xlink:href="#DejaVuSans-Bold-78"/>
     <use x="828.466797" xlink:href="#DejaVuSans-Bold-54"/>
     <use x="896.679688" xlink:href="#DejaVuSans-Bold-57"/>
    </g>
   </g>
   <g id="text_21">
    <!-- DistalPhalanxOutlineAgeGroup -->
    <defs>
     <path d="M 42.484375 60.59375 
Q 33.890625 60.59375 29.15625 54.25 
Q 24.421875 47.90625 24.421875 36.375 
Q 24.421875 24.90625 29.15625 18.546875 
Q 33.890625 12.203125 42.484375 12.203125 
Q 51.125 12.203125 55.859375 18.546875 
Q 60.59375 24.90625 60.59375 36.375 
Q 60.59375 47.90625 55.859375 54.25 
Q 51.125 60.59375 42.484375 60.59375 
z
M 42.484375 74.21875 
Q 60.0625 74.21875 70.015625 64.15625 
Q 79.984375 54.109375 79.984375 36.375 
Q 79.984375 18.703125 70.015625 8.640625 
Q 60.0625 -1.421875 42.484375 -1.421875 
Q 24.953125 -1.421875 14.96875 8.640625 
Q 4.984375 18.703125 4.984375 36.375 
Q 4.984375 54.109375 14.96875 64.15625 
Q 24.953125 74.21875 42.484375 74.21875 
z
" id="DejaVuSans-Bold-4f"/>
     <path d="M 7.8125 21.296875 
L 7.8125 54.6875 
L 25.390625 54.6875 
L 25.390625 49.21875 
Q 25.390625 44.78125 25.34375 38.0625 
Q 25.296875 31.34375 25.296875 29.109375 
Q 25.296875 22.515625 25.640625 19.609375 
Q 25.984375 16.703125 26.8125 15.375 
Q 27.875 13.671875 29.609375 12.734375 
Q 31.34375 11.8125 33.59375 11.8125 
Q 39.0625 11.8125 42.1875 16.015625 
Q 45.3125 20.21875 45.3125 27.6875 
L 45.3125 54.6875 
L 62.796875 54.6875 
L 62.796875 0 
L 45.3125 0 
L 45.3125 7.90625 
Q 41.359375 3.125 36.9375 0.84375 
Q 32.515625 -1.421875 27.203125 -1.421875 
Q 17.71875 -1.421875 12.765625 4.390625 
Q 7.8125 10.203125 7.8125 21.296875 
z
" id="DejaVuSans-Bold-75"/>
     <path d="M 53.421875 13.28125 
L 24.03125 13.28125 
L 19.390625 0 
L 0.484375 0 
L 27.484375 72.90625 
L 49.90625 72.90625 
L 76.90625 0 
L 58.015625 0 
z
M 28.71875 26.8125 
L 48.6875 26.8125 
L 38.71875 55.8125 
z
" id="DejaVuSans-Bold-41"/>
     <path d="M 49.03125 39.796875 
Q 46.734375 40.875 44.453125 41.375 
Q 42.1875 41.890625 39.890625 41.890625 
Q 33.15625 41.890625 29.515625 37.5625 
Q 25.875 33.25 25.875 25.203125 
L 25.875 0 
L 8.40625 0 
L 8.40625 54.6875 
L 25.875 54.6875 
L 25.875 45.703125 
Q 29.25 51.078125 33.609375 53.53125 
Q 37.984375 56 44.09375 56 
Q 44.96875 56 45.984375 55.921875 
Q 47.015625 55.859375 48.96875 55.609375 
z
" id="DejaVuSans-Bold-72"/>
    </defs>
    <g style="opacity:0.5;" transform="translate(131.954887 548.255639)scale(0.08 -0.08)">
     <use xlink:href="#DejaVuSans-Bold-44"/>
     <use x="83.007812" xlink:href="#DejaVuSans-Bold-69"/>
     <use x="117.285156" xlink:href="#DejaVuSans-Bold-73"/>
     <use x="176.806641" xlink:href="#DejaVuSans-Bold-74"/>
     <use x="224.609375" xlink:href="#DejaVuSans-Bold-61"/>
     <use x="292.089844" xlink:href="#DejaVuSans-Bold-6c"/>
     <use x="326.367188" xlink:href="#DejaVuSans-Bold-50"/>
     <use x="399.658203" xlink:href="#DejaVuSans-Bold-68"/>
     <use x="470.849609" xlink:href="#DejaVuSans-Bold-61"/>
     <use x="538.330078" xlink:href="#DejaVuSans-Bold-6c"/>
     <use x="572.607422" xlink:href="#DejaVuSans-Bold-61"/>
     <use x="640.087891" xlink:href="#DejaVuSans-Bold-6e"/>
     <use x="711.279297" xlink:href="#DejaVuSans-Bold-78"/>
     <use x="775.78125" xlink:href="#DejaVuSans-Bold-4f"/>
     <use x="860.791016" xlink:href="#DejaVuSans-Bold-75"/>
     <use x="931.982422" xlink:href="#DejaVuSans-Bold-74"/>
     <use x="979.785156" xlink:href="#DejaVuSans-Bold-6c"/>
     <use x="1014.0625" xlink:href="#DejaVuSans-Bold-69"/>
     <use x="1048.339844" xlink:href="#DejaVuSans-Bold-6e"/>
     <use x="1119.53125" xlink:href="#DejaVuSans-Bold-65"/>
     <use x="1187.353516" xlink:href="#DejaVuSans-Bold-41"/>
     <use x="1264.746094" xlink:href="#DejaVuSans-Bold-67"/>
     <use x="1336.328125" xlink:href="#DejaVuSans-Bold-65"/>
     <use x="1404.150391" xlink:href="#DejaVuSans-Bold-47"/>
     <use x="1486.230469" xlink:href="#DejaVuSans-Bold-72"/>
     <use x="1535.546875" xlink:href="#DejaVuSans-Bold-6f"/>
     <use x="1604.248047" xlink:href="#DejaVuSans-Bold-75"/>
     <use x="1675.439453" xlink:href="#DejaVuSans-Bold-70"/>
    </g>
   </g>
   <g id="text_22">
    <!-- CBF -->
    <defs>
     <path d="M 38.375 44.671875 
Q 42.828125 44.671875 45.109375 46.625 
Q 47.40625 48.578125 47.40625 52.390625 
Q 47.40625 56.15625 45.109375 58.125 
Q 42.828125 60.109375 38.375 60.109375 
L 27.984375 60.109375 
L 27.984375 44.671875 
z
M 39.015625 12.796875 
Q 44.671875 12.796875 47.53125 15.1875 
Q 50.390625 17.578125 50.390625 22.40625 
Q 50.390625 27.15625 47.5625 29.515625 
Q 44.734375 31.890625 39.015625 31.890625 
L 27.984375 31.890625 
L 27.984375 12.796875 
z
M 56.5 39.015625 
Q 62.546875 37.25 65.859375 32.515625 
Q 69.1875 27.78125 69.1875 20.90625 
Q 69.1875 10.359375 62.0625 5.171875 
Q 54.9375 0 40.375 0 
L 9.1875 0 
L 9.1875 72.90625 
L 37.40625 72.90625 
Q 52.59375 72.90625 59.40625 68.3125 
Q 66.21875 63.71875 66.21875 53.609375 
Q 66.21875 48.296875 63.71875 44.5625 
Q 61.234375 40.828125 56.5 39.015625 
z
" id="DejaVuSans-Bold-42"/>
     <path d="M 9.1875 72.90625 
L 59.90625 72.90625 
L 59.90625 58.6875 
L 27.984375 58.6875 
L 27.984375 45.125 
L 58.015625 45.125 
L 58.015625 30.90625 
L 27.984375 30.90625 
L 27.984375 0 
L 9.1875 0 
z
" id="DejaVuSans-Bold-46"/>
    </defs>
    <g style="opacity:0.5;" transform="translate(94.195489 499.209023)scale(0.08 -0.08)">
     <use xlink:href="#DejaVuSans-Bold-43"/>
     <use x="73.388672" xlink:href="#DejaVuSans-Bold-42"/>
     <use x="149.609375" xlink:href="#DejaVuSans-Bold-46"/>
    </g>
   </g>
   <g id="text_23">
    <!-- SonyAIBORobotSurface2 -->
    <defs>
     <path d="M 1.21875 54.6875 
L 18.703125 54.6875 
L 33.40625 17.578125 
L 45.90625 54.6875 
L 63.375 54.6875 
L 40.375 -5.171875 
Q 36.921875 -14.3125 32.296875 -17.9375 
Q 27.6875 -21.578125 20.125 -21.578125 
L 10.015625 -21.578125 
L 10.015625 -10.109375 
L 15.484375 -10.109375 
Q 19.921875 -10.109375 21.9375 -8.6875 
Q 23.96875 -7.28125 25.09375 -3.609375 
L 25.59375 -2.09375 
z
" id="DejaVuSans-Bold-79"/>
     <path d="M 9.1875 72.90625 
L 27.984375 72.90625 
L 27.984375 0 
L 9.1875 0 
z
" id="DejaVuSans-Bold-49"/>
     <path d="M 35.890625 40.578125 
Q 41.796875 40.578125 44.359375 42.765625 
Q 46.921875 44.96875 46.921875 50 
Q 46.921875 54.984375 44.359375 57.125 
Q 41.796875 59.28125 35.890625 59.28125 
L 27.984375 59.28125 
L 27.984375 40.578125 
z
M 27.984375 27.59375 
L 27.984375 0 
L 9.1875 0 
L 9.1875 72.90625 
L 37.890625 72.90625 
Q 52.296875 72.90625 59 68.0625 
Q 65.71875 63.234375 65.71875 52.78125 
Q 65.71875 45.5625 62.21875 40.921875 
Q 58.734375 36.28125 51.703125 34.078125 
Q 55.5625 33.203125 58.609375 30.09375 
Q 61.671875 27 64.796875 20.703125 
L 75 0 
L 54.984375 0 
L 46.09375 18.109375 
Q 43.40625 23.578125 40.640625 25.578125 
Q 37.890625 27.59375 33.296875 27.59375 
z
" id="DejaVuSans-Bold-52"/>
     <path d="M 37.5 11.28125 
Q 43.109375 11.28125 46.0625 15.375 
Q 49.03125 19.484375 49.03125 27.296875 
Q 49.03125 35.109375 46.0625 39.203125 
Q 43.109375 43.3125 37.5 43.3125 
Q 31.890625 43.3125 28.875 39.1875 
Q 25.875 35.0625 25.875 27.296875 
Q 25.875 19.53125 28.875 15.40625 
Q 31.890625 11.28125 37.5 11.28125 
z
M 25.875 46.6875 
Q 29.5 51.46875 33.890625 53.734375 
Q 38.28125 56 44 56 
Q 54.109375 56 60.59375 47.96875 
Q 67.09375 39.9375 67.09375 27.296875 
Q 67.09375 14.65625 60.59375 6.609375 
Q 54.109375 -1.421875 44 -1.421875 
Q 38.28125 -1.421875 33.890625 0.84375 
Q 29.5 3.125 25.875 7.90625 
L 25.875 0 
L 8.40625 0 
L 8.40625 75.984375 
L 25.875 75.984375 
z
" id="DejaVuSans-Bold-62"/>
     <path d="M 44.390625 75.984375 
L 44.390625 64.5 
L 34.71875 64.5 
Q 31 64.5 29.53125 63.15625 
Q 28.078125 61.8125 28.078125 58.5 
L 28.078125 54.6875 
L 43.015625 54.6875 
L 43.015625 42.1875 
L 28.078125 42.1875 
L 28.078125 0 
L 10.59375 0 
L 10.59375 42.1875 
L 1.90625 42.1875 
L 1.90625 54.6875 
L 10.59375 54.6875 
L 10.59375 58.5 
Q 10.59375 67.4375 15.578125 71.703125 
Q 20.5625 75.984375 31 75.984375 
z
" id="DejaVuSans-Bold-66"/>
     <path d="M 52.59375 52.984375 
L 52.59375 38.71875 
Q 49.03125 41.15625 45.4375 42.328125 
Q 41.84375 43.5 37.984375 43.5 
Q 30.671875 43.5 26.59375 39.234375 
Q 22.515625 34.96875 22.515625 27.296875 
Q 22.515625 19.625 26.59375 15.34375 
Q 30.671875 11.078125 37.984375 11.078125 
Q 42.09375 11.078125 45.78125 12.296875 
Q 49.46875 13.53125 52.59375 15.921875 
L 52.59375 1.609375 
Q 48.484375 0.09375 44.265625 -0.65625 
Q 40.046875 -1.421875 35.796875 -1.421875 
Q 21 -1.421875 12.640625 6.171875 
Q 4.296875 13.765625 4.296875 27.296875 
Q 4.296875 40.828125 12.640625 48.40625 
Q 21 56 35.796875 56 
Q 40.09375 56 44.265625 55.25 
Q 48.4375 54.5 52.59375 52.984375 
z
" id="DejaVuSans-Bold-63"/>
    </defs>
    <g style="opacity:0.5;" transform="translate(94.195489 564.604511)scale(0.08 -0.08)">
     <use xlink:href="#DejaVuSans-Bold-53"/>
     <use x="72.021484" xlink:href="#DejaVuSans-Bold-6f"/>
     <use x="140.722656" xlink:href="#DejaVuSans-Bold-6e"/>
     <use x="211.914062" xlink:href="#DejaVuSans-Bold-79"/>
     <use x="277.099609" xlink:href="#DejaVuSans-Bold-41"/>
     <use x="354.492188" xlink:href="#DejaVuSans-Bold-49"/>
     <use x="391.699219" xlink:href="#DejaVuSans-Bold-42"/>
     <use x="467.919922" xlink:href="#DejaVuSans-Bold-4f"/>
     <use x="552.929688" xlink:href="#DejaVuSans-Bold-52"/>
     <use x="629.931641" xlink:href="#DejaVuSans-Bold-6f"/>
     <use x="698.632812" xlink:href="#DejaVuSans-Bold-62"/>
     <use x="770.214844" xlink:href="#DejaVuSans-Bold-6f"/>
     <use x="838.916016" xlink:href="#DejaVuSans-Bold-74"/>
     <use x="886.71875" xlink:href="#DejaVuSans-Bold-53"/>
     <use x="958.740234" xlink:href="#DejaVuSans-Bold-75"/>
     <use x="1029.931641" xlink:href="#DejaVuSans-Bold-72"/>
     <use x="1079.248047" xlink:href="#DejaVuSans-Bold-66"/>
     <use x="1122.753906" xlink:href="#DejaVuSans-Bold-61"/>
     <use x="1190.234375" xlink:href="#DejaVuSans-Bold-63"/>
     <use x="1249.511719" xlink:href="#DejaVuSans-Bold-65"/>
     <use x="1317.333984" xlink:href="#DejaVuSans-Bold-32"/>
    </g>
   </g>
   <g id="text_24">
    <!-- GunPoint -->
    <g style="opacity:0.5;" transform="translate(92.097744 476.729323)scale(0.08 -0.08)">
     <use xlink:href="#DejaVuSans-Bold-47"/>
     <use x="82.080078" xlink:href="#DejaVuSans-Bold-75"/>
     <use x="153.271484" xlink:href="#DejaVuSans-Bold-6e"/>
     <use x="224.462891" xlink:href="#DejaVuSans-Bold-50"/>
     <use x="297.753906" xlink:href="#DejaVuSans-Bold-6f"/>
     <use x="366.455078" xlink:href="#DejaVuSans-Bold-69"/>
     <use x="400.732422" xlink:href="#DejaVuSans-Bold-6e"/>
     <use x="471.923828" xlink:href="#DejaVuSans-Bold-74"/>
    </g>
   </g>
   <g id="text_25">
    <!-- DiatomSizeReduction -->
    <defs>
     <path d="M 5.71875 54.6875 
L 53.421875 54.6875 
L 53.421875 42.484375 
L 24.609375 12.5 
L 53.421875 12.5 
L 53.421875 0 
L 4.5 0 
L 4.5 12.203125 
L 33.296875 42.1875 
L 5.71875 42.1875 
z
" id="DejaVuSans-Bold-7a"/>
    </defs>
    <g style="opacity:0.5;" transform="translate(96.293233 470.598496)scale(0.08 -0.08)">
     <use xlink:href="#DejaVuSans-Bold-44"/>
     <use x="83.007812" xlink:href="#DejaVuSans-Bold-69"/>
     <use x="117.285156" xlink:href="#DejaVuSans-Bold-61"/>
     <use x="184.765625" xlink:href="#DejaVuSans-Bold-74"/>
     <use x="232.568359" xlink:href="#DejaVuSans-Bold-6f"/>
     <use x="301.269531" xlink:href="#DejaVuSans-Bold-6d"/>
     <use x="405.46875" xlink:href="#DejaVuSans-Bold-53"/>
     <use x="477.490234" xlink:href="#DejaVuSans-Bold-69"/>
     <use x="511.767578" xlink:href="#DejaVuSans-Bold-7a"/>
     <use x="569.970703" xlink:href="#DejaVuSans-Bold-65"/>
     <use x="637.792969" xlink:href="#DejaVuSans-Bold-52"/>
     <use x="714.794922" xlink:href="#DejaVuSans-Bold-65"/>
     <use x="782.617188" xlink:href="#DejaVuSans-Bold-64"/>
     <use x="854.199219" xlink:href="#DejaVuSans-Bold-75"/>
     <use x="925.390625" xlink:href="#DejaVuSans-Bold-63"/>
     <use x="984.667969" xlink:href="#DejaVuSans-Bold-74"/>
     <use x="1032.470703" xlink:href="#DejaVuSans-Bold-69"/>
     <use x="1066.748047" xlink:href="#DejaVuSans-Bold-6f"/>
     <use x="1135.449219" xlink:href="#DejaVuSans-Bold-6e"/>
    </g>
   </g>
   <g id="text_26">
    <!-- MoteStrain -->
    <g style="opacity:0.5;" transform="translate(94.195489 544.168421)scale(0.08 -0.08)">
     <use xlink:href="#DejaVuSans-Bold-4d"/>
     <use x="99.511719" xlink:href="#DejaVuSans-Bold-6f"/>
     <use x="168.212891" xlink:href="#DejaVuSans-Bold-74"/>
     <use x="216.015625" xlink:href="#DejaVuSans-Bold-65"/>
     <use x="283.837891" xlink:href="#DejaVuSans-Bold-53"/>
     <use x="355.859375" xlink:href="#DejaVuSans-Bold-74"/>
     <use x="403.662109" xlink:href="#DejaVuSans-Bold-72"/>
     <use x="452.978516" xlink:href="#DejaVuSans-Bold-61"/>
     <use x="520.458984" xlink:href="#DejaVuSans-Bold-69"/>
     <use x="554.736328" xlink:href="#DejaVuSans-Bold-6e"/>
    </g>
   </g>
   <g id="text_27">
    <!-- Coffee -->
    <g style="opacity:0.5;" transform="translate(92.097744 337.76391)scale(0.08 -0.08)">
     <use xlink:href="#DejaVuSans-Bold-43"/>
     <use x="73.388672" xlink:href="#DejaVuSans-Bold-6f"/>
     <use x="142.089844" xlink:href="#DejaVuSans-Bold-66"/>
     <use x="185.595703" xlink:href="#DejaVuSans-Bold-66"/>
     <use x="229.101562" xlink:href="#DejaVuSans-Bold-65"/>
     <use x="296.923828" xlink:href="#DejaVuSans-Bold-65"/>
    </g>
   </g>
   <g id="text_28">
    <!-- ProximalPhalanxTW -->
    <g style="opacity:0.5;" transform="translate(148.736842 548.255639)scale(0.08 -0.08)">
     <use xlink:href="#DejaVuSans-Bold-50"/>
     <use x="73.291016" xlink:href="#DejaVuSans-Bold-72"/>
     <use x="122.607422" xlink:href="#DejaVuSans-Bold-6f"/>
     <use x="191.308594" xlink:href="#DejaVuSans-Bold-78"/>
     <use x="255.810547" xlink:href="#DejaVuSans-Bold-69"/>
     <use x="290.087891" xlink:href="#DejaVuSans-Bold-6d"/>
     <use x="394.287109" xlink:href="#DejaVuSans-Bold-61"/>
     <use x="461.767578" xlink:href="#DejaVuSans-Bold-6c"/>
     <use x="496.044922" xlink:href="#DejaVuSans-Bold-50"/>
     <use x="569.335938" xlink:href="#DejaVuSans-Bold-68"/>
     <use x="640.527344" xlink:href="#DejaVuSans-Bold-61"/>
     <use x="708.007812" xlink:href="#DejaVuSans-Bold-6c"/>
     <use x="742.285156" xlink:href="#DejaVuSans-Bold-61"/>
     <use x="809.765625" xlink:href="#DejaVuSans-Bold-6e"/>
     <use x="880.957031" xlink:href="#DejaVuSans-Bold-78"/>
     <use x="945.458984" xlink:href="#DejaVuSans-Bold-54"/>
     <use x="1013.671875" xlink:href="#DejaVuSans-Bold-57"/>
    </g>
   </g>
   <g id="text_29">
    <!-- BeetleFly -->
    <g style="opacity:0.5;" transform="translate(94.195489 431.769925)scale(0.08 -0.08)">
     <use xlink:href="#DejaVuSans-Bold-42"/>
     <use x="76.220703" xlink:href="#DejaVuSans-Bold-65"/>
     <use x="144.042969" xlink:href="#DejaVuSans-Bold-65"/>
     <use x="211.865234" xlink:href="#DejaVuSans-Bold-74"/>
     <use x="259.667969" xlink:href="#DejaVuSans-Bold-6c"/>
     <use x="293.945312" xlink:href="#DejaVuSans-Bold-65"/>
     <use x="361.767578" xlink:href="#DejaVuSans-Bold-46"/>
     <use x="430.078125" xlink:href="#DejaVuSans-Bold-6c"/>
     <use x="464.355469" xlink:href="#DejaVuSans-Bold-79"/>
    </g>
   </g>
   <g id="text_30">
    <!-- SyntheticControl -->
    <g style="opacity:0.5;" transform="translate(113.075188 568.691729)scale(0.08 -0.08)">
     <use xlink:href="#DejaVuSans-Bold-53"/>
     <use x="72.021484" xlink:href="#DejaVuSans-Bold-79"/>
     <use x="137.207031" xlink:href="#DejaVuSans-Bold-6e"/>
     <use x="208.398438" xlink:href="#DejaVuSans-Bold-74"/>
     <use x="256.201172" xlink:href="#DejaVuSans-Bold-68"/>
     <use x="327.392578" xlink:href="#DejaVuSans-Bold-65"/>
     <use x="395.214844" xlink:href="#DejaVuSans-Bold-74"/>
     <use x="443.017578" xlink:href="#DejaVuSans-Bold-69"/>
     <use x="477.294922" xlink:href="#DejaVuSans-Bold-63"/>
     <use x="536.572266" xlink:href="#DejaVuSans-Bold-43"/>
     <use x="609.960938" xlink:href="#DejaVuSans-Bold-6f"/>
     <use x="678.662109" xlink:href="#DejaVuSans-Bold-6e"/>
     <use x="749.853516" xlink:href="#DejaVuSans-Bold-74"/>
     <use x="797.65625" xlink:href="#DejaVuSans-Bold-72"/>
     <use x="846.972656" xlink:href="#DejaVuSans-Bold-6f"/>
     <use x="915.673828" xlink:href="#DejaVuSans-Bold-6c"/>
    </g>
   </g>
   <g id="text_31">
    <!-- FaceFour -->
    <g style="opacity:0.5;" transform="translate(96.293233 401.115789)scale(0.08 -0.08)">
     <use xlink:href="#DejaVuSans-Bold-46"/>
     <use x="68.232422" xlink:href="#DejaVuSans-Bold-61"/>
     <use x="135.712891" xlink:href="#DejaVuSans-Bold-63"/>
     <use x="194.990234" xlink:href="#DejaVuSans-Bold-65"/>
     <use x="262.8125" xlink:href="#DejaVuSans-Bold-46"/>
     <use x="331.060547" xlink:href="#DejaVuSans-Bold-6f"/>
     <use x="399.761719" xlink:href="#DejaVuSans-Bold-75"/>
     <use x="470.953125" xlink:href="#DejaVuSans-Bold-72"/>
    </g>
   </g>
   <g id="text_32">
    <!-- Plane -->
    <g style="opacity:0.5;" transform="translate(104.684211 482.86015)scale(0.08 -0.08)">
     <use xlink:href="#DejaVuSans-Bold-50"/>
     <use x="73.291016" xlink:href="#DejaVuSans-Bold-6c"/>
     <use x="107.568359" xlink:href="#DejaVuSans-Bold-61"/>
     <use x="175.048828" xlink:href="#DejaVuSans-Bold-6e"/>
     <use x="246.240234" xlink:href="#DejaVuSans-Bold-65"/>
    </g>
   </g>
   <g id="text_33">
    <!-- Beef -->
    <g style="opacity:0.5;" transform="translate(100.488722 149.75188)scale(0.08 -0.08)">
     <use xlink:href="#DejaVuSans-Bold-42"/>
     <use x="76.220703" xlink:href="#DejaVuSans-Bold-65"/>
     <use x="144.042969" xlink:href="#DejaVuSans-Bold-65"/>
     <use x="211.865234" xlink:href="#DejaVuSans-Bold-66"/>
    </g>
   </g>
   <g id="text_34">
    <!-- Lightning7 -->
    <defs>
     <path d="M 6.6875 72.90625 
L 61.625 72.90625 
L 61.625 62.3125 
L 33.203125 0 
L 14.890625 0 
L 41.796875 59.078125 
L 6.6875 59.078125 
z
" id="DejaVuSans-Bold-37"/>
    </defs>
    <g style="opacity:0.5;" transform="translate(117.270677 331.633083)scale(0.08 -0.08)">
     <use xlink:href="#DejaVuSans-Bold-4c"/>
     <use x="63.720703" xlink:href="#DejaVuSans-Bold-69"/>
     <use x="97.998047" xlink:href="#DejaVuSans-Bold-67"/>
     <use x="169.580078" xlink:href="#DejaVuSans-Bold-68"/>
     <use x="240.771484" xlink:href="#DejaVuSans-Bold-74"/>
     <use x="288.574219" xlink:href="#DejaVuSans-Bold-6e"/>
     <use x="359.765625" xlink:href="#DejaVuSans-Bold-69"/>
     <use x="394.042969" xlink:href="#DejaVuSans-Bold-6e"/>
     <use x="465.234375" xlink:href="#DejaVuSans-Bold-67"/>
     <use x="536.816406" xlink:href="#DejaVuSans-Bold-37"/>
    </g>
   </g>
   <g id="text_35">
    <!-- Symbols -->
    <g style="opacity:0.5;" transform="translate(100.488722 223.321805)scale(0.08 -0.08)">
     <use xlink:href="#DejaVuSans-Bold-53"/>
     <use x="72.021484" xlink:href="#DejaVuSans-Bold-79"/>
     <use x="137.207031" xlink:href="#DejaVuSans-Bold-6d"/>
     <use x="241.40625" xlink:href="#DejaVuSans-Bold-62"/>
     <use x="312.988281" xlink:href="#DejaVuSans-Bold-6f"/>
     <use x="381.689453" xlink:href="#DejaVuSans-Bold-6c"/>
     <use x="415.966797" xlink:href="#DejaVuSans-Bold-73"/>
    </g>
   </g>
   <g id="text_36">
    <!-- ArrowHead -->
    <defs>
     <path d="M 9.1875 72.90625 
L 27.984375 72.90625 
L 27.984375 45.125 
L 55.71875 45.125 
L 55.71875 72.90625 
L 74.515625 72.90625 
L 74.515625 0 
L 55.71875 0 
L 55.71875 30.90625 
L 27.984375 30.90625 
L 27.984375 0 
L 9.1875 0 
z
" id="DejaVuSans-Bold-48"/>
    </defs>
    <g style="opacity:0.5;" transform="translate(94.195489 374.548872)scale(0.08 -0.08)">
     <use xlink:href="#DejaVuSans-Bold-41"/>
     <use x="77.392578" xlink:href="#DejaVuSans-Bold-72"/>
     <use x="126.708984" xlink:href="#DejaVuSans-Bold-72"/>
     <use x="176.025391" xlink:href="#DejaVuSans-Bold-6f"/>
     <use x="244.726562" xlink:href="#DejaVuSans-Bold-77"/>
     <use x="337.109375" xlink:href="#DejaVuSans-Bold-48"/>
     <use x="420.800781" xlink:href="#DejaVuSans-Bold-65"/>
     <use x="488.623047" xlink:href="#DejaVuSans-Bold-61"/>
     <use x="556.103516" xlink:href="#DejaVuSans-Bold-64"/>
    </g>
   </g>
   <g id="text_37">
    <!-- FacesUCR -->
    <defs>
     <path d="M 9.1875 72.90625 
L 27.984375 72.90625 
L 27.984375 29.203125 
Q 27.984375 20.171875 30.9375 16.28125 
Q 33.890625 12.40625 40.578125 12.40625 
Q 47.3125 12.40625 50.265625 16.28125 
Q 53.21875 20.171875 53.21875 29.203125 
L 53.21875 72.90625 
L 72.015625 72.90625 
L 72.015625 29.203125 
Q 72.015625 13.71875 64.25 6.140625 
Q 56.5 -1.421875 40.578125 -1.421875 
Q 24.703125 -1.421875 16.9375 6.140625 
Q 9.1875 13.71875 9.1875 29.203125 
z
" id="DejaVuSans-Bold-55"/>
    </defs>
    <g style="opacity:0.5;" transform="translate(169.714286 497.165414)scale(0.08 -0.08)">
     <use xlink:href="#DejaVuSans-Bold-46"/>
     <use x="68.232422" xlink:href="#DejaVuSans-Bold-61"/>
     <use x="135.712891" xlink:href="#DejaVuSans-Bold-63"/>
     <use x="194.990234" xlink:href="#DejaVuSans-Bold-65"/>
     <use x="262.8125" xlink:href="#DejaVuSans-Bold-73"/>
     <use x="322.333984" xlink:href="#DejaVuSans-Bold-55"/>
     <use x="403.535156" xlink:href="#DejaVuSans-Bold-43"/>
     <use x="476.923828" xlink:href="#DejaVuSans-Bold-52"/>
    </g>
   </g>
   <g id="text_38">
    <!-- Wine -->
    <g style="opacity:0.5;" transform="translate(98.390977 390.897744)scale(0.08 -0.08)">
     <use xlink:href="#DejaVuSans-Bold-57"/>
     <use x="110.302734" xlink:href="#DejaVuSans-Bold-69"/>
     <use x="144.580078" xlink:href="#DejaVuSans-Bold-6e"/>
     <use x="215.771484" xlink:href="#DejaVuSans-Bold-65"/>
    </g>
   </g>
   <g id="text_39">
    <!-- ProximalPhalanxOutlineAgeGroup -->
    <g style="opacity:0.5;" transform="translate(138.24812 548.255639)scale(0.08 -0.08)">
     <use xlink:href="#DejaVuSans-Bold-50"/>
     <use x="73.291016" xlink:href="#DejaVuSans-Bold-72"/>
     <use x="122.607422" xlink:href="#DejaVuSans-Bold-6f"/>
     <use x="191.308594" xlink:href="#DejaVuSans-Bold-78"/>
     <use x="255.810547" xlink:href="#DejaVuSans-Bold-69"/>
     <use x="290.087891" xlink:href="#DejaVuSans-Bold-6d"/>
     <use x="394.287109" xlink:href="#DejaVuSans-Bold-61"/>
     <use x="461.767578" xlink:href="#DejaVuSans-Bold-6c"/>
     <use x="496.044922" xlink:href="#DejaVuSans-Bold-50"/>
     <use x="569.335938" xlink:href="#DejaVuSans-Bold-68"/>
     <use x="640.527344" xlink:href="#DejaVuSans-Bold-61"/>
     <use x="708.007812" xlink:href="#DejaVuSans-Bold-6c"/>
     <use x="742.285156" xlink:href="#DejaVuSans-Bold-61"/>
     <use x="809.765625" xlink:href="#DejaVuSans-Bold-6e"/>
     <use x="880.957031" xlink:href="#DejaVuSans-Bold-78"/>
     <use x="945.458984" xlink:href="#DejaVuSans-Bold-4f"/>
     <use x="1030.46875" xlink:href="#DejaVuSans-Bold-75"/>
     <use x="1101.660156" xlink:href="#DejaVuSans-Bold-74"/>
     <use x="1149.462891" xlink:href="#DejaVuSans-Bold-6c"/>
     <use x="1183.740234" xlink:href="#DejaVuSans-Bold-69"/>
     <use x="1218.017578" xlink:href="#DejaVuSans-Bold-6e"/>
     <use x="1289.208984" xlink:href="#DejaVuSans-Bold-65"/>
     <use x="1357.03125" xlink:href="#DejaVuSans-Bold-41"/>
     <use x="1434.423828" xlink:href="#DejaVuSans-Bold-67"/>
     <use x="1506.005859" xlink:href="#DejaVuSans-Bold-65"/>
     <use x="1573.828125" xlink:href="#DejaVuSans-Bold-47"/>
     <use x="1655.908203" xlink:href="#DejaVuSans-Bold-72"/>
     <use x="1705.224609" xlink:href="#DejaVuSans-Bold-6f"/>
     <use x="1773.925781" xlink:href="#DejaVuSans-Bold-75"/>
     <use x="1845.117188" xlink:href="#DejaVuSans-Bold-70"/>
    </g>
   </g>
   <g id="text_40">
    <!-- SonyAIBORobotSurface1 -->
    <g style="opacity:0.5;" transform="translate(92.097744 558.473684)scale(0.08 -0.08)">
     <use xlink:href="#DejaVuSans-Bold-53"/>
     <use x="72.021484" xlink:href="#DejaVuSans-Bold-6f"/>
     <use x="140.722656" xlink:href="#DejaVuSans-Bold-6e"/>
     <use x="211.914062" xlink:href="#DejaVuSans-Bold-79"/>
     <use x="277.099609" xlink:href="#DejaVuSans-Bold-41"/>
     <use x="354.492188" xlink:href="#DejaVuSans-Bold-49"/>
     <use x="391.699219" xlink:href="#DejaVuSans-Bold-42"/>
     <use x="467.919922" xlink:href="#DejaVuSans-Bold-4f"/>
     <use x="552.929688" xlink:href="#DejaVuSans-Bold-52"/>
     <use x="629.931641" xlink:href="#DejaVuSans-Bold-6f"/>
     <use x="698.632812" xlink:href="#DejaVuSans-Bold-62"/>
     <use x="770.214844" xlink:href="#DejaVuSans-Bold-6f"/>
     <use x="838.916016" xlink:href="#DejaVuSans-Bold-74"/>
     <use x="886.71875" xlink:href="#DejaVuSans-Bold-53"/>
     <use x="958.740234" xlink:href="#DejaVuSans-Bold-75"/>
     <use x="1029.931641" xlink:href="#DejaVuSans-Bold-72"/>
     <use x="1079.248047" xlink:href="#DejaVuSans-Bold-66"/>
     <use x="1122.753906" xlink:href="#DejaVuSans-Bold-61"/>
     <use x="1190.234375" xlink:href="#DejaVuSans-Bold-63"/>
     <use x="1249.511719" xlink:href="#DejaVuSans-Bold-65"/>
     <use x="1317.333984" xlink:href="#DejaVuSans-Bold-31"/>
    </g>
   </g>
   <g id="text_41">
    <!-- MiddlePhalanxOutlineAgeGroup -->
    <g style="opacity:0.5;" transform="translate(146.639098 548.255639)scale(0.08 -0.08)">
     <use xlink:href="#DejaVuSans-Bold-4d"/>
     <use x="99.511719" xlink:href="#DejaVuSans-Bold-69"/>
     <use x="133.789062" xlink:href="#DejaVuSans-Bold-64"/>
     <use x="205.371094" xlink:href="#DejaVuSans-Bold-64"/>
     <use x="276.953125" xlink:href="#DejaVuSans-Bold-6c"/>
     <use x="311.230469" xlink:href="#DejaVuSans-Bold-65"/>
     <use x="379.052734" xlink:href="#DejaVuSans-Bold-50"/>
     <use x="452.34375" xlink:href="#DejaVuSans-Bold-68"/>
     <use x="523.535156" xlink:href="#DejaVuSans-Bold-61"/>
     <use x="591.015625" xlink:href="#DejaVuSans-Bold-6c"/>
     <use x="625.292969" xlink:href="#DejaVuSans-Bold-61"/>
     <use x="692.773438" xlink:href="#DejaVuSans-Bold-6e"/>
     <use x="763.964844" xlink:href="#DejaVuSans-Bold-78"/>
     <use x="828.466797" xlink:href="#DejaVuSans-Bold-4f"/>
     <use x="913.476562" xlink:href="#DejaVuSans-Bold-75"/>
     <use x="984.667969" xlink:href="#DejaVuSans-Bold-74"/>
     <use x="1032.470703" xlink:href="#DejaVuSans-Bold-6c"/>
     <use x="1066.748047" xlink:href="#DejaVuSans-Bold-69"/>
     <use x="1101.025391" xlink:href="#DejaVuSans-Bold-6e"/>
     <use x="1172.216797" xlink:href="#DejaVuSans-Bold-65"/>
     <use x="1240.039062" xlink:href="#DejaVuSans-Bold-41"/>
     <use x="1317.431641" xlink:href="#DejaVuSans-Bold-67"/>
     <use x="1389.013672" xlink:href="#DejaVuSans-Bold-65"/>
     <use x="1456.835938" xlink:href="#DejaVuSans-Bold-47"/>
     <use x="1538.916016" xlink:href="#DejaVuSans-Bold-72"/>
     <use x="1588.232422" xlink:href="#DejaVuSans-Bold-6f"/>
     <use x="1656.933594" xlink:href="#DejaVuSans-Bold-75"/>
     <use x="1728.125" xlink:href="#DejaVuSans-Bold-70"/>
    </g>
   </g>
   <g id="text_42">
    <!-- BirdChicken -->
    <defs>
     <path d="M 8.40625 75.984375 
L 25.875 75.984375 
L 25.875 34.625 
L 46 54.6875 
L 66.3125 54.6875 
L 39.59375 29.59375 
L 68.40625 0 
L 47.21875 0 
L 25.875 22.796875 
L 25.875 0 
L 8.40625 0 
z
" id="DejaVuSans-Bold-6b"/>
    </defs>
    <g style="opacity:0.5;" transform="translate(92.097744 106.83609)scale(0.08 -0.08)">
     <use xlink:href="#DejaVuSans-Bold-42"/>
     <use x="76.220703" xlink:href="#DejaVuSans-Bold-69"/>
     <use x="110.498047" xlink:href="#DejaVuSans-Bold-72"/>
     <use x="159.814453" xlink:href="#DejaVuSans-Bold-64"/>
     <use x="231.396484" xlink:href="#DejaVuSans-Bold-43"/>
     <use x="304.785156" xlink:href="#DejaVuSans-Bold-68"/>
     <use x="375.976562" xlink:href="#DejaVuSans-Bold-69"/>
     <use x="410.253906" xlink:href="#DejaVuSans-Bold-63"/>
     <use x="469.53125" xlink:href="#DejaVuSans-Bold-6b"/>
     <use x="536.003906" xlink:href="#DejaVuSans-Bold-65"/>
     <use x="603.826172" xlink:href="#DejaVuSans-Bold-6e"/>
    </g>
   </g>
   <g id="text_43">
    <!-- ECGFiveDays -->
    <defs>
     <path d="M 1.515625 54.6875 
L 19 54.6875 
L 32.625 16.890625 
L 46.1875 54.6875 
L 63.71875 54.6875 
L 42.1875 0 
L 23 0 
z
" id="DejaVuSans-Bold-76"/>
    </defs>
    <g style="opacity:0.5;" transform="translate(92.097744 491.034586)scale(0.08 -0.08)">
     <use xlink:href="#DejaVuSans-Bold-45"/>
     <use x="68.310547" xlink:href="#DejaVuSans-Bold-43"/>
     <use x="141.699219" xlink:href="#DejaVuSans-Bold-47"/>
     <use x="223.779297" xlink:href="#DejaVuSans-Bold-46"/>
     <use x="292.089844" xlink:href="#DejaVuSans-Bold-69"/>
     <use x="326.367188" xlink:href="#DejaVuSans-Bold-76"/>
     <use x="391.552734" xlink:href="#DejaVuSans-Bold-65"/>
     <use x="459.375" xlink:href="#DejaVuSans-Bold-44"/>
     <use x="542.382812" xlink:href="#DejaVuSans-Bold-61"/>
     <use x="609.816406" xlink:href="#DejaVuSans-Bold-79"/>
     <use x="675.001953" xlink:href="#DejaVuSans-Bold-73"/>
    </g>
   </g>
   <g id="text_44">
    <!-- ItalyPowerDemand -->
    <g style="opacity:0.5;" transform="translate(96.293233 605.476692)scale(0.08 -0.08)">
     <use xlink:href="#DejaVuSans-Bold-49"/>
     <use x="37.207031" xlink:href="#DejaVuSans-Bold-74"/>
     <use x="85.009766" xlink:href="#DejaVuSans-Bold-61"/>
     <use x="152.490234" xlink:href="#DejaVuSans-Bold-6c"/>
     <use x="186.767578" xlink:href="#DejaVuSans-Bold-79"/>
     <use x="251.953125" xlink:href="#DejaVuSans-Bold-50"/>
     <use x="325.244141" xlink:href="#DejaVuSans-Bold-6f"/>
     <use x="393.945312" xlink:href="#DejaVuSans-Bold-77"/>
     <use x="486.328125" xlink:href="#DejaVuSans-Bold-65"/>
     <use x="554.150391" xlink:href="#DejaVuSans-Bold-72"/>
     <use x="603.466797" xlink:href="#DejaVuSans-Bold-44"/>
     <use x="686.474609" xlink:href="#DejaVuSans-Bold-65"/>
     <use x="754.296875" xlink:href="#DejaVuSans-Bold-6d"/>
     <use x="858.496094" xlink:href="#DejaVuSans-Bold-61"/>
     <use x="925.976562" xlink:href="#DejaVuSans-Bold-6e"/>
     <use x="997.167969" xlink:href="#DejaVuSans-Bold-64"/>
    </g>
   </g>
   <g id="text_45">
    <!-- ECG200 -->
    <g style="opacity:0.5;" transform="translate(102.586466 531.906767)scale(0.08 -0.08)">
     <use xlink:href="#DejaVuSans-Bold-45"/>
     <use x="68.310547" xlink:href="#DejaVuSans-Bold-43"/>
     <use x="141.699219" xlink:href="#DejaVuSans-Bold-47"/>
     <use x="223.779297" xlink:href="#DejaVuSans-Bold-32"/>
     <use x="293.359375" xlink:href="#DejaVuSans-Bold-30"/>
     <use x="362.939453" xlink:href="#DejaVuSans-Bold-30"/>
    </g>
   </g>
   <g id="text_46">
    <!-- MedicalImages -->
    <g style="opacity:0.5;" transform="translate(201.180451 529.863158)scale(0.08 -0.08)">
     <use xlink:href="#DejaVuSans-Bold-4d"/>
     <use x="99.511719" xlink:href="#DejaVuSans-Bold-65"/>
     <use x="167.333984" xlink:href="#DejaVuSans-Bold-64"/>
     <use x="238.916016" xlink:href="#DejaVuSans-Bold-69"/>
     <use x="273.193359" xlink:href="#DejaVuSans-Bold-63"/>
     <use x="332.470703" xlink:href="#DejaVuSans-Bold-61"/>
     <use x="399.951172" xlink:href="#DejaVuSans-Bold-6c"/>
     <use x="434.228516" xlink:href="#DejaVuSans-Bold-49"/>
     <use x="471.435547" xlink:href="#DejaVuSans-Bold-6d"/>
     <use x="575.634766" xlink:href="#DejaVuSans-Bold-61"/>
     <use x="643.115234" xlink:href="#DejaVuSans-Bold-67"/>
     <use x="714.697266" xlink:href="#DejaVuSans-Bold-65"/>
     <use x="782.519531" xlink:href="#DejaVuSans-Bold-73"/>
    </g>
   </g>
   <g id="text_47">
    <!-- Dependent versus independent discovery: number of shapelets -->
    <defs>
     <path d="M 54.890625 33.015625 
L 54.890625 0 
L 45.90625 0 
L 45.90625 32.71875 
Q 45.90625 40.484375 42.875 44.328125 
Q 39.84375 48.1875 33.796875 48.1875 
Q 26.515625 48.1875 22.3125 43.546875 
Q 18.109375 38.921875 18.109375 30.90625 
L 18.109375 0 
L 9.078125 0 
L 9.078125 54.6875 
L 18.109375 54.6875 
L 18.109375 46.1875 
Q 21.34375 51.125 25.703125 53.5625 
Q 30.078125 56 35.796875 56 
Q 45.21875 56 50.046875 50.171875 
Q 54.890625 44.34375 54.890625 33.015625 
z
" id="DejaVuSans-6e"/>
     <path d="M 45.40625 46.390625 
L 45.40625 75.984375 
L 54.390625 75.984375 
L 54.390625 0 
L 45.40625 0 
L 45.40625 8.203125 
Q 42.578125 3.328125 38.25 0.953125 
Q 33.9375 -1.421875 27.875 -1.421875 
Q 17.96875 -1.421875 11.734375 6.484375 
Q 5.515625 14.40625 5.515625 27.296875 
Q 5.515625 40.1875 11.734375 48.09375 
Q 17.96875 56 27.875 56 
Q 33.9375 56 38.25 53.625 
Q 42.578125 51.265625 45.40625 46.390625 
z
M 14.796875 27.296875 
Q 14.796875 17.390625 18.875 11.75 
Q 22.953125 6.109375 30.078125 6.109375 
Q 37.203125 6.109375 41.296875 11.75 
Q 45.40625 17.390625 45.40625 27.296875 
Q 45.40625 37.203125 41.296875 42.84375 
Q 37.203125 48.484375 30.078125 48.484375 
Q 22.953125 48.484375 18.875 42.84375 
Q 14.796875 37.203125 14.796875 27.296875 
z
" id="DejaVuSans-64"/>
     <path d="M 2.984375 54.6875 
L 12.5 54.6875 
L 29.59375 8.796875 
L 46.6875 54.6875 
L 56.203125 54.6875 
L 35.6875 0 
L 23.484375 0 
z
" id="DejaVuSans-76"/>
     <path d="M 41.109375 46.296875 
Q 39.59375 47.171875 37.8125 47.578125 
Q 36.03125 48 33.890625 48 
Q 26.265625 48 22.1875 43.046875 
Q 18.109375 38.09375 18.109375 28.8125 
L 18.109375 0 
L 9.078125 0 
L 9.078125 54.6875 
L 18.109375 54.6875 
L 18.109375 46.1875 
Q 20.953125 51.171875 25.484375 53.578125 
Q 30.03125 56 36.53125 56 
Q 37.453125 56 38.578125 55.875 
Q 39.703125 55.765625 41.0625 55.515625 
z
" id="DejaVuSans-72"/>
     <path d="M 8.5 21.578125 
L 8.5 54.6875 
L 17.484375 54.6875 
L 17.484375 21.921875 
Q 17.484375 14.15625 20.5 10.265625 
Q 23.53125 6.390625 29.59375 6.390625 
Q 36.859375 6.390625 41.078125 11.03125 
Q 45.3125 15.671875 45.3125 23.6875 
L 45.3125 54.6875 
L 54.296875 54.6875 
L 54.296875 0 
L 45.3125 0 
L 45.3125 8.40625 
Q 42.046875 3.421875 37.71875 1 
Q 33.40625 -1.421875 27.6875 -1.421875 
Q 18.265625 -1.421875 13.375 4.4375 
Q 8.5 10.296875 8.5 21.578125 
z
M 31.109375 56 
z
" id="DejaVuSans-75"/>
     <path d="M 9.421875 54.6875 
L 18.40625 54.6875 
L 18.40625 0 
L 9.421875 0 
z
M 9.421875 75.984375 
L 18.40625 75.984375 
L 18.40625 64.59375 
L 9.421875 64.59375 
z
" id="DejaVuSans-69"/>
     <path d="M 48.78125 52.59375 
L 48.78125 44.1875 
Q 44.96875 46.296875 41.140625 47.34375 
Q 37.3125 48.390625 33.40625 48.390625 
Q 24.65625 48.390625 19.8125 42.84375 
Q 14.984375 37.3125 14.984375 27.296875 
Q 14.984375 17.28125 19.8125 11.734375 
Q 24.65625 6.203125 33.40625 6.203125 
Q 37.3125 6.203125 41.140625 7.25 
Q 44.96875 8.296875 48.78125 10.40625 
L 48.78125 2.09375 
Q 45.015625 0.34375 40.984375 -0.53125 
Q 36.96875 -1.421875 32.421875 -1.421875 
Q 20.0625 -1.421875 12.78125 6.34375 
Q 5.515625 14.109375 5.515625 27.296875 
Q 5.515625 40.671875 12.859375 48.328125 
Q 20.21875 56 33.015625 56 
Q 37.15625 56 41.109375 55.140625 
Q 45.0625 54.296875 48.78125 52.59375 
z
" id="DejaVuSans-63"/>
     <path d="M 30.609375 48.390625 
Q 23.390625 48.390625 19.1875 42.75 
Q 14.984375 37.109375 14.984375 27.296875 
Q 14.984375 17.484375 19.15625 11.84375 
Q 23.34375 6.203125 30.609375 6.203125 
Q 37.796875 6.203125 41.984375 11.859375 
Q 46.1875 17.53125 46.1875 27.296875 
Q 46.1875 37.015625 41.984375 42.703125 
Q 37.796875 48.390625 30.609375 48.390625 
z
M 30.609375 56 
Q 42.328125 56 49.015625 48.375 
Q 55.71875 40.765625 55.71875 27.296875 
Q 55.71875 13.875 49.015625 6.21875 
Q 42.328125 -1.421875 30.609375 -1.421875 
Q 18.84375 -1.421875 12.171875 6.21875 
Q 5.515625 13.875 5.515625 27.296875 
Q 5.515625 40.765625 12.171875 48.375 
Q 18.84375 56 30.609375 56 
z
" id="DejaVuSans-6f"/>
     <path d="M 32.171875 -5.078125 
Q 28.375 -14.84375 24.75 -17.8125 
Q 21.140625 -20.796875 15.09375 -20.796875 
L 7.90625 -20.796875 
L 7.90625 -13.28125 
L 13.1875 -13.28125 
Q 16.890625 -13.28125 18.9375 -11.515625 
Q 21 -9.765625 23.484375 -3.21875 
L 25.09375 0.875 
L 2.984375 54.6875 
L 12.5 54.6875 
L 29.59375 11.921875 
L 46.6875 54.6875 
L 56.203125 54.6875 
z
" id="DejaVuSans-79"/>
     <path d="M 11.71875 12.40625 
L 22.015625 12.40625 
L 22.015625 0 
L 11.71875 0 
z
M 11.71875 51.703125 
L 22.015625 51.703125 
L 22.015625 39.3125 
L 11.71875 39.3125 
z
" id="DejaVuSans-3a"/>
     <path d="M 52 44.1875 
Q 55.375 50.25 60.0625 53.125 
Q 64.75 56 71.09375 56 
Q 79.640625 56 84.28125 50.015625 
Q 88.921875 44.046875 88.921875 33.015625 
L 88.921875 0 
L 79.890625 0 
L 79.890625 32.71875 
Q 79.890625 40.578125 77.09375 44.375 
Q 74.3125 48.1875 68.609375 48.1875 
Q 61.625 48.1875 57.5625 43.546875 
Q 53.515625 38.921875 53.515625 30.90625 
L 53.515625 0 
L 44.484375 0 
L 44.484375 32.71875 
Q 44.484375 40.625 41.703125 44.40625 
Q 38.921875 48.1875 33.109375 48.1875 
Q 26.21875 48.1875 22.15625 43.53125 
Q 18.109375 38.875 18.109375 30.90625 
L 18.109375 0 
L 9.078125 0 
L 9.078125 54.6875 
L 18.109375 54.6875 
L 18.109375 46.1875 
Q 21.1875 51.21875 25.484375 53.609375 
Q 29.78125 56 35.6875 56 
Q 41.65625 56 45.828125 52.96875 
Q 50 49.953125 52 44.1875 
z
" id="DejaVuSans-6d"/>
     <path d="M 48.6875 27.296875 
Q 48.6875 37.203125 44.609375 42.84375 
Q 40.53125 48.484375 33.40625 48.484375 
Q 26.265625 48.484375 22.1875 42.84375 
Q 18.109375 37.203125 18.109375 27.296875 
Q 18.109375 17.390625 22.1875 11.75 
Q 26.265625 6.109375 33.40625 6.109375 
Q 40.53125 6.109375 44.609375 11.75 
Q 48.6875 17.390625 48.6875 27.296875 
z
M 18.109375 46.390625 
Q 20.953125 51.265625 25.265625 53.625 
Q 29.59375 56 35.59375 56 
Q 45.5625 56 51.78125 48.09375 
Q 58.015625 40.1875 58.015625 27.296875 
Q 58.015625 14.40625 51.78125 6.484375 
Q 45.5625 -1.421875 35.59375 -1.421875 
Q 29.59375 -1.421875 25.265625 0.953125 
Q 20.953125 3.328125 18.109375 8.203125 
L 18.109375 0 
L 9.078125 0 
L 9.078125 75.984375 
L 18.109375 75.984375 
z
" id="DejaVuSans-62"/>
     <path d="M 37.109375 75.984375 
L 37.109375 68.5 
L 28.515625 68.5 
Q 23.6875 68.5 21.796875 66.546875 
Q 19.921875 64.59375 19.921875 59.515625 
L 19.921875 54.6875 
L 34.71875 54.6875 
L 34.71875 47.703125 
L 19.921875 47.703125 
L 19.921875 0 
L 10.890625 0 
L 10.890625 47.703125 
L 2.296875 47.703125 
L 2.296875 54.6875 
L 10.890625 54.6875 
L 10.890625 58.5 
Q 10.890625 67.625 15.140625 71.796875 
Q 19.390625 75.984375 28.609375 75.984375 
z
" id="DejaVuSans-66"/>
    </defs>
    <g transform="translate(62.7675 80.4)scale(0.192 -0.192)">
     <use xlink:href="#DejaVuSans-44"/>
     <use x="77.001953" xlink:href="#DejaVuSans-65"/>
     <use x="138.525391" xlink:href="#DejaVuSans-70"/>
     <use x="202.001953" xlink:href="#DejaVuSans-65"/>
     <use x="263.525391" xlink:href="#DejaVuSans-6e"/>
     <use x="326.904297" xlink:href="#DejaVuSans-64"/>
     <use x="390.380859" xlink:href="#DejaVuSans-65"/>
     <use x="451.904297" xlink:href="#DejaVuSans-6e"/>
     <use x="515.283203" xlink:href="#DejaVuSans-74"/>
     <use x="554.492188" xlink:href="#DejaVuSans-20"/>
     <use x="586.279297" xlink:href="#DejaVuSans-76"/>
     <use x="645.458984" xlink:href="#DejaVuSans-65"/>
     <use x="706.982422" xlink:href="#DejaVuSans-72"/>
     <use x="748.095703" xlink:href="#DejaVuSans-73"/>
     <use x="800.195312" xlink:href="#DejaVuSans-75"/>
     <use x="863.574219" xlink:href="#DejaVuSans-73"/>
     <use x="915.673828" xlink:href="#DejaVuSans-20"/>
     <use x="947.460938" xlink:href="#DejaVuSans-69"/>
     <use x="975.244141" xlink:href="#DejaVuSans-6e"/>
     <use x="1038.623047" xlink:href="#DejaVuSans-64"/>
     <use x="1102.099609" xlink:href="#DejaVuSans-65"/>
     <use x="1163.623047" xlink:href="#DejaVuSans-70"/>
     <use x="1227.099609" xlink:href="#DejaVuSans-65"/>
     <use x="1288.623047" xlink:href="#DejaVuSans-6e"/>
     <use x="1352.001953" xlink:href="#DejaVuSans-64"/>
     <use x="1415.478516" xlink:href="#DejaVuSans-65"/>
     <use x="1477.001953" xlink:href="#DejaVuSans-6e"/>
     <use x="1540.380859" xlink:href="#DejaVuSans-74"/>
     <use x="1579.589844" xlink:href="#DejaVuSans-20"/>
     <use x="1611.376953" xlink:href="#DejaVuSans-64"/>
     <use x="1674.853516" xlink:href="#DejaVuSans-69"/>
     <use x="1702.636719" xlink:href="#DejaVuSans-73"/>
     <use x="1754.736328" xlink:href="#DejaVuSans-63"/>
     <use x="1809.716797" xlink:href="#DejaVuSans-6f"/>
     <use x="1870.898438" xlink:href="#DejaVuSans-76"/>
     <use x="1930.078125" xlink:href="#DejaVuSans-65"/>
     <use x="1991.601562" xlink:href="#DejaVuSans-72"/>
     <use x="2032.714844" xlink:href="#DejaVuSans-79"/>
     <use x="2091.785156" xlink:href="#DejaVuSans-3a"/>
     <use x="2125.476562" xlink:href="#DejaVuSans-20"/>
     <use x="2157.263672" xlink:href="#DejaVuSans-6e"/>
     <use x="2220.642578" xlink:href="#DejaVuSans-75"/>
     <use x="2284.021484" xlink:href="#DejaVuSans-6d"/>
     <use x="2381.433594" xlink:href="#DejaVuSans-62"/>
     <use x="2444.910156" xlink:href="#DejaVuSans-65"/>
     <use x="2506.433594" xlink:href="#DejaVuSans-72"/>
     <use x="2547.546875" xlink:href="#DejaVuSans-20"/>
     <use x="2579.333984" xlink:href="#DejaVuSans-6f"/>
     <use x="2640.515625" xlink:href="#DejaVuSans-66"/>
     <use x="2675.720703" xlink:href="#DejaVuSans-20"/>
     <use x="2707.507812" xlink:href="#DejaVuSans-73"/>
     <use x="2759.607422" xlink:href="#DejaVuSans-68"/>
     <use x="2822.986328" xlink:href="#DejaVuSans-61"/>
     <use x="2884.265625" xlink:href="#DejaVuSans-70"/>
     <use x="2947.742188" xlink:href="#DejaVuSans-65"/>
     <use x="3009.265625" xlink:href="#DejaVuSans-6c"/>
     <use x="3037.048828" xlink:href="#DejaVuSans-65"/>
     <use x="3098.572266" xlink:href="#DejaVuSans-74"/>
     <use x="3137.78125" xlink:href="#DejaVuSans-73"/>
    </g>
   </g>
  </g>
 </g>
 <defs>
  <clipPath id="p5daa7cf34f">
   <rect height="543.6" width="558" x="90" y="86.4"/>
  </clipPath>
 </defs>
</svg>
