<?xml version="1.0" encoding="utf-8" standalone="no"?>
<!DOCTYPE svg PUBLIC "-//W3C//DTD SVG 1.1//EN"
  "http://www.w3.org/Graphics/SVG/1.1/DTD/svg11.dtd">
<!-- Created with matplotlib (http://matplotlib.org/) -->
<svg height="288pt" version="1.1" viewBox="0 0 432 288" width="432pt" xmlns="http://www.w3.org/2000/svg" xmlns:xlink="http://www.w3.org/1999/xlink">
 <defs>
  <style type="text/css">
*{stroke-linecap:butt;stroke-linejoin:round;}
  </style>
 </defs>
 <g id="figure_1">
  <g id="patch_1">
   <path d="M 0 288 
L 432 288 
L 432 0 
L 0 0 
z
" style="fill:#ffffff;"/>
  </g>
  <g id="axes_1">
   <g id="text_1">
    <!-- Brute Force -->
    <defs>
     <path d="M 19.671875 34.8125 
L 19.671875 8.109375 
L 35.5 8.109375 
Q 43.453125 8.109375 47.28125 11.40625 
Q 51.125 14.703125 51.125 21.484375 
Q 51.125 28.328125 47.28125 31.5625 
Q 43.453125 34.8125 35.5 34.8125 
z
M 19.671875 64.796875 
L 19.671875 42.828125 
L 34.28125 42.828125 
Q 41.5 42.828125 45.03125 45.53125 
Q 48.578125 48.25 48.578125 53.8125 
Q 48.578125 59.328125 45.03125 62.0625 
Q 41.5 64.796875 34.28125 64.796875 
z
M 9.8125 72.90625 
L 35.015625 72.90625 
Q 46.296875 72.90625 52.390625 68.21875 
Q 58.5 63.53125 58.5 54.890625 
Q 58.5 48.1875 55.375 44.234375 
Q 52.25 40.28125 46.1875 39.3125 
Q 53.46875 37.75 57.5 32.78125 
Q 61.53125 27.828125 61.53125 20.40625 
Q 61.53125 10.640625 54.890625 5.3125 
Q 48.25 0 35.984375 0 
L 9.8125 0 
z
" id="DejaVuSans-42"/>
     <path d="M 41.109375 46.296875 
Q 39.59375 47.171875 37.8125 47.578125 
Q 36.03125 48 33.890625 48 
Q 26.265625 48 22.1875 43.046875 
Q 18.109375 38.09375 18.109375 28.8125 
L 18.109375 0 
L 9.078125 0 
L 9.078125 54.6875 
L 18.109375 54.6875 
L 18.109375 46.1875 
Q 20.953125 51.171875 25.484375 53.578125 
Q 30.03125 56 36.53125 56 
Q 37.453125 56 38.578125 55.875 
Q 39.703125 55.765625 41.0625 55.515625 
z
" id="DejaVuSans-72"/>
     <path d="M 8.5 21.578125 
L 8.5 54.6875 
L 17.484375 54.6875 
L 17.484375 21.921875 
Q 17.484375 14.15625 20.5 10.265625 
Q 23.53125 6.390625 29.59375 6.390625 
Q 36.859375 6.390625 41.078125 11.03125 
Q 45.3125 15.671875 45.3125 23.6875 
L 45.3125 54.6875 
L 54.296875 54.6875 
L 54.296875 0 
L 45.3125 0 
L 45.3125 8.40625 
Q 42.046875 3.421875 37.71875 1 
Q 33.40625 -1.421875 27.6875 -1.421875 
Q 18.265625 -1.421875 13.375 4.4375 
Q 8.5 10.296875 8.5 21.578125 
z
M 31.109375 56 
z
" id="DejaVuSans-75"/>
     <path d="M 18.3125 70.21875 
L 18.3125 54.6875 
L 36.8125 54.6875 
L 36.8125 47.703125 
L 18.3125 47.703125 
L 18.3125 18.015625 
Q 18.3125 11.328125 20.140625 9.421875 
Q 21.96875 7.515625 27.59375 7.515625 
L 36.8125 7.515625 
L 36.8125 0 
L 27.59375 0 
Q 17.1875 0 13.234375 3.875 
Q 9.28125 7.765625 9.28125 18.015625 
L 9.28125 47.703125 
L 2.6875 47.703125 
L 2.6875 54.6875 
L 9.28125 54.6875 
L 9.28125 70.21875 
z
" id="DejaVuSans-74"/>
     <path d="M 56.203125 29.59375 
L 56.203125 25.203125 
L 14.890625 25.203125 
Q 15.484375 15.921875 20.484375 11.0625 
Q 25.484375 6.203125 34.421875 6.203125 
Q 39.59375 6.203125 44.453125 7.46875 
Q 49.3125 8.734375 54.109375 11.28125 
L 54.109375 2.78125 
Q 49.265625 0.734375 44.1875 -0.34375 
Q 39.109375 -1.421875 33.890625 -1.421875 
Q 20.796875 -1.421875 13.15625 6.1875 
Q 5.515625 13.8125 5.515625 26.8125 
Q 5.515625 40.234375 12.765625 48.109375 
Q 20.015625 56 32.328125 56 
Q 43.359375 56 49.78125 48.890625 
Q 56.203125 41.796875 56.203125 29.59375 
z
M 47.21875 32.234375 
Q 47.125 39.59375 43.09375 43.984375 
Q 39.0625 48.390625 32.421875 48.390625 
Q 24.90625 48.390625 20.390625 44.140625 
Q 15.875 39.890625 15.1875 32.171875 
z
" id="DejaVuSans-65"/>
     <path id="DejaVuSans-20"/>
     <path d="M 9.8125 72.90625 
L 51.703125 72.90625 
L 51.703125 64.59375 
L 19.671875 64.59375 
L 19.671875 43.109375 
L 48.578125 43.109375 
L 48.578125 34.8125 
L 19.671875 34.8125 
L 19.671875 0 
L 9.8125 0 
z
" id="DejaVuSans-46"/>
     <path d="M 30.609375 48.390625 
Q 23.390625 48.390625 19.1875 42.75 
Q 14.984375 37.109375 14.984375 27.296875 
Q 14.984375 17.484375 19.15625 11.84375 
Q 23.34375 6.203125 30.609375 6.203125 
Q 37.796875 6.203125 41.984375 11.859375 
Q 46.1875 17.53125 46.1875 27.296875 
Q 46.1875 37.015625 41.984375 42.703125 
Q 37.796875 48.390625 30.609375 48.390625 
z
M 30.609375 56 
Q 42.328125 56 49.015625 48.375 
Q 55.71875 40.765625 55.71875 27.296875 
Q 55.71875 13.875 49.015625 6.21875 
Q 42.328125 -1.421875 30.609375 -1.421875 
Q 18.84375 -1.421875 12.171875 6.21875 
Q 5.515625 13.875 5.515625 27.296875 
Q 5.515625 40.765625 12.171875 48.375 
Q 18.84375 56 30.609375 56 
z
" id="DejaVuSans-6f"/>
     <path d="M 48.78125 52.59375 
L 48.78125 44.1875 
Q 44.96875 46.296875 41.140625 47.34375 
Q 37.3125 48.390625 33.40625 48.390625 
Q 24.65625 48.390625 19.8125 42.84375 
Q 14.984375 37.3125 14.984375 27.296875 
Q 14.984375 17.28125 19.8125 11.734375 
Q 24.65625 6.203125 33.40625 6.203125 
Q 37.3125 6.203125 41.140625 7.25 
Q 44.96875 8.296875 48.78125 10.40625 
L 48.78125 2.09375 
Q 45.015625 0.34375 40.984375 -0.53125 
Q 36.96875 -1.421875 32.421875 -1.421875 
Q 20.0625 -1.421875 12.78125 6.34375 
Q 5.515625 14.109375 5.515625 27.296875 
Q 5.515625 40.671875 12.859375 48.328125 
Q 20.21875 56 33.015625 56 
Q 37.15625 56 41.109375 55.140625 
Q 45.0625 54.296875 48.78125 52.59375 
z
" id="DejaVuSans-63"/>
    </defs>
    <g transform="translate(54 66.536471)scale(0.16 -0.16)">
     <use xlink:href="#DejaVuSans-42"/>
     <use x="68.603516" xlink:href="#DejaVuSans-72"/>
     <use x="109.716797" xlink:href="#DejaVuSans-75"/>
     <use x="173.095703" xlink:href="#DejaVuSans-74"/>
     <use x="212.304688" xlink:href="#DejaVuSans-65"/>
     <use x="273.828125" xlink:href="#DejaVuSans-20"/>
     <use x="305.615234" xlink:href="#DejaVuSans-46"/>
     <use x="363.087891" xlink:href="#DejaVuSans-6f"/>
     <use x="424.269531" xlink:href="#DejaVuSans-72"/>
     <use x="465.351562" xlink:href="#DejaVuSans-63"/>
     <use x="520.332031" xlink:href="#DejaVuSans-65"/>
    </g>
   </g>
  </g>
  <g id="axes_2">
   <g id="line2d_1">
    <path clip-path="url(#pddde2b2108)" d="M 176.640642 66.536471 
L 178.935993 61.988996 
L 181.231345 57.553495 
L 183.526697 53.339185 
L 185.822049 49.449836 
L 188.1174 45.981217 
L 190.412752 43.018736 
L 192.708104 40.63534 
L 195.003455 38.889715 
L 197.298807 37.824846 
L 199.594159 37.466952 
L 201.88951 37.824846 
L 204.184862 38.889715 
L 206.480214 40.63534 
L 208.775566 43.018736 
L 211.070917 45.981217 
L 213.366269 49.449836 
L 215.661621 53.339185 
L 217.956972 57.553495 
L 220.252324 61.988996 
L 222.547676 66.536471 
L 224.843028 71.083945 
L 227.138379 75.519446 
L 229.433731 79.733756 
L 231.729083 83.623105 
L 234.024434 87.091724 
L 236.319786 90.054205 
L 238.615138 92.437601 
L 240.91049 94.183226 
L 243.205841 95.248095 
L 245.501193 95.605989 
L 247.796545 95.248095 
L 250.091896 94.183226 
L 252.387248 92.437601 
L 254.6826 90.054205 
L 256.977951 87.091724 
L 259.273303 83.623105 
L 261.568655 79.733756 
L 263.864007 75.519446 
L 266.159358 71.083945 
" style="fill:none;stroke:#1f77b4;stroke-linecap:square;stroke-width:1.5;"/>
   </g>
  </g>
  <g id="axes_3">
   <g id="PathCollection_1">
    <defs>
     <path d="M 0 5 
C 1.326016 5 2.597899 4.473168 3.535534 3.535534 
C 4.473168 2.597899 5 1.326016 5 0 
C 5 -1.326016 4.473168 -2.597899 3.535534 -3.535534 
C 2.597899 -4.473168 1.326016 -5 0 -5 
C -1.326016 -5 -2.597899 -4.473168 -3.535534 -3.535534 
C -4.473168 -2.597899 -5 -1.326016 -5 0 
C -5 1.326016 -4.473168 2.597899 -3.535534 3.535534 
C -2.597899 4.473168 -1.326016 5 0 5 
z
" id="m6e592fbc85" style="stroke:#ff0000;stroke-opacity:0.5;"/>
    </defs>
    <g clip-path="url(#p3d69530100)">
     <use style="fill:#ff0000;fill-opacity:0.5;stroke:#ff0000;stroke-opacity:0.5;" x="295.76015" xlink:href="#m6e592fbc85" y="66.536471"/>
     <use style="fill:#ff0000;fill-opacity:0.5;stroke:#ff0000;stroke-opacity:0.5;" x="356.147172" xlink:href="#m6e592fbc85" y="66.536471"/>
    </g>
   </g>
   <g id="PathCollection_2">
    <defs>
     <path d="M -5 5 
L 5 -5 
M -5 -5 
L 5 5 
" id="medec1d57fb" style="stroke:#0000ff;stroke-opacity:0.5;stroke-width:1.5;"/>
    </defs>
    <g clip-path="url(#p3d69530100)">
     <use style="fill:#0000ff;fill-opacity:0.5;stroke:#0000ff;stroke-opacity:0.5;stroke-width:1.5;" x="380.897035" xlink:href="#medec1d57fb" y="66.536471"/>
     <use style="fill:#0000ff;fill-opacity:0.5;stroke:#0000ff;stroke-opacity:0.5;stroke-width:1.5;" x="356.147172" xlink:href="#medec1d57fb" y="66.536471"/>
    </g>
   </g>
   <g id="line2d_2">
    <path clip-path="url(#p3d69530100)" d="M 294.805348 66.536471 
L 381.851837 66.536471 
" style="fill:none;opacity:0.25;stroke:#000000;stroke-linecap:square;stroke-width:1.5;"/>
   </g>
  </g>
  <g id="axes_4">
   <g id="text_2">
    <!-- Genetic -->
    <defs>
     <path d="M 59.515625 10.40625 
L 59.515625 29.984375 
L 43.40625 29.984375 
L 43.40625 38.09375 
L 69.28125 38.09375 
L 69.28125 6.78125 
Q 63.578125 2.734375 56.6875 0.65625 
Q 49.8125 -1.421875 42 -1.421875 
Q 24.90625 -1.421875 15.25 8.5625 
Q 5.609375 18.5625 5.609375 36.375 
Q 5.609375 54.25 15.25 64.234375 
Q 24.90625 74.21875 42 74.21875 
Q 49.125 74.21875 55.546875 72.453125 
Q 61.96875 70.703125 67.390625 67.28125 
L 67.390625 56.78125 
Q 61.921875 61.421875 55.765625 63.765625 
Q 49.609375 66.109375 42.828125 66.109375 
Q 29.4375 66.109375 22.71875 58.640625 
Q 16.015625 51.171875 16.015625 36.375 
Q 16.015625 21.625 22.71875 14.15625 
Q 29.4375 6.6875 42.828125 6.6875 
Q 48.046875 6.6875 52.140625 7.59375 
Q 56.25 8.5 59.515625 10.40625 
z
" id="DejaVuSans-47"/>
     <path d="M 54.890625 33.015625 
L 54.890625 0 
L 45.90625 0 
L 45.90625 32.71875 
Q 45.90625 40.484375 42.875 44.328125 
Q 39.84375 48.1875 33.796875 48.1875 
Q 26.515625 48.1875 22.3125 43.546875 
Q 18.109375 38.921875 18.109375 30.90625 
L 18.109375 0 
L 9.078125 0 
L 9.078125 54.6875 
L 18.109375 54.6875 
L 18.109375 46.1875 
Q 21.34375 51.125 25.703125 53.5625 
Q 30.078125 56 35.796875 56 
Q 45.21875 56 50.046875 50.171875 
Q 54.890625 44.34375 54.890625 33.015625 
z
" id="DejaVuSans-6e"/>
     <path d="M 9.421875 54.6875 
L 18.40625 54.6875 
L 18.40625 0 
L 9.421875 0 
z
M 9.421875 75.984375 
L 18.40625 75.984375 
L 18.40625 64.59375 
L 9.421875 64.59375 
z
" id="DejaVuSans-69"/>
    </defs>
    <g transform="translate(54 143.28)scale(0.16 -0.16)">
     <use xlink:href="#DejaVuSans-47"/>
     <use x="77.490234" xlink:href="#DejaVuSans-65"/>
     <use x="139.013672" xlink:href="#DejaVuSans-6e"/>
     <use x="202.392578" xlink:href="#DejaVuSans-65"/>
     <use x="263.916016" xlink:href="#DejaVuSans-74"/>
     <use x="303.125" xlink:href="#DejaVuSans-69"/>
     <use x="330.908203" xlink:href="#DejaVuSans-63"/>
    </g>
   </g>
  </g>
  <g id="axes_5">
   <g id="line2d_3">
    <path clip-path="url(#p24461fb80c)" d="M 176.640642 127.154417 
L 178.935993 128.627569 
L 181.231345 129.277748 
L 183.526697 132.705916 
L 185.822049 118.12481 
L 188.1174 126.171727 
L 190.412752 114.402141 
L 192.708104 122.144778 
L 195.003455 123.118243 
L 197.298807 124.116283 
L 199.594159 114.210481 
L 201.88951 118.082032 
L 204.184862 127.012707 
L 206.480214 130.442717 
L 208.775566 135.02092 
L 211.070917 130.9126 
L 213.366269 128.924112 
L 215.661621 123.851525 
L 217.956972 116.764402 
L 220.252324 123.118243 
L 222.547676 124.480648 
L 224.843028 130.95452 
L 227.138379 172.349519 
L 229.433731 131.365248 
L 231.729083 123.587727 
L 234.024434 138.259168 
L 236.319786 146.922064 
L 238.615138 128.222213 
L 240.91049 139.227082 
L 243.205841 160.038887 
L 245.501193 145.546221 
L 247.796545 129.895254 
L 250.091896 136.209454 
L 252.387248 139.917183 
L 254.6826 141.546628 
L 256.977951 140.571231 
L 259.273303 144.050138 
L 261.568655 155.732252 
L 263.864007 146.725075 
L 266.159358 125.114322 
" style="fill:none;stroke:#1f77b4;stroke-linecap:square;stroke-width:1.5;"/>
   </g>
  </g>
  <g id="axes_6">
   <g id="PathCollection_3">
    <g clip-path="url(#p007ba5d564)">
     <use style="fill:#ff0000;fill-opacity:0.5;stroke:#ff0000;stroke-opacity:0.5;" x="361.550196" xlink:href="#m6e592fbc85" y="143.28"/>
     <use style="fill:#ff0000;fill-opacity:0.5;stroke:#ff0000;stroke-opacity:0.5;" x="361.550362" xlink:href="#m6e592fbc85" y="143.28"/>
    </g>
   </g>
   <g id="PathCollection_4">
    <g clip-path="url(#p007ba5d564)">
     <use style="fill:#0000ff;fill-opacity:0.5;stroke:#0000ff;stroke-opacity:0.5;stroke-width:1.5;" x="383.813168" xlink:href="#medec1d57fb" y="143.28"/>
     <use style="fill:#0000ff;fill-opacity:0.5;stroke:#0000ff;stroke-opacity:0.5;stroke-width:1.5;" x="383.813546" xlink:href="#medec1d57fb" y="143.28"/>
    </g>
   </g>
   <g id="line2d_4">
    <path clip-path="url(#p007ba5d564)" d="M 294.805348 143.28 
L 384.324064 143.28 
" style="fill:none;opacity:0.25;stroke:#000000;stroke-linecap:square;stroke-width:1.5;"/>
   </g>
  </g>
  <g id="axes_7">
   <g id="text_3">
    <!-- LTS -->
    <defs>
     <path d="M 9.8125 72.90625 
L 19.671875 72.90625 
L 19.671875 8.296875 
L 55.171875 8.296875 
L 55.171875 0 
L 9.8125 0 
z
" id="DejaVuSans-4c"/>
     <path d="M -0.296875 72.90625 
L 61.375 72.90625 
L 61.375 64.59375 
L 35.5 64.59375 
L 35.5 0 
L 25.59375 0 
L 25.59375 64.59375 
L -0.296875 64.59375 
z
" id="DejaVuSans-54"/>
     <path d="M 53.515625 70.515625 
L 53.515625 60.890625 
Q 47.90625 63.578125 42.921875 64.890625 
Q 37.9375 66.21875 33.296875 66.21875 
Q 25.25 66.21875 20.875 63.09375 
Q 16.5 59.96875 16.5 54.203125 
Q 16.5 49.359375 19.40625 46.890625 
Q 22.3125 44.4375 30.421875 42.921875 
L 36.375 41.703125 
Q 47.40625 39.59375 52.65625 34.296875 
Q 57.90625 29 57.90625 20.125 
Q 57.90625 9.515625 50.796875 4.046875 
Q 43.703125 -1.421875 29.984375 -1.421875 
Q 24.8125 -1.421875 18.96875 -0.25 
Q 13.140625 0.921875 6.890625 3.21875 
L 6.890625 13.375 
Q 12.890625 10.015625 18.65625 8.296875 
Q 24.421875 6.59375 29.984375 6.59375 
Q 38.421875 6.59375 43.015625 9.90625 
Q 47.609375 13.234375 47.609375 19.390625 
Q 47.609375 24.75 44.3125 27.78125 
Q 41.015625 30.8125 33.5 32.328125 
L 27.484375 33.5 
Q 16.453125 35.6875 11.515625 40.375 
Q 6.59375 45.0625 6.59375 53.421875 
Q 6.59375 63.09375 13.40625 68.65625 
Q 20.21875 74.21875 32.171875 74.21875 
Q 37.3125 74.21875 42.625 73.28125 
Q 47.953125 72.359375 53.515625 70.515625 
z
" id="DejaVuSans-53"/>
    </defs>
    <g transform="translate(54 220.023529)scale(0.16 -0.16)">
     <use xlink:href="#DejaVuSans-4c"/>
     <use x="55.509766" xlink:href="#DejaVuSans-54"/>
     <use x="116.59375" xlink:href="#DejaVuSans-53"/>
    </g>
   </g>
  </g>
  <g id="axes_8">
   <g id="line2d_5">
    <path clip-path="url(#p3f870a5a64)" d="M 176.640642 249.088903 
L 178.87861 249.089552 
L 181.116578 249.090184 
L 183.354545 249.090785 
L 185.592513 249.09134 
L 187.830481 249.091834 
L 190.068449 249.092257 
L 192.306417 249.092597 
L 194.544385 249.092846 
L 196.782353 249.092997 
L 199.020321 249.093048 
L 201.258289 249.092997 
L 203.496257 249.092846 
L 205.734225 249.092597 
L 207.972193 249.092257 
L 210.21016 249.091834 
L 212.448128 249.09134 
L 214.686096 249.090785 
L 216.924064 249.090184 
L 219.162032 249.089552 
L 221.4 249.088903 
L 223.637968 239.994562 
L 225.875936 231.124176 
L 228.113904 222.696116 
L 230.351872 214.917933 
L 232.58984 207.981069 
L 234.827807 202.056652 
L 237.065775 197.290085 
L 239.303743 193.799208 
L 241.541711 191.669486 
L 243.779679 190.954011 
L 246.017647 191.669486 
L 248.255615 193.799208 
L 250.493583 197.290085 
L 252.731551 202.056652 
L 254.969519 207.981069 
L 257.207487 214.917933 
L 259.445455 222.696116 
L 261.683422 231.124176 
L 263.92139 239.994562 
L 266.159358 249.088903 
" style="fill:none;stroke:#1f77b4;stroke-linecap:square;stroke-width:1.5;"/>
   </g>
  </g>
  <g id="axes_9">
   <g id="PathCollection_5">
    <g clip-path="url(#p083eadc310)">
     <use style="fill:#ff0000;fill-opacity:0.5;stroke:#ff0000;stroke-opacity:0.5;" x="383.343556" xlink:href="#m6e592fbc85" y="220.023529"/>
     <use style="fill:#ff0000;fill-opacity:0.5;stroke:#ff0000;stroke-opacity:0.5;" x="383.340987" xlink:href="#m6e592fbc85" y="220.023529"/>
    </g>
   </g>
   <g id="PathCollection_6">
    <g clip-path="url(#p083eadc310)">
     <use style="fill:#0000ff;fill-opacity:0.5;stroke:#0000ff;stroke-opacity:0.5;stroke-width:1.5;" x="332.609405" xlink:href="#medec1d57fb" y="220.023529"/>
     <use style="fill:#0000ff;fill-opacity:0.5;stroke:#0000ff;stroke-opacity:0.5;stroke-width:1.5;" x="332.615514" xlink:href="#medec1d57fb" y="220.023529"/>
    </g>
   </g>
   <g id="line2d_6">
    <path clip-path="url(#p083eadc310)" d="M 294.805348 220.023529 
L 384.324064 220.023529 
" style="fill:none;opacity:0.25;stroke:#000000;stroke-linecap:square;stroke-width:1.5;"/>
   </g>
  </g>
 </g>
 <defs>
  <clipPath id="pddde2b2108">
   <rect height="63.952941" width="98.470588" x="172.164706" y="34.56"/>
  </clipPath>
  <clipPath id="p3d69530100">
   <rect height="63.952941" width="98.470588" x="290.329412" y="34.56"/>
  </clipPath>
  <clipPath id="p24461fb80c">
   <rect height="63.952941" width="98.470588" x="172.164706" y="111.303529"/>
  </clipPath>
  <clipPath id="p007ba5d564">
   <rect height="63.952941" width="98.470588" x="290.329412" y="111.303529"/>
  </clipPath>
  <clipPath id="p3f870a5a64">
   <rect height="63.952941" width="98.470588" x="172.164706" y="188.047059"/>
  </clipPath>
  <clipPath id="p083eadc310">
   <rect height="63.952941" width="98.470588" x="290.329412" y="188.047059"/>
  </clipPath>
 </defs>
</svg>
