<?xml version="1.0" encoding="utf-8" standalone="no"?>
<!DOCTYPE svg PUBLIC "-//W3C//DTD SVG 1.1//EN"
  "http://www.w3.org/Graphics/SVG/1.1/DTD/svg11.dtd">
<!-- Created with matplotlib (http://matplotlib.org/) -->
<svg height="288pt" version="1.1" viewBox="0 0 432 288" width="432pt" xmlns="http://www.w3.org/2000/svg" xmlns:xlink="http://www.w3.org/1999/xlink">
 <defs>
  <style type="text/css">
*{stroke-linecap:butt;stroke-linejoin:round;}
  </style>
 </defs>
 <g id="figure_1">
  <g id="patch_1">
   <path d="M 0 288 
L 432 288 
L 432 0 
L 0 0 
z
" style="fill:#ffffff;"/>
  </g>
  <g id="axes_1">
   <g id="text_1">
    <!-- Class 0 -->
    <defs>
     <path d="M 64.40625 67.28125 
L 64.40625 56.890625 
Q 59.421875 61.53125 53.78125 63.8125 
Q 48.140625 66.109375 41.796875 66.109375 
Q 29.296875 66.109375 22.65625 58.46875 
Q 16.015625 50.828125 16.015625 36.375 
Q 16.015625 21.96875 22.65625 14.328125 
Q 29.296875 6.6875 41.796875 6.6875 
Q 48.140625 6.6875 53.78125 8.984375 
Q 59.421875 11.28125 64.40625 15.921875 
L 64.40625 5.609375 
Q 59.234375 2.09375 53.4375 0.328125 
Q 47.65625 -1.421875 41.21875 -1.421875 
Q 24.65625 -1.421875 15.125 8.703125 
Q 5.609375 18.84375 5.609375 36.375 
Q 5.609375 53.953125 15.125 64.078125 
Q 24.65625 74.21875 41.21875 74.21875 
Q 47.75 74.21875 53.53125 72.484375 
Q 59.328125 70.75 64.40625 67.28125 
z
" id="DejaVuSans-43"/>
     <path d="M 9.421875 75.984375 
L 18.40625 75.984375 
L 18.40625 0 
L 9.421875 0 
z
" id="DejaVuSans-6c"/>
     <path d="M 34.28125 27.484375 
Q 23.390625 27.484375 19.1875 25 
Q 14.984375 22.515625 14.984375 16.5 
Q 14.984375 11.71875 18.140625 8.90625 
Q 21.296875 6.109375 26.703125 6.109375 
Q 34.1875 6.109375 38.703125 11.40625 
Q 43.21875 16.703125 43.21875 25.484375 
L 43.21875 27.484375 
z
M 52.203125 31.203125 
L 52.203125 0 
L 43.21875 0 
L 43.21875 8.296875 
Q 40.140625 3.328125 35.546875 0.953125 
Q 30.953125 -1.421875 24.3125 -1.421875 
Q 15.921875 -1.421875 10.953125 3.296875 
Q 6 8.015625 6 15.921875 
Q 6 25.140625 12.171875 29.828125 
Q 18.359375 34.515625 30.609375 34.515625 
L 43.21875 34.515625 
L 43.21875 35.40625 
Q 43.21875 41.609375 39.140625 45 
Q 35.0625 48.390625 27.6875 48.390625 
Q 23 48.390625 18.546875 47.265625 
Q 14.109375 46.140625 10.015625 43.890625 
L 10.015625 52.203125 
Q 14.9375 54.109375 19.578125 55.046875 
Q 24.21875 56 28.609375 56 
Q 40.484375 56 46.34375 49.84375 
Q 52.203125 43.703125 52.203125 31.203125 
z
" id="DejaVuSans-61"/>
     <path d="M 44.28125 53.078125 
L 44.28125 44.578125 
Q 40.484375 46.53125 36.375 47.5 
Q 32.28125 48.484375 27.875 48.484375 
Q 21.1875 48.484375 17.84375 46.4375 
Q 14.5 44.390625 14.5 40.28125 
Q 14.5 37.15625 16.890625 35.375 
Q 19.28125 33.59375 26.515625 31.984375 
L 29.59375 31.296875 
Q 39.15625 29.25 43.1875 25.515625 
Q 47.21875 21.78125 47.21875 15.09375 
Q 47.21875 7.46875 41.1875 3.015625 
Q 35.15625 -1.421875 24.609375 -1.421875 
Q 20.21875 -1.421875 15.453125 -0.5625 
Q 10.6875 0.296875 5.421875 2 
L 5.421875 11.28125 
Q 10.40625 8.6875 15.234375 7.390625 
Q 20.0625 6.109375 24.8125 6.109375 
Q 31.15625 6.109375 34.5625 8.28125 
Q 37.984375 10.453125 37.984375 14.40625 
Q 37.984375 18.0625 35.515625 20.015625 
Q 33.0625 21.96875 24.703125 23.78125 
L 21.578125 24.515625 
Q 13.234375 26.265625 9.515625 29.90625 
Q 5.8125 33.546875 5.8125 39.890625 
Q 5.8125 47.609375 11.28125 51.796875 
Q 16.75 56 26.8125 56 
Q 31.78125 56 36.171875 55.265625 
Q 40.578125 54.546875 44.28125 53.078125 
z
" id="DejaVuSans-73"/>
     <path id="DejaVuSans-20"/>
     <path d="M 31.78125 66.40625 
Q 24.171875 66.40625 20.328125 58.90625 
Q 16.5 51.421875 16.5 36.375 
Q 16.5 21.390625 20.328125 13.890625 
Q 24.171875 6.390625 31.78125 6.390625 
Q 39.453125 6.390625 43.28125 13.890625 
Q 47.125 21.390625 47.125 36.375 
Q 47.125 51.421875 43.28125 58.90625 
Q 39.453125 66.40625 31.78125 66.40625 
z
M 31.78125 74.21875 
Q 44.046875 74.21875 50.515625 64.515625 
Q 56.984375 54.828125 56.984375 36.375 
Q 56.984375 17.96875 50.515625 8.265625 
Q 44.046875 -1.421875 31.78125 -1.421875 
Q 19.53125 -1.421875 13.0625 8.265625 
Q 6.59375 17.96875 6.59375 36.375 
Q 6.59375 54.828125 13.0625 64.515625 
Q 19.53125 74.21875 31.78125 74.21875 
z
" id="DejaVuSans-30"/>
    </defs>
    <g transform="translate(54 83.978182)scale(0.16 -0.16)">
     <use xlink:href="#DejaVuSans-43"/>
     <use x="69.824219" xlink:href="#DejaVuSans-6c"/>
     <use x="97.607422" xlink:href="#DejaVuSans-61"/>
     <use x="158.886719" xlink:href="#DejaVuSans-73"/>
     <use x="210.986328" xlink:href="#DejaVuSans-73"/>
     <use x="263.085938" xlink:href="#DejaVuSans-20"/>
     <use x="294.873047" xlink:href="#DejaVuSans-30"/>
    </g>
   </g>
  </g>
  <g id="axes_2">
   <g id="line2d_1">
    <path clip-path="url(#p823ea5096e)" d="M 176.640642 83.978182 
L 178.87861 76.950267 
L 181.116578 70.095402 
L 183.354545 63.582377 
L 185.592513 57.571565 
L 187.830481 52.210971 
L 190.068449 47.632592 
L 192.306417 43.949161 
L 194.544385 41.251378 
L 196.782353 39.605671 
L 199.020321 39.052562 
L 201.258289 39.605671 
L 203.496257 41.251378 
L 205.734225 43.949161 
L 207.972193 47.632592 
L 210.21016 52.210971 
L 212.448128 57.571565 
L 214.686096 63.582377 
L 216.924064 70.095402 
L 219.162032 76.950267 
L 221.4 83.978182 
L 223.637968 91.006097 
L 225.875936 97.860962 
L 228.113904 104.373986 
L 230.351872 110.384799 
L 232.58984 115.745392 
L 234.827807 120.323772 
L 237.065775 124.007202 
L 239.303743 126.704985 
L 241.541711 128.350693 
L 243.779679 128.903802 
L 246.017647 128.350693 
L 248.255615 126.704985 
L 250.493583 124.007202 
L 252.731551 120.323772 
L 254.969519 115.745392 
L 257.207487 110.384799 
L 259.445455 104.373986 
L 261.683422 97.860962 
L 263.92139 91.006097 
L 266.159358 83.978182 
" style="fill:none;stroke:#ff0000;stroke-linecap:square;stroke-width:1.5;"/>
   </g>
  </g>
  <g id="axes_3">
   <g id="line2d_2">
    <path clip-path="url(#pe0716177f8)" d="M 294.805348 39.052562 
L 297.043316 53.108393 
L 299.281283 66.818122 
L 301.519251 79.844171 
L 303.757219 91.865796 
L 305.995187 102.586983 
L 308.233155 111.743742 
L 310.471123 119.110603 
L 312.709091 124.506169 
L 314.947059 127.797584 
L 317.185027 128.903802 
L 319.422995 127.797584 
L 321.660963 124.506169 
L 323.89893 119.110603 
L 326.136898 111.743742 
L 328.374866 102.586983 
L 330.612834 91.865796 
L 332.850802 79.844171 
L 335.08877 66.818122 
L 337.326738 53.108393 
L 339.564706 39.052562 
L 341.802674 53.108393 
L 344.040642 66.818122 
L 346.27861 79.844171 
L 348.516578 91.865796 
L 350.754545 102.586983 
L 352.992513 111.743742 
L 355.230481 119.110603 
L 357.468449 124.506169 
L 359.706417 127.797584 
L 361.944385 128.903802 
L 364.182353 127.797584 
L 366.420321 124.506169 
L 368.658289 119.110603 
L 370.896257 111.743742 
L 373.134225 102.586983 
L 375.372193 91.865796 
L 377.61016 79.844171 
L 379.848128 66.818122 
L 382.086096 53.108393 
L 384.324064 39.052562 
" style="fill:none;stroke:#ff0000;stroke-linecap:square;stroke-width:1.5;"/>
   </g>
  </g>
  <g id="axes_4">
   <g id="text_2">
    <!-- Class 1 -->
    <defs>
     <path d="M 12.40625 8.296875 
L 28.515625 8.296875 
L 28.515625 63.921875 
L 10.984375 60.40625 
L 10.984375 69.390625 
L 28.421875 72.90625 
L 38.28125 72.90625 
L 38.28125 8.296875 
L 54.390625 8.296875 
L 54.390625 0 
L 12.40625 0 
z
" id="DejaVuSans-31"/>
    </defs>
    <g transform="translate(54 202.581818)scale(0.16 -0.16)">
     <use xlink:href="#DejaVuSans-43"/>
     <use x="69.824219" xlink:href="#DejaVuSans-6c"/>
     <use x="97.607422" xlink:href="#DejaVuSans-61"/>
     <use x="158.886719" xlink:href="#DejaVuSans-73"/>
     <use x="210.986328" xlink:href="#DejaVuSans-73"/>
     <use x="263.085938" xlink:href="#DejaVuSans-20"/>
     <use x="294.873047" xlink:href="#DejaVuSans-31"/>
    </g>
   </g>
  </g>
  <g id="axes_5">
   <g id="line2d_3">
    <path clip-path="url(#p2045969736)" d="M 176.640642 202.581818 
L 178.87861 209.609733 
L 181.116578 216.464598 
L 183.354545 222.977623 
L 185.592513 228.988435 
L 187.830481 234.349029 
L 190.068449 238.927408 
L 192.306417 242.610839 
L 194.544385 245.308622 
L 196.782353 246.954329 
L 199.020321 247.507438 
L 201.258289 246.954329 
L 203.496257 245.308622 
L 205.734225 242.610839 
L 207.972193 238.927408 
L 210.21016 234.349029 
L 212.448128 228.988435 
L 214.686096 222.977623 
L 216.924064 216.464598 
L 219.162032 209.609733 
L 221.4 202.581818 
L 223.637968 195.553903 
L 225.875936 188.699038 
L 228.113904 182.186014 
L 230.351872 176.175201 
L 232.58984 170.814608 
L 234.827807 166.236228 
L 237.065775 162.552798 
L 239.303743 159.855015 
L 241.541711 158.209307 
L 243.779679 157.656198 
L 246.017647 158.209307 
L 248.255615 159.855015 
L 250.493583 162.552798 
L 252.731551 166.236228 
L 254.969519 170.814608 
L 257.207487 176.175201 
L 259.445455 182.186014 
L 261.683422 188.699038 
L 263.92139 195.553903 
L 266.159358 202.581818 
" style="fill:none;stroke:#0000ff;stroke-linecap:square;stroke-width:1.5;"/>
   </g>
  </g>
  <g id="axes_6">
   <g id="line2d_4">
    <path clip-path="url(#p5dd9b1a865)" d="M 294.805348 247.507438 
L 297.043316 233.451607 
L 299.281283 219.741878 
L 301.519251 206.715829 
L 303.757219 194.694204 
L 305.995187 183.973017 
L 308.233155 174.816258 
L 310.471123 167.449397 
L 312.709091 162.053831 
L 314.947059 158.762416 
L 317.185027 157.656198 
L 319.422995 158.762416 
L 321.660963 162.053831 
L 323.89893 167.449397 
L 326.136898 174.816258 
L 328.374866 183.973017 
L 330.612834 194.694204 
L 332.850802 206.715829 
L 335.08877 219.741878 
L 337.326738 233.451607 
L 339.564706 247.507438 
L 341.802674 233.451607 
L 344.040642 219.741878 
L 346.27861 206.715829 
L 348.516578 194.694204 
L 350.754545 183.973017 
L 352.992513 174.816258 
L 355.230481 167.449397 
L 357.468449 162.053831 
L 359.706417 158.762416 
L 361.944385 157.656198 
L 364.182353 158.762416 
L 366.420321 162.053831 
L 368.658289 167.449397 
L 370.896257 174.816258 
L 373.134225 183.973017 
L 375.372193 194.694204 
L 377.61016 206.715829 
L 379.848128 219.741878 
L 382.086096 233.451607 
L 384.324064 247.507438 
" style="fill:none;stroke:#0000ff;stroke-linecap:square;stroke-width:1.5;"/>
   </g>
  </g>
 </g>
 <defs>
  <clipPath id="p823ea5096e">
   <rect height="98.836364" width="98.470588" x="172.164706" y="34.56"/>
  </clipPath>
  <clipPath id="pe0716177f8">
   <rect height="98.836364" width="98.470588" x="290.329412" y="34.56"/>
  </clipPath>
  <clipPath id="p2045969736">
   <rect height="98.836364" width="98.470588" x="172.164706" y="153.163636"/>
  </clipPath>
  <clipPath id="p5dd9b1a865">
   <rect height="98.836364" width="98.470588" x="290.329412" y="153.163636"/>
  </clipPath>
 </defs>
</svg>
